<?xml version="1.0" encoding="utf-8"?>
<!-- Generator: Adobe Illustrator 18.0.0, SVG Export Plug-In . SVG Version: 6.00 Build 0)  -->
<!DOCTYPE svg PUBLIC "-//W3C//DTD SVG 1.1//EN" "http://www.w3.org/Graphics/SVG/1.1/DTD/svg11.dtd">
<svg version="1.1" xmlns="http://www.w3.org/2000/svg" xmlns:xlink="http://www.w3.org/1999/xlink" x="0px" y="0px"
	 viewBox="0 0 2000 1964" enable-background="new 0 0 2000 1964" xml:space="preserve">
<g id="areas">
	
		<rect opacity="0" id="_x31_" x="0.3" y="-0.9" display="inline" fill="#517FC1"  stroke-miterlimit="10" width="250" height="300.5"/>

		<rect opacity="0" id="_x32_" x="250.3" y="-0.9" display="inline" fill="#517FC1"  stroke-miterlimit="10" width="250" height="300.5"/>

		<rect opacity="0" id="_x33_" x="500.3" y="-0.9" display="inline" fill="#517FC1"  stroke-miterlimit="10" width="250" height="300.5"/>

		<rect opacity="0" id="_x34_" x="750.3" y="-0.9" display="inline" fill="#517FC1"  stroke-miterlimit="10" width="250" height="300.5"/>

		<rect opacity="0" id="_x35_" x="1000.3" y="-0.9" display="inline" fill="#517FC1"  stroke-miterlimit="10" width="250" height="300.5"/>

		<rect opacity="0" id="_x36_" x="1250.3" y="-0.9" display="inline" fill="#517FC1"  stroke-miterlimit="10" width="250" height="300.5"/>

		<rect opacity="0" id="_x37_" x="1500.3" y="-0.9" display="inline" fill="#517FC1"  stroke-miterlimit="10" width="250" height="300.5"/>

		<rect opacity="0" id="_x38_" x="1750.3" y="-0.9" display="inline" fill="#517FC1"  stroke-miterlimit="10" width="250" height="300.5"/>

		<rect opacity="0" id="_x39_" x="0.3" y="299.6" display="inline" fill="#517FC1"  stroke-miterlimit="10" width="250" height="300.5"/>

		<rect opacity="0" id="_x31_0" x="250.3" y="299.6" display="inline" fill="#517FC1"  stroke-miterlimit="10" width="250" height="300.5"/>

		<rect opacity="0" id="_x31_1" x="500.3" y="299.6" display="inline" fill="#517FC1"  stroke-miterlimit="10" width="250" height="300.5"/>

		<rect opacity="0" id="_x31_2" x="750.3" y="299.6" display="inline" fill="#517FC1"  stroke-miterlimit="10" width="250" height="300.5"/>

		<rect opacity="0" id="_x31_3" x="1000.3" y="299.6" display="inline" fill="#517FC1"  stroke-miterlimit="10" width="250" height="300.5"/>

		<rect opacity="0" id="_x31_4" x="1250.3" y="299.6" display="inline" fill="#517FC1"  stroke-miterlimit="10" width="250" height="300.5"/>

		<rect opacity="0" id="_x31_5" x="1500.3" y="299.6" display="inline" fill="#517FC1"  stroke-miterlimit="10" width="250" height="300.5"/>

		<rect opacity="0" id="_x31_6" x="1750.3" y="299.6" display="inline" fill="#517FC1"  stroke-miterlimit="10" width="250" height="300.5"/>

		<rect opacity="0" id="_x31_7" x="0.3" y="600.1" display="inline" fill="#517FC1"  stroke-miterlimit="10" width="250" height="331.1"/>

		<rect opacity="0" id="_x31_8" x="250" y="600.1" display="inline" fill="#517FC1"  stroke-miterlimit="10" width="250" height="331.1"/>

		<rect opacity="0" id="_x31_9" x="499.9" y="600.1" display="inline" fill="#517FC1"  stroke-miterlimit="10" width="250" height="331.1"/>

		<rect opacity="0" id="_x32_0" x="749.9" y="600.1" display="inline" fill="#517FC1"  stroke-miterlimit="10" width="250" height="331.1"/>

		<rect opacity="0" id="_x32_1" x="999.9" y="600.1" display="inline" fill="#517FC1"  stroke-miterlimit="10" width="250" height="331.1"/>

		<rect opacity="0" id="_x32_2" x="1249.8" y="600.1" display="inline" fill="#517FC1"  stroke-miterlimit="10" width="250" height="331.1"/>

		<rect opacity="0" id="_x32_3" x="1499.8" y="600.1" display="inline" fill="#517FC1"  stroke-miterlimit="10" width="250" height="331.1"/>

		<rect opacity="0" id="_x32_4" x="1749.8" y="600.1" display="inline" fill="#517FC1"  stroke-miterlimit="10" width="250" height="331.1"/>

		<rect opacity="0" id="_x32_5" x="0.3" y="931.2" display="inline" fill="#517FC1"  stroke-miterlimit="10" width="249.9" height="345"/>

		<rect opacity="0" id="_x32_6" x="250.2" y="931.2" display="inline" fill="#517FC1"  stroke-miterlimit="10" width="249.9" height="345"/>

		<rect opacity="0" id="_x32_7" x="500.1" y="931.2" display="inline" fill="#517FC1"  stroke-miterlimit="10" width="249.9" height="345"/>

		<rect opacity="0" id="_x32_8" x="750.1" y="931.2" display="inline" fill="#517FC1"  stroke-miterlimit="10" width="249.9" height="345"/>

		<rect opacity="0" id="_x32_9" x="1000" y="931.2" display="inline" fill="#517FC1"  stroke-miterlimit="10" width="249.9" height="345"/>

		<rect opacity="0" id="_x33_0" x="1249.9" y="931.2" display="inline" fill="#517FC1"  stroke-miterlimit="10" width="249.9" height="345"/>

		<rect opacity="0" id="_x33_1" x="1499.9" y="931.2" display="inline" fill="#517FC1"  stroke-miterlimit="10" width="249.9" height="345"/>

		<rect opacity="0" id="_x33_2" x="1749.8" y="931.2" display="inline" fill="#517FC1"  stroke-miterlimit="10" width="249.9" height="345"/>

		<rect opacity="0" id="_x33_3" x="0.3" y="1276.2" display="inline" fill="#517FC1"  stroke-miterlimit="10" width="249.9" height="345"/>

		<rect opacity="0" id="_x33_4" x="250.2" y="1276.2" display="inline" fill="#517FC1"  stroke-miterlimit="10" width="249.9" height="345"/>

		<rect opacity="0" id="_x33_5" x="500.1" y="1276.2" display="inline" fill="#517FC1"  stroke-miterlimit="10" width="249.9" height="345"/>

		<rect opacity="0" id="_x33_6" x="750.1" y="1276.2" display="inline" fill="#517FC1"  stroke-miterlimit="10" width="249.9" height="345"/>

		<rect opacity="0" id="_x33_7" x="1000" y="1276.2" display="inline" fill="#517FC1"  stroke-miterlimit="10" width="249.9" height="345"/>

		<rect opacity="0" id="_x33_8" x="1249.9" y="1276.2" display="inline" fill="#517FC1"  stroke-miterlimit="10" width="249.9" height="345"/>

		<rect opacity="0" id="_x33_9" x="1499.9" y="1276.2" display="inline" fill="#517FC1"  stroke-miterlimit="10" width="249.9" height="345"/>

		<rect opacity="0" id="_x34_0" x="1749.8" y="1276.2" display="inline" fill="#517FC1"  stroke-miterlimit="10" width="249.9" height="345"/>

		<rect opacity="0" id="_x34_1" x="0.3" y="1619.9" display="inline" fill="#517FC1"  stroke-miterlimit="10" width="249.9" height="345"/>

		<rect opacity="0" id="_x34_2" x="250.2" y="1619.9" display="inline" fill="#517FC1"  stroke-miterlimit="10" width="249.9" height="345"/>

		<rect opacity="0" id="_x34_3" x="500.1" y="1619.9" display="inline" fill="#517FC1"  stroke-miterlimit="10" width="249.9" height="345"/>

		<rect opacity="0" id="_x34_4" x="750.1" y="1619.9" display="inline" fill="#517FC1"  stroke-miterlimit="10" width="249.9" height="345"/>

		<rect opacity="0" id="_x34_5" x="1000" y="1619.9" display="inline" fill="#517FC1"  stroke-miterlimit="10" width="249.9" height="345"/>

		<rect opacity="0" id="_x34_6" x="1249.9" y="1619.9" display="inline" fill="#517FC1"  stroke-miterlimit="10" width="249.9" height="345"/>

		<rect opacity="0" id="_x34_7" x="1499.9" y="1619.9" display="inline" fill="#517FC1"  stroke-miterlimit="10" width="249.9" height="345"/>

		<rect opacity="0" id="_x34_8" x="1749.8" y="1619.9" display="inline" fill="#517FC1"  stroke-miterlimit="10" width="249.9" height="345"/>
</g>
</svg>
