<?xml version="1.0" encoding="utf-8"?>
<!-- Generator: Adobe Illustrator 18.0.0, SVG Export Plug-In . SVG Version: 6.00 Build 0)  -->
<!DOCTYPE svg PUBLIC "-//W3C//DTD SVG 1.1//EN" "http://www.w3.org/Graphics/SVG/1.1/DTD/svg11.dtd">
<svg version="1.1" id="Layer_1" xmlns="http://www.w3.org/2000/svg" xmlns:xlink="http://www.w3.org/1999/xlink" x="0px" y="0px"
	 viewBox="0 0 390.6 591.4" enable-background="new 0 0 390.6 591.4" xml:space="preserve">
<g>
	<path fill="#c4c4c4" d="M0,163.3c0-24.7,7.9-49.8,23.8-75.2C39.7,62.7,62.9,41.7,93.4,25C123.8,8.3,159.4,0,200,0
		c37.8,0,71.1,7,100,20.9c28.9,13.9,51.2,32.9,67,56.8c15.8,24,23.6,50,23.6,78.1c0,22.1-4.5,41.5-13.5,58.2
		c-9,16.7-19.7,31.1-32,43.2c-12.4,12.1-34.6,32.5-66.6,61.1c-8.9,8.1-16,15.2-21.3,21.3c-5.3,6.1-9.3,11.7-11.9,16.8
		c-2.6,5.1-4.6,10.2-6.1,15.2c-1.4,5.1-3.6,14-6.4,26.8c-5,27.1-20.4,40.6-46.5,40.6c-13.5,0-24.9-4.4-34.2-13.3
		c-9.2-8.8-13.9-22-13.9-39.5c0-21.9,3.4-40.8,10.2-56.8c6.8-16,15.8-30.1,27-42.2c11.2-12.1,26.3-26.5,45.3-43.2
		c16.7-14.6,28.7-25.6,36.1-33s13.7-15.7,18.8-24.8c5.1-9.1,7.6-19,7.6-29.7c0-20.8-7.8-38.4-23.2-52.7
		c-15.5-14.3-35.5-21.5-60-21.5c-28.6,0-49.7,7.2-63.3,21.7c-13.5,14.5-25,35.7-34.4,63.9c-8.9,29.4-25.7,44.1-50.4,44.1
		c-14.6,0-26.9-5.1-36.9-15.4C5,186.4,0,175.3,0,163.3z M190.6,591.4c-15.9,0-29.8-5.1-41.6-15.4c-11.9-10.3-17.8-24.7-17.8-43.2
		c0-16.4,5.7-30.2,17.2-41.4c11.5-11.2,25.5-16.8,42.2-16.8c16.4,0,30.2,5.6,41.4,16.8c11.2,11.2,16.8,25,16.8,41.4
		c0,18.2-5.9,32.6-17.6,43S206,591.4,190.6,591.4z"/>
</g>
</svg>
