<?xml version="1.0" encoding="utf-8"?>
<!-- Generator: Adobe Illustrator 18.0.0, SVG Export Plug-In . SVG Version: 6.00 Build 0)  -->
<!DOCTYPE svg PUBLIC "-//W3C//DTD SVG 1.1//EN" "http://www.w3.org/Graphics/SVG/1.1/DTD/svg11.dtd">
<svg version="1.1" id="Layer_1" xmlns="http://www.w3.org/2000/svg" xmlns:xlink="http://www.w3.org/1999/xlink" x="0px" y="0px"
	 viewBox="0 0 2000 1600" enable-background="new 0 0 2000 1600" xml:space="preserve">
<polygon fill="#EE2F29" points="1000,216.2 1025.8,162.5 1048.7,226.9 1074.5,226.9 1025.8,99.3 1000,163.1 974.2,99.3 925.5,226.9 
	951.3,226.9 974.2,162.5 "/>
<circle fill="none" stroke="#EE2F29" stroke-width="6.713" stroke-miterlimit="10" cx="1000" cy="179" r="120.5"/>
<rect x="827.3" y="226.9" fill="#FFFFFF" width="361.4" height="80.4"/>
<g>
	<path fill="#010101" d="M393.2,302.9c-2.4,1.2-7.2,2.4-13.3,2.4c-14.2,0-25-9-25-25.6c0-15.8,10.7-26.5,26.4-26.5
		c6.3,0,10.3,1.4,12,2.2l-1.6,5.3c-2.5-1.2-6-2.1-10.2-2.1c-11.8,0-19.7,7.6-19.7,20.8c0,12.4,7.1,20.3,19.4,20.3
		c4,0,8-0.8,10.6-2.1L393.2,302.9z"/>
	<path fill="#010101" d="M404.2,268.3l5.2,7.8c1.3,2,2.5,3.9,3.7,5.9h0.2c1.2-2.2,2.4-4,3.6-6l5.1-7.7h7.1l-12.4,17.5l12.7,18.7H422
		l-5.3-8.2c-1.4-2.1-2.6-4.1-3.9-6.3h-0.1c-1.2,2.2-2.5,4.1-3.8,6.3l-5.2,8.2h-7.3l12.9-18.5l-12.3-17.8H404.2z"/>
	<path fill="#010101" d="M438.5,287.6c0.2,8.9,5.9,12.6,12.4,12.6c4.7,0,7.6-0.8,10-1.9l1.1,4.7c-2.3,1-6.3,2.2-12.1,2.2
		c-11.2,0-17.8-7.3-17.8-18.3s6.4-19.6,17-19.6c11.8,0,15,10.4,15,17.1c0,1.4-0.1,2.4-0.2,3.1H438.5z M457.9,282.9
		c0.1-4.2-1.7-10.7-9.1-10.7c-6.7,0-9.6,6.1-10.1,10.7H457.9z"/>
	<path fill="#010101" d="M472.8,268.3h8.1l6.6,18.3c0.9,2.7,2.5,7.1,3.3,10h0.1c0.8-2.7,2.9-8.5,4.3-12.4l5.8-15.8h8.2l2.5,36.3
		h-6.3l-0.8-17.3c-0.2-3.9-0.5-8.5-0.7-13h-0.2c-1,3.3-2,6.2-4,11.8l-7,18.3H488l-6.4-17.9c-1.1-3.4-2.7-8.7-3.6-12.1h-0.3
		c-0.1,4.3-0.4,9.1-0.6,13l-0.9,17.2h-6.1L472.8,268.3z"/>
	<path fill="#010101" d="M540.4,304.6l-0.5-4.6h-0.2c-2,2.8-5.9,5.4-11.1,5.4c-7.4,0-11.1-5.2-11.1-10.4c0-8.8,7.8-13.6,21.8-13.5
		v-0.8c0-3-0.8-8.4-8.2-8.4c-3.4,0-6.9,1-9.4,2.7l-1.5-4.3c3-2,7.3-3.2,11.9-3.2c11.1,0,13.8,7.6,13.8,14.8v13.6
		c0,3.1,0.1,6.2,0.6,8.7H540.4z M539.5,286c-7.2-0.1-15.4,1.1-15.4,8.2c0,4.3,2.9,6.3,6.2,6.3c4.7,0,7.7-3,8.8-6.1
		c0.2-0.7,0.4-1.4,0.4-2.1V286z"/>
	<path fill="#010101" d="M599.6,268.3v36.3h-6.5v-31.1h-12.4v9.4c0,10.2-1,17-5.7,20.1c-1.8,1.4-3.8,2.2-7.2,2.2l-0.7-5.2
		c1.3-0.2,2.7-0.8,3.6-1.5c3.4-2.5,3.7-7.6,3.7-15.7v-14.6H599.6z"/>
	<path fill="#010101" d="M616.5,268.3v15.3c0,5.8-0.1,9.4-0.4,14.5l0.2,0.1c2.2-4.4,3.5-7,5.9-11.2l11.3-18.7h7.7v36.3h-6.3v-15.4
		c0-5.9,0.1-9,0.4-14.8h-0.2c-2.3,4.6-3.9,7.6-6,11.2c-3.5,5.6-7.4,12.6-11.3,19h-7.6v-36.3H616.5z"/>
	<path fill="#010101" d="M658.3,268.3v14.6h17.2v-14.6h6.5v36.3h-6.5v-16.4h-17.2v16.4h-6.5v-36.3H658.3z"/>
	<path fill="#010101" d="M699,268.3v15.3c0,5.8-0.1,9.4-0.4,14.5l0.2,0.1c2.2-4.4,3.5-7,5.9-11.2l11.3-18.7h7.7v36.3h-6.3v-15.4
		c0-5.9,0.1-9,0.4-14.8h-0.2c-2.3,4.6-3.9,7.6-6,11.2c-3.5,5.6-7.4,12.6-11.3,19h-7.6v-36.3H699z"/>
	<path fill="#010101" d="M740.5,268.3v15.3c0,5.8-0.1,9.4-0.4,14.5l0.2,0.1c2.2-4.4,3.5-7,5.9-11.2l11.3-18.7h7.7v36.3H759v-15.4
		c0-5.9,0.2-9,0.5-14.8h-0.2c-2.3,4.6-3.9,7.6-6,11.2c-3.5,5.6-7.4,12.6-11.3,19h-7.6v-36.3H740.5z M744.8,253.5
		c0.2,3.2,1.8,5.7,4.8,5.7c3.2,0,4.7-2.4,5.1-5.7h4.7c-0.3,6.1-4.2,9.3-10,9.3c-6.6,0-9.1-4.1-9.4-9.3H744.8z"/>
	<path fill="#010101" d="M835.3,278.8c0,17.4-10.6,26.6-23.5,26.6c-13.3,0-22.7-10.3-22.7-25.6c0-16,10-26.5,23.5-26.5
		C826.4,253.2,835.3,263.8,835.3,278.8z M796.1,279.6c0,10.8,5.8,20.5,16.1,20.5c10.3,0,16.2-9.5,16.2-21c0-10-5.2-20.5-16.1-20.5
		C801.5,258.5,796.1,268.5,796.1,279.6z"/>
	<path fill="#010101" d="M844.3,268.3h8.1l6.6,18.3c0.9,2.7,2.5,7.1,3.3,10h0.2c0.8-2.7,2.8-8.5,4.3-12.4l5.9-15.8h8.2l2.6,36.3H877
		l-0.8-17.3c-0.2-3.9-0.5-8.5-0.7-13h-0.2c-1,3.3-1.9,6.2-4,11.8l-7,18.3h-4.8l-6.5-17.9c-1.1-3.4-2.7-8.7-3.6-12.1h-0.3
		c-0.2,4.3-0.4,9.1-0.6,13l-0.9,17.2h-6.1L844.3,268.3z"/>
	<path fill="#010101" d="M917.8,303.2c-1.7,0.9-5.5,2.1-10.4,2.1c-10.9,0-18.1-7.4-18.1-18.5c0-11.2,7.7-19.3,19.5-19.3
		c3.9,0,7.4,1,9.2,1.9l-1.5,5.1c-1.6-0.9-4-1.7-7.7-1.7c-8.3,0-12.8,6.1-12.8,13.7c0,8.4,5.4,13.6,12.6,13.6c3.8,0,6.2-1,8.1-1.8
		L917.8,303.2z"/>
	<path fill="#010101" d="M932,268.3V284h1.6l13.6-15.7h8l-15.8,16.4c5.9,0.6,9.4,4.5,12.2,11c1,2.4,2.2,5.9,3.9,8.8h-6.9
		c-1-1.6-2.2-4.4-3.4-7.4c-2.5-5.8-5.9-8.5-12-8.5H932v16h-6.5v-36.3H932z"/>
	<path fill="#010101" d="M993.8,286.1c0,13.4-9.3,19.3-18.1,19.3c-9.8,0-17.4-7.2-17.4-18.7c0-12.1,8-19.3,18-19.3
		C986.8,267.4,993.8,275,993.8,286.1z M965,286.5c0,7.9,4.6,13.9,11,13.9c6.3,0,11-5.9,11-14.1c0-6.1-3.1-13.9-10.9-13.9
		S965,279.6,965,286.5z"/>
	<path fill="#010101" d="M1024.3,268.3v5.3h-15.7v31h-6.5v-36.3H1024.3z"/>
	<path fill="#010101" d="M1062.4,286.1c0,13.4-9.3,19.3-18.1,19.3c-9.8,0-17.4-7.2-17.4-18.7c0-12.1,8-19.3,18-19.3
		C1055.3,267.4,1062.4,275,1062.4,286.1z M1033.6,286.5c0,7.9,4.6,13.9,11,13.9c6.3,0,11-5.9,11-14.1c0-6.1-3.1-13.9-10.9-13.9
		S1033.6,279.6,1033.6,286.5z"/>
	<path fill="#010101" d="M1087,268.3h8.1l6.6,18.3c0.9,2.7,2.5,7.1,3.3,10h0.2c0.8-2.7,2.8-8.5,4.3-12.4l5.9-15.8h8.2l2.6,36.3h-6.3
		l-0.8-17.3c-0.2-3.9-0.5-8.5-0.7-13h-0.2c-1,3.3-1.9,6.2-4,11.8l-7,18.3h-4.8l-6.5-17.9c-1.1-3.4-2.7-8.7-3.6-12.1h-0.3
		c-0.2,4.3-0.4,9.1-0.6,13l-0.9,17.2h-6.1L1087,268.3z"/>
	<path fill="#010101" d="M1138.2,287.6c0.2,8.9,5.8,12.6,12.5,12.6c4.7,0,7.6-0.8,10-1.9l1.1,4.7c-2.3,1-6.3,2.2-12.1,2.2
		c-11.2,0-17.8-7.3-17.8-18.3s6.5-19.6,17-19.6c11.8,0,15,10.4,15,17.1c0,1.4-0.2,2.4-0.2,3.1H1138.2z M1157.5,282.9
		c0.1-4.2-1.7-10.7-9.1-10.7c-6.7,0-9.6,6.1-10.1,10.7H1157.5z"/>
	<path fill="#010101" d="M1196.3,268.3v5.2H1185v31h-6.5v-31h-11.3v-5.2H1196.3z"/>
	<path fill="#010101" d="M1202.1,280.1c0-4.6-0.1-8.4-0.3-11.8h5.9l0.3,6.2h0.2c2.7-4.4,7-7,12.9-7c8.8,0,15.4,7.4,15.4,18.4
		c0,13-7.9,19.5-16.5,19.5c-4.8,0-9-2.1-11.2-5.7h-0.1v19.7h-6.5V280.1z M1208.6,289.8c0,1,0.1,1.9,0.3,2.7c1.2,4.6,5.2,7.7,9.9,7.7
		c7,0,11-5.7,11-14c0-7.3-3.8-13.5-10.8-13.5c-4.5,0-8.7,3.2-10,8.2c-0.2,0.8-0.4,1.8-0.4,2.7V289.8z"/>
	<path fill="#010101" d="M1277.6,286.1c0,13.4-9.3,19.3-18.1,19.3c-9.8,0-17.4-7.2-17.4-18.7c0-12.1,8-19.3,18-19.3
		C1270.6,267.4,1277.6,275,1277.6,286.1z M1248.8,286.5c0,7.9,4.6,13.9,11,13.9c6.3,0,11-5.9,11-14.1c0-6.1-3.1-13.9-10.9-13.9
		S1248.8,279.6,1248.8,286.5z"/>
	<path fill="#010101" d="M1315.8,268.3v36.3h-6.6v-31h-16.9v31h-6.5v-36.3H1315.8z"/>
	<path fill="#010101" d="M1359.4,286.1c0,13.4-9.3,19.3-18.1,19.3c-9.8,0-17.4-7.2-17.4-18.7c0-12.1,8-19.3,18-19.3
		C1352.3,267.4,1359.4,275,1359.4,286.1z M1330.6,286.5c0,7.9,4.6,13.9,11,13.9c6.3,0,11-5.9,11-14.1c0-6.1-3.1-13.9-10.9-13.9
		S1330.6,279.6,1330.6,286.5z"/>
	<path fill="#010101" d="M1395.2,268.3v36.3h-6.5v-31.1h-12.4v9.4c0,10.2-1,17-5.7,20.1c-1.8,1.4-3.8,2.2-7.2,2.2l-0.7-5.2
		c1.3-0.2,2.7-0.8,3.6-1.5c3.4-2.5,3.8-7.6,3.8-15.7v-14.6H1395.2z"/>
	<path fill="#010101" d="M1412.1,268.3v15.3c0,5.8-0.1,9.4-0.4,14.5l0.2,0.1c2.2-4.4,3.5-7,5.8-11.2l11.3-18.7h7.7v36.3h-6.3v-15.4
		c0-5.9,0.1-9,0.5-14.8h-0.2c-2.3,4.6-3.9,7.6-6,11.2c-3.4,5.6-7.4,12.6-11.3,19h-7.6v-36.3H1412.1z"/>
	<path fill="#010101" d="M1471.9,268.3v5.2h-11.3v31h-6.5v-31h-11.3v-5.2H1471.9z"/>
	<path fill="#010101" d="M1480.3,287.6c0.2,8.9,5.8,12.6,12.5,12.6c4.7,0,7.6-0.8,10-1.9l1.1,4.7c-2.3,1-6.3,2.2-12.1,2.2
		c-11.2,0-17.8-7.3-17.8-18.3s6.5-19.6,17-19.6c11.8,0,15,10.4,15,17.1c0,1.4-0.2,2.4-0.2,3.1H1480.3z M1499.7,282.9
		c0.1-4.2-1.7-10.7-9.1-10.7c-6.7,0-9.6,6.1-10.1,10.7H1499.7z"/>
	<path fill="#010101" d="M1520.6,268.3v14.6h17.2v-14.6h6.5v36.3h-6.5v-16.4h-17.2v16.4h-6.5v-36.3H1520.6z"/>
	<path fill="#010101" d="M1575.3,304.6l-0.5-4.6h-0.2c-2,2.8-5.9,5.4-11.1,5.4c-7.3,0-11.1-5.2-11.1-10.4c0-8.8,7.8-13.6,21.8-13.5
		v-0.8c0-3-0.8-8.4-8.2-8.4c-3.4,0-6.9,1-9.4,2.7l-1.5-4.3c3-2,7.3-3.2,11.9-3.2c11.1,0,13.8,7.6,13.8,14.8v13.6
		c0,3.1,0.2,6.2,0.6,8.7H1575.3z M1574.3,286c-7.2-0.1-15.4,1.1-15.4,8.2c0,4.3,2.8,6.3,6.2,6.3c4.7,0,7.7-3,8.8-6.1
		c0.2-0.7,0.4-1.4,0.4-2.1V286z"/>
</g>
<line fill="none" stroke="#EE2F29" stroke-width="22.7508" stroke-miterlimit="10" x1="1182.9" y1="900" x2="817.1" y2="900"/>
<circle class="area" id="0" fill="#FFFFFF" stroke="#EE2F29" stroke-width="16" stroke-miterlimit="10" cx="1000" cy="900" r="22.5"/>
<g>
</g>
<g>
</g>
<g>
</g>
<g>
</g>
<g>
</g>
<g>
</g>
</svg>
