<?xml version="1.0" encoding="utf-8"?>
<!-- Generator: Adobe Illustrator 17.1.0, SVG Export Plug-In . SVG Version: 6.00 Build 0)  -->
<!DOCTYPE svg PUBLIC "-//W3C//DTD SVG 1.1//EN" "http://www.w3.org/Graphics/SVG/1.1/DTD/svg11.dtd" [
	<!ENTITY ns_extend "http://ns.adobe.com/Extensibility/1.0/">
	<!ENTITY ns_ai "http://ns.adobe.com/AdobeIllustrator/10.0/">
	<!ENTITY ns_graphs "http://ns.adobe.com/Graphs/1.0/">
	<!ENTITY ns_vars "http://ns.adobe.com/Variables/1.0/">
	<!ENTITY ns_imrep "http://ns.adobe.com/ImageReplacement/1.0/">
	<!ENTITY ns_sfw "http://ns.adobe.com/SaveForWeb/1.0/">
	<!ENTITY ns_custom "http://ns.adobe.com/GenericCustomNamespace/1.0/">
	<!ENTITY ns_adobe_xpath "http://ns.adobe.com/XPath/1.0/">
]>
<svg version="1.1" xmlns:x="&ns_extend;" xmlns:i="&ns_ai;" xmlns:graph="&ns_graphs;"
	 xmlns="http://www.w3.org/2000/svg" xmlns:xlink="http://www.w3.org/1999/xlink" x="0px" y="0px" viewBox="0 0 760 820"
	 enable-background="new 0 0 760 820" xml:space="preserve">
<metadata>
	<sfw  xmlns="&ns_sfw;">
		<slices></slices>
		<sliceSourceBounds  height="16493.3" width="16400.6" y="-7661.3" x="-7794.6" bottomLeftOrigin="true"></sliceSourceBounds>
	</sfw>
</metadata>
<g id="Слой_2">
	<circle fill="#0168D3" cx="380.1" cy="359" r="345"/>
	<circle fill="#0168D3" stroke="#FFFFFF" stroke-width="12" stroke-miterlimit="10" cx="380.8" cy="361.2" r="329.2"/>
</g>
<g id="Слой_3">
	<polygon fill="#0168D3" points="14.3,781.2 111.3,561 119.3,575.7 129,555.7 117,548.1 228.7,292.7 380.1,479.2 526.7,292.7 
		643.8,548.8 629.7,552.5 640,575.8 649.6,561.4 749.5,779.8 487.3,779.7 453.8,715.5 380.1,812.4 310.9,715 286.3,781.2 	"/>
	<polygon fill="#FC020D" stroke="#FFFFFF" stroke-width="10" stroke-miterlimit="10" points="40.7,763.3 233.3,326.7 380.1,513.9 
		524.7,326.7 720.7,762.7 501.3,762.7 457.2,677.7 380.1,781.2 306.5,677.3 273.3,763.3 	"/>
	<g id="layer1" transform="translate(0,-452.36218)">
		<g id="g6827">
			<g id="g5847" transform="matrix(2.7198446,0,0,2.7198446,-196.12927,225.64235)">
				<path id="path4660" fill="#FFFFFF" d="M214.7,135.5c-6-1.1-5.9-7-4.6-11.8c0.6-2.2,2.8-6.7,7.8-8.6c-5.7-0.4-6.7,4.5-7.7,4.1
					c-0.6-0.3,0.2-4.7,0.9-6.6c-3.1,2.1-2.3,8.2-2.5,10.2c-0.5,4.8-1.3,5.4-4,1.7c-0.9-1.3-1.1-2.4-1.5-5.4c-1.6,6.5,3.8,9.6,5,12
					c0.5,1.1-0.5,1.8-2.2,0.9c-1-0.5-1.2-0.7-2.1-2.3c1,6,4.4,2.2,6.8,6.6c0.9-0.2,1.8-0.2,2.6,0.1L214.7,135.5L214.7,135.5z"/>
				<path id="path4662" fill="#FFFFFF" stroke="#FFFFFF" stroke-width="0.9838" stroke-linecap="round" stroke-linejoin="round" d="
					M238.4,165.8l0.9,1.3c0.5-0.2,1.3-0.6,1.3-1.8C240.6,163.3,240.3,165.7,238.4,165.8c-2.8-2.6-3.8-4.3-8.6-4.3
					c-4.1,0.1-3.8,1.6-7,1.7c-2.1,0.1-2.3-1.1-5.3-1.3c-2-0.1-3.9,1.6-4.9,0.6c-1.1-1.1-1.1-4.1-0.2-5.2c4.8-6.1,4.7-13.6,3.9-17.3
					c-0.2,0-0.5-0.1-0.7-0.2c1.8,0.4,3.1,0.6,3.9-1.7c0.4-1.3-0.1-1.1-0.5-0.6c-0.8,1-2.3,1.2-3.2,0.9c-0.9-1.3-2.3-2.1-3.8-2.2
					c-2.9-0.1-2.4,1.5-6,2.1l0.1,0.5l-0.1-0.5c-0.7,0.1-1.6,0.2-2.8,0.2l-0.6,2.4c3.6,0.1,4.8,1.5,1.2,1.4c-0.5,0-1.8-0.2-1.4,0.6
					c0.3,0.7,0.6,0.3,1.3,0.3c0.6,0,1.4,0.1,2.3,0.2c0.9,0.1,1.1,1.5,2.6,1.8c1.8,0.3,3.3-1,4.9-3.3c-1.6,2.3-3.1,3.6-4.9,3.3
					c0,2.2-0.5,4.7-3.1,5.3c-1.1,0.2-9.6,1.9-9.7,10.8c0,3.6-0.1,3.5,0.1,5.5c0.1,2.1,0.7,3.5,1.1,5c-3.3,0.8-3.6,1.4-5.3,1.9
					c-2.8,0.8-5.6,1.1-8.7,0.9l-0.6,0.4c-1.4,3.8-5.6,6.6-9,9.8l-0.1,0.3c0.3,1.5,0,3.2-0.2,4.6l1.6-0.6c-0.1-1.3,0.1-2.4,0.6-3.4
					l0.9-0.4c2.7-3.3,5.3-5.5,8.3-8c2.3-0.9,5.3-0.8,7.1-0.5c2.4,0.4,4.4,2.3,7.5,3.1c-0.3-1.3-0.3-2.7-0.2-3.8
					c-0.1,1,0,2.5,0.2,3.8c0.3,1.4,0.6,2.8,1,3.7c1.4,2.9,1.7,5,1.4,8.8l0.2,0.5c2,3.1,3.7,6.4,4.6,11.2l0,0.2
					c-0.1,1.3-1.2,3.5-2.8,5.5l1.7,0.5c0.8-1.7,2.2-3.4,3.7-4.8l0-0.7c-1.9-4.1-3.3-8.7-4.1-13.4l-0.1-0.4c-1.2-2.6-1.2-8.1,0.8-9.9
					c0.7-0.6,0.1-5.5,0.1-8.2c0,2.7,0.5,7.6-0.1,8.2c3.8,3.8,9.7,0.4,16.8-1.6c1.8-0.5,3.2-1.1,4.3-1.8c-1.1,0.7-2.6,1.3-4.3,1.8
					c-1.6,1.5-1.4,6.6,0.9,15.8c0,2.1-2.7,6.7-5.1,9.1c-0.7,2.3-1.5,3.7-3,5.3l1.7,0.5c0.8-1.8,1.9-3,2.8-3.5l0.7-0.6
					c0.5-3,3.8-7.4,6-10.3v-1.1c-1.8-2.5-1.9-3.7-1.9-4.6c0-3.1,4.6-3.1,6.3-7.5c-1.9-1.2-4-4.2-5.4-8.3c1.4,4.2,3.5,7.1,5.4,8.3
					c7.7,5,10.3,6.4,13.7,11.8c1.6,2.6,2.8,6.5,4.1,10.8c-0.8,1.9-1.7,3.3-2.8,4.6l1.7,0.5c0.7-1.2,1.9-3.3,3.2-3.4l-0.3-1.6
					c-1.8-3.8-2.5-7.7-2.9-12.2l-0.6-1.2c-4.9-3.3-8.5-8.7-7.8-13.6c0.5-3.3,3.6-5,0.2-11.2L238.4,165.8L238.4,165.8z"/>
				<ellipse id="ellipse4664" fill="#FFFFFF" cx="210.1" cy="139.2" rx="0.8" ry="0.6"/>
				<path id="path4670" fill="#FFFFFF" stroke="#FFFFFF" stroke-width="0.9838" stroke-linecap="round" stroke-linejoin="round" d="
					M203.2,138.6l-0.6,2.4c-0.6,0-0.8-0.9-0.8-1.7C201.8,138.6,202.3,138.5,203.2,138.6L203.2,138.6z"/>
				<path id="path4672" fill="#FFFFFF" stroke="#FFFFFF" stroke-width="0.9838" stroke-linecap="round" stroke-linejoin="round" d="
					M216.9,212l0-1.8l-1.7-0.5c-1,0.5-1.6,1.3-2.2,2.3H216.9L216.9,212z"/>
				<path id="path4674" fill="#FFFFFF" stroke="#FFFFFF" stroke-width="0.9838" stroke-linecap="round" stroke-linejoin="round" d="
					M205.3,212l0-1.8l-1.7-0.5c-1,0.5-1.6,1.3-2.2,2.3H205.3L205.3,212z"/>
				<path id="path4676" fill="#FFFFFF" stroke="#FFFFFF" stroke-width="0.9838" stroke-linecap="round" stroke-linejoin="round" d="
					M247.4,212l0-1.8l-1.7-0.5c-1,0.5-1.6,1.3-2.2,2.3H247.4L247.4,212z"/>
				<path id="path4678" fill="#FFFFFF" stroke="#FFFFFF" stroke-width="0.9838" stroke-linecap="round" stroke-linejoin="round" d="
					M175.8,190.5l-0.9-1.5l-1.6,0.6c-0.5,1.1-0.6,2.1-0.6,3.3L175.8,190.5z"/>
				<path id="path4680" fill="#FFFFFF" d="M213.1,136.5c0.8,0.3,1.6,0.8,2.4,1.7c3.9-3.7,9-4.5,11.3-9.6c1.5-3.4,1.9-11.9-0.6-16.7
					c1.5,12.1-0.5,15.7-3,4.2c-1.1,6.6,4.1,10.9,0.6,14.4c-1.8,1.8-3.1-0.4-4.4-5.9c-1.7,5,1.7,6.7,0,8.6c-1.9,2.2-4.3,2-4.7-3.1
					c-1.2,1.8-0.6,3.9,0,5.5l-1.3-0.2l-2.1,0L213.1,136.5L213.1,136.5z"/>
			</g>
		</g>
	</g>
</g>
</svg>
