<?xml version="1.0" encoding="utf-8"?>
<!-- Generator: Adobe Illustrator 18.0.0, SVG Export Plug-In . SVG Version: 6.00 Build 0)  -->
<!DOCTYPE svg PUBLIC "-//W3C//DTD SVG 1.1//EN" "http://www.w3.org/Graphics/SVG/1.1/DTD/svg11.dtd">
<svg version="1.1" xmlns="http://www.w3.org/2000/svg" xmlns:xlink="http://www.w3.org/1999/xlink" x="0px" y="0px"
	 viewBox="35.6 56.1 964.4 937.9" enable-background="new 35.6 56.1 964.4 937.9" xml:space="preserve">
<g id="Layer_1">
	<g id="Layer_3">
		<path fill="none" stroke="#E9FCFF" stroke-width="60" stroke-miterlimit="10" d="M553,994V184.8c0-54.7,44.5-99.2,99.2-99.2h383.4
			"/>
		<line fill="none" stroke="#E9FCFF" stroke-width="60" stroke-miterlimit="10" x1="35.6" y1="85.6" x2="652.2" y2="85.6"/>
	</g>
	<g id="Layer_2">
		<path fill="none" stroke="#F31E28" stroke-width="12" d="M462.8,952.1V279.9c0-25.4,20.8-46.1,46.1-46.1h129.6
			c18.5,0,36-7.4,48.9-20.3l36-36c12.9-12.9,30.7-20.3,48.9-20.3h122.3"/>
		<path fill="none" stroke="#1C7BAF" stroke-width="12" stroke-miterlimit="10" d="M89.8,290.2h334.3c25.4,0,46.1-20.8,46.1-46.1
			v-39.9c0-25.4-20.8-46.1-46.1-46.1H304.6"/>
	</g>
</g>
<g id="Layer_2_1_">
	<circle id="e0" fill="#FFFFFF" stroke="#F02331" stroke-width="6" stroke-miterlimit="10" cx="894.6" cy="157.2" r="9"/>
	<circle id="e1" fill="#FFFFFF" stroke="#F02331" stroke-width="6" stroke-miterlimit="10" cx="778.9" cy="157.2" r="9"/>
	<circle id="e2" fill="#FFFFFF" stroke="#F02331" stroke-width="6" stroke-miterlimit="10" cx="629.7" cy="233.1" r="9"/>
	<circle id="e3" fill="#FFFFFF" stroke="#F02331" stroke-width="6" stroke-miterlimit="10" cx="471.7" cy="249.8" r="9"/>
	<circle id="e4" fill="#FFFFFF" stroke="#F02331" stroke-width="6" stroke-miterlimit="10" cx="462.8" cy="338.3" r="9"/>
	<circle id="e5" fill="#FFFFFF" stroke="#F02331" stroke-width="6" stroke-miterlimit="10" cx="462.8" cy="415.2" r="9"/>
	<circle id="e6" fill="#FFFFFF" stroke="#F02331" stroke-width="6" stroke-miterlimit="10" cx="462.8" cy="491.7" r="9"/>
	<circle id="e7" fill="#FFFFFF" stroke="#F02331" stroke-width="6" stroke-miterlimit="10" cx="462.8" cy="568.6" r="9"/>
	<circle id="e8" fill="#FFFFFF" stroke="#F02331" stroke-width="6" stroke-miterlimit="10" cx="462.8" cy="645.1" r="9"/>
	<circle id="e9" fill="#FFFFFF" stroke="#F02331" stroke-width="6" stroke-miterlimit="10" cx="462.8" cy="722" r="9"/>
	<circle id="e10" fill="#FFFFFF" stroke="#F02331" stroke-width="6" stroke-miterlimit="10" cx="462.7" cy="798.8" r="9"/>
	<circle id="e11" fill="#FFFFFF" stroke="#F02331" stroke-width="6" stroke-miterlimit="10" cx="462.7" cy="875.4" r="9"/>
	<circle id="e12" fill="#FFFFFF" stroke="#F02331" stroke-width="6" stroke-miterlimit="10" cx="462.8" cy="952.2" r="9"/>
	<circle id="e13" fill="#FFFFFF" stroke="#237CAD" stroke-width="6" stroke-miterlimit="10" cx="304.7" cy="158.2" r="9"/>
	<circle id="e14" fill="#FFFFFF" stroke="#237CAD" stroke-width="6" stroke-miterlimit="10" cx="402.2" cy="158.1" r="9"/>
	<circle id="e15" fill="#FFFFFF" stroke="#237CAD" stroke-width="6" stroke-miterlimit="10" cx="402.2" cy="290.2" r="9"/>
	<circle id="e16" fill="#FFFFFF" stroke="#237CAD" stroke-width="6" stroke-miterlimit="10" cx="246.1" cy="290.1" r="9"/>
	<circle id="e17" fill="#FFFFFF" stroke="#237CAD" stroke-width="6" stroke-miterlimit="10" cx="89.8" cy="290.1" r="9"/>
</g>
</svg>
