<?xml version="1.0" encoding="UTF-8"?>
<!DOCTYPE svg PUBLIC "-//W3C//DTD SVG 1.1//EN" "http://www.w3.org/Graphics/SVG/1.1/DTD/svg11.dtd">
<!-- Creator: CorelDRAW X6 -->
<svg xmlns="http://www.w3.org/2000/svg" xml:space="preserve" width="200px" height="164px" version="1.1" style="shape-rendering:geometricPrecision; text-rendering:geometricPrecision; image-rendering:optimizeQuality; fill-rule:evenodd; clip-rule:evenodd"
viewBox="0 0 20000000 16431925"
 xmlns:xlink="http://www.w3.org/1999/xlink"
 xmlns:dc="http://purl.org/dc/elements/1.1/"
 xmlns:cc="http://creativecommons.org/ns#"
 xmlns:rdf="http://www.w3.org/1999/02/22-rdf-syntax-ns#"
 xmlns:svg="http://www.w3.org/2000/svg"
 xmlns:sodipodi="http://sodipodi.sourceforge.net/DTD/sodipodi-0.dtd"
 xmlns:inkscape="http://www.inkscape.org/namespaces/inkscape"
 inkscape:version="0.48.4 r9939"
 sodipodi:docname="Spb_metro_logo.svg">
 <defs>
  <style type="text/css">
   <![CDATA[
    .fil0 {fill:#2250A3}
   ]]>
  </style>
 </defs>
 <g id="Слой_x0020_1">
  <metadata id="CorelCorpID_0Corel-Layer"/>
  <sodipodi:namedview pagecolor="#ffffff" bordercolor="#666666" borderopacity="1" objecttolerance="10" gridtolerance="10" guidetolerance="10" inkscape:pageopacity="0" inkscape:pageshadow="2" inkscape:window-width="1440" inkscape:window-height="837" id="namedview8" showgrid="false" inkscape:zoom="1.8153846" inkscape:cx="77.5" inkscape:cy="65" inkscape:window-x="-8" inkscape:window-y="-8" inkscape:window-maximized="1" inkscape:current-layer="svg2"/>
  <path id="path4" class="fil0" d="M16587653 2210131c-1700019,-1532864 -3316460,-2006601 -3316460,-2006601l-3260695 11105962 -27915 0 -3288554 -11105962c0,0 -1616441,459831 -3316469,2006601 -1811521,1644244 -3372188,4166451 -3107437,8165690 209033,3163155 2550066,5852573 2550066,5852573l4528798 -13953c0,0 -3887793,-2062319 -4821418,-5309108 -1114789,-3832028 627052,-6493587 1964789,-7761634 543465,-473793 1337728,-585286 1630338,431972 1003305,3246789 3873840,12541230 3873840,12541230l13962 47c0,0 2856629,-9294441 3873831,-12541230 306573,-1017258 1100845,-905756 1630347,-431972 1337737,1268056 3079577,3929559 1964779,7761634 -933615,3246789 -4821408,5309108 -4821408,5309108l4528798 13962c0,0 2354986,-2703324 2550066,-5852582 236892,-3999286 -1323831,-6521493 -3149258,-8165737z"/>
 </g>
</svg>
