<?xml version="1.0" encoding="utf-8"?>
<!-- Generator: Adobe Illustrator 18.0.0, SVG Export Plug-In . SVG Version: 6.00 Build 0)  -->
<!DOCTYPE svg PUBLIC "-//W3C//DTD SVG 1.1//EN" "http://www.w3.org/Graphics/SVG/1.1/DTD/svg11.dtd">
<svg version="1.1" xmlns="http://www.w3.org/2000/svg" xmlns:xlink="http://www.w3.org/1999/xlink" x="0px" y="0px"
	 viewBox="0 0 1000 811.5" enable-background="new 0 0 1000 811.5" xml:space="preserve">
<g id="Layer_2">
	<g id="Layer_4">
		<path fill="none" stroke="#EAF7FB" stroke-width="12" stroke-miterlimit="10" d="M703.8,820.1V345.1c0-22.1-17.9-40-40-40H493.7
			c-6.8,0-13.5-1.7-19.5-5.1l-52.1-29c-6-3.3-12.7-5.1-19.5-5.1h-81.4c-6.1,0-12.1-1.4-17.6-4.1l-41.5-20.3
			c-5.5-2.7-11.5-4.1-16.9-2.5H-13"/>
		<path fill="none" stroke="#EAF7FB" stroke-width="13" stroke-miterlimit="10" d="M483.3,305.1l-13.6,13.6
			c-7.5,7.5-17.7,11.7-28.3,11.7H171.9c-5.7,0-11.4-1.2-16.6-3.6l-92.6-42.4c-3.4-1.6-7-2.6-11.1-5.2c-6.2-3.9-13.5-5.9-20.9-5.9
			H-9.2"/>
		<line fill="none" stroke="#EAF7FB" stroke-width="12" stroke-miterlimit="10" x1="321.3" y1="266" x2="-7.5" y2="266"/>
		<path fill="none" stroke="#EAF7FB" stroke-width="9" stroke-miterlimit="10" d="M163.2,330.5"/>
		<path fill="none" stroke="#EAF7FB" stroke-width="12" stroke-miterlimit="10" d="M138.8,319.3v140.8c0,10.6-4.2,20.8-11.7,28.3
			L-4.1,619.7"/>
	</g>
	<path fill="none" stroke="#47B75E" stroke-width="7" stroke-miterlimit="10" d="M30.1,378.7h592.4c22.1,0,40,17.9,40,40v245.8"/>
	<path fill="none" stroke="#712A85" stroke-width="7" stroke-miterlimit="10" d="M186.4,191.4v186.8c0,22.1,17.9,40,40,40h62.3
		c10.6,0,20.8,4.2,28.3,11.7l174.4,174.4c7.5,7.5,11.7,17.7,11.7,28.3l0,31.8"/>
	<line fill="none" stroke="#2177BD" stroke-width="7" stroke-miterlimit="10" x1="346.4" y1="98.1" x2="346.4" y2="761"/>
	<path fill="none" stroke="#D61E3D" stroke-width="7" stroke-miterlimit="10" d="M503.1,65.7v393.6L464.8,491
		c-7.2,5.9-16.2,9.1-25.4,9.1h-76.4c-10.6,0-20.8,4.2-28.3,11.7L148,698.5"/>
	<path fill="none" stroke="#F58231" stroke-width="7" stroke-miterlimit="10" d="M346.4,459.4h435.4c22.1,0,40,17.9,40,40v104"/>
</g>
<g id="Layer_5">
</g>
<g id="Layer_3" display="none">
	<path id="st0" display="inline" fill="#FFFFFF" stroke="#702F84" stroke-width="4" stroke-miterlimit="10" d="M192.8,190
		c1.1,4.7-3.1,8.9-7.8,7.8c-2.4-0.5-4.3-2.5-4.8-4.8c-1.1-4.7,3.1-8.9,7.8-7.8C190.3,185.6,192.2,187.6,192.8,190z"/>
	<path id="st12" display="inline" fill="#FFFFFF" stroke="#2079BA" stroke-width="4" stroke-miterlimit="10" d="M352.7,96.7
		c1.1,4.7-3.1,8.9-7.8,7.8c-2.4-0.5-4.3-2.5-4.8-4.8c-1.1-4.7,3.1-8.9,7.8-7.8C350.2,92.3,352.2,94.3,352.7,96.7z"/>
	<path id="st29" display="inline" fill="#FFFFFF" stroke="#D52342" stroke-width="4" stroke-miterlimit="10" d="M509.5,64.3
		c1.1,4.7-3.1,8.9-7.8,7.8c-2.4-0.5-4.3-2.5-4.8-4.8c-1.1-4.7,3.1-8.9,7.8-7.8C507,59.9,509,61.9,509.5,64.3z"/>
	<path id="st30" display="inline" fill="#FFFFFF" stroke="#D52342" stroke-width="4" stroke-miterlimit="10" d="M509.5,96.7
		c1.1,4.7-3.1,8.9-7.8,7.8c-2.4-0.5-4.3-2.5-4.8-4.8c-1.1-4.7,3.1-8.9,7.8-7.8C507,92.3,509,94.3,509.5,96.7z"/>
	<path id="st31" display="inline" fill="#FFFFFF" stroke="#D52342" stroke-width="4" stroke-miterlimit="10" d="M509.5,128.2
		c1.1,4.7-3.1,8.9-7.8,7.8c-2.4-0.5-4.3-2.5-4.8-4.8c-1.1-4.7,3.1-8.9,7.8-7.8C507,123.9,509,125.8,509.5,128.2z"/>
	<path id="st32" display="inline" fill="#FFFFFF" stroke="#D52342" stroke-width="4" stroke-miterlimit="10" d="M509.5,159.7
		c1.1,4.7-3.1,8.9-7.8,7.8c-2.4-0.5-4.3-2.5-4.8-4.8c-1.1-4.7,3.1-8.9,7.8-7.8C507,155.4,509,157.3,509.5,159.7z"/>
	<path id="st33" display="inline" fill="#FFFFFF" stroke="#D52342" stroke-width="4" stroke-miterlimit="10" d="M509.5,190
		c1.1,4.7-3.1,8.9-7.8,7.8c-2.4-0.5-4.3-2.5-4.8-4.8c-1.1-4.7,3.1-8.9,7.8-7.8C507,185.6,509,187.6,509.5,190z"/>
	<path id="st34" display="inline" fill="#FFFFFF" stroke="#D52342" stroke-width="4" stroke-miterlimit="10" d="M509.5,221.9
		c1.1,4.7-3.1,8.9-7.8,7.8c-2.4-0.5-4.3-2.5-4.8-4.8c-1.1-4.7,3.1-8.9,7.8-7.8C507,217.6,509,219.5,509.5,221.9z"/>
	<path id="st35" display="inline" fill="#FFFFFF" stroke="#D52342" stroke-width="4" stroke-miterlimit="10" d="M509.5,253.9
		c1.1,4.7-3.1,8.9-7.8,7.8c-2.4-0.5-4.3-2.5-4.8-4.8c-1.1-4.7,3.1-8.9,7.8-7.8C507,249.6,509,251.5,509.5,253.9z"/>
	<path id="st36" display="inline" fill="#FFFFFF" stroke="#D52342" stroke-width="4" stroke-miterlimit="10" d="M509.5,285.9
		c1.1,4.7-3.1,8.9-7.8,7.8c-2.4-0.5-4.3-2.5-4.8-4.8c-1.1-4.7,3.1-8.9,7.8-7.8C507,281.6,509,283.5,509.5,285.9z"/>
	<path id="st37" display="inline" fill="#FFFFFF" stroke="#D52342" stroke-width="4" stroke-miterlimit="10" d="M509.5,317.9
		c1.1,4.7-3.1,8.9-7.8,7.8c-2.4-0.5-4.3-2.5-4.8-4.8c-1.1-4.7,3.1-8.9,7.8-7.8C507,313.5,509,315.5,509.5,317.9z"/>
	<path id="st38" display="inline" fill="#FFFFFF" stroke="#D52342" stroke-width="4" stroke-miterlimit="10" d="M509.5,357.8
		c1.1,4.7-3.1,8.9-7.8,7.8c-2.4-0.5-4.3-2.5-4.8-4.8c-1.1-4.7,3.1-8.9,7.8-7.8C507,353.5,509,355.4,509.5,357.8z"/>
	<path id="st13" display="inline" fill="#FFFFFF" stroke="#2079BA" stroke-width="4" stroke-miterlimit="10" d="M352.7,128.2
		c1.1,4.7-3.1,8.9-7.8,7.8c-2.4-0.5-4.3-2.5-4.8-4.8c-1.1-4.7,3.1-8.9,7.8-7.8C350.2,123.9,352.2,125.8,352.7,128.2z"/>
	<path id="st14" display="inline" fill="#FFFFFF" stroke="#2079BA" stroke-width="4" stroke-miterlimit="10" d="M352.7,159.7
		c1.1,4.7-3.1,8.9-7.8,7.8c-2.4-0.5-4.3-2.5-4.8-4.8c-1.1-4.7,3.1-8.9,7.8-7.8C350.2,155.4,352.2,157.3,352.7,159.7z"/>
	<path id="st15" display="inline" fill="#FFFFFF" stroke="#2079BA" stroke-width="4" stroke-miterlimit="10" d="M352.7,190
		c1.1,4.7-3.1,8.9-7.8,7.8c-2.4-0.5-4.3-2.5-4.8-4.8c-1.1-4.7,3.1-8.9,7.8-7.8C350.2,185.6,352.2,187.6,352.7,190z"/>
	<path id="st16" display="inline" fill="#FFFFFF" stroke="#2079BA" stroke-width="4" stroke-miterlimit="10" d="M352.7,221.9
		c1.1,4.7-3.1,8.9-7.8,7.8c-2.4-0.5-4.3-2.5-4.8-4.8c-1.1-4.7,3.1-8.9,7.8-7.8C350.2,217.6,352.2,219.5,352.7,221.9z"/>
	<path id="st17" display="inline" fill="#FFFFFF" stroke="#2079BA" stroke-width="4" stroke-miterlimit="10" d="M352.7,253.9
		c1.1,4.7-3.1,8.9-7.8,7.8c-2.4-0.5-4.3-2.5-4.8-4.8c-1.1-4.7,3.1-8.9,7.8-7.8C350.2,249.6,352.2,251.5,352.7,253.9z"/>
	<path id="st18" display="inline" fill="#FFFFFF" stroke="#2079BA" stroke-width="4" stroke-miterlimit="10" d="M352.7,285.9
		c1.1,4.7-3.1,8.9-7.8,7.8c-2.4-0.5-4.3-2.5-4.8-4.8c-1.1-4.7,3.1-8.9,7.8-7.8C350.2,281.6,352.2,283.5,352.7,285.9z"/>
	<path id="st19" display="inline" fill="#FFFFFF" stroke="#2079BA" stroke-width="4" stroke-miterlimit="10" d="M352.7,317.9
		c1.1,4.7-3.1,8.9-7.8,7.8c-2.4-0.5-4.3-2.5-4.8-4.8c-1.1-4.7,3.1-8.9,7.8-7.8C350.2,313.5,352.2,315.5,352.7,317.9z"/>
	<path id="st20" display="inline" fill="#FFFFFF" stroke="#2079BA" stroke-width="4" stroke-miterlimit="10" d="M352.7,357.8
		c1.1,4.7-3.1,8.9-7.8,7.8c-2.4-0.5-4.3-2.5-4.8-4.8c-1.1-4.7,3.1-8.9,7.8-7.8C350.2,353.5,352.2,355.4,352.7,357.8z"/>
	<path id="st21" display="inline" fill="#FFFFFF" stroke="#2079BA" stroke-width="4" stroke-miterlimit="10" d="M352.7,426.6
		c1.1,4.7-3.1,8.9-7.8,7.8c-2.4-0.5-4.3-2.5-4.8-4.8c-1.1-4.7,3.1-8.9,7.8-7.8C350.2,422.3,352.2,424.2,352.7,426.6z"/>
	<path id="st41" display="inline" fill="#FFFFFF" stroke="#D52342" stroke-width="4" stroke-miterlimit="10" d="M352.7,503.6
		c1.1,4.7-3.1,8.9-7.8,7.8c-2.4-0.5-4.3-2.5-4.8-4.8c-1.1-4.7,3.1-8.9,7.8-7.8C350.2,499.3,352.2,501.2,352.7,503.6z"/>
	<path id="st40" display="inline" fill="#FFFFFF" stroke="#D52342" stroke-width="4" stroke-miterlimit="10" d="M392.6,498.5
		c1.1,4.7-3.1,8.9-7.8,7.8c-2.4-0.5-4.3-2.5-4.8-4.8c-1.1-4.7,3.1-8.9,7.8-7.8C390.2,494.2,392.1,496.1,392.6,498.5z"/>
	<path id="st39" display="inline" fill="#FFFFFF" stroke="#D52342" stroke-width="4" stroke-miterlimit="10" d="M509.5,439
		c1.1,4.7-3.1,8.9-7.8,7.8c-2.4-0.5-4.3-2.5-4.8-4.8c-1.1-4.7,3.1-8.9,7.8-7.8C507,434.7,509,436.6,509.5,439z"/>
	<path id="st42" display="inline" fill="#FFFFFF" stroke="#D52342" stroke-width="4" stroke-miterlimit="10" d="M311.9,539.4
		c1.1,4.7-3.1,8.9-7.8,7.8c-2.4-0.5-4.3-2.5-4.8-4.8c-1.1-4.7,3.1-8.9,7.8-7.8C309.4,535,311.3,537,311.9,539.4z"/>
	<path id="st43" display="inline" fill="#FFFFFF" stroke="#D52342" stroke-width="4" stroke-miterlimit="10" d="M280.4,570.9
		c1.1,4.7-3.1,8.9-7.8,7.8c-2.4-0.5-4.3-2.5-4.8-4.8c-1.1-4.7,3.1-8.9,7.8-7.8C277.9,566.6,279.8,568.5,280.4,570.9z"/>
	<path id="st44" display="inline" fill="#FFFFFF" stroke="#D52342" stroke-width="4" stroke-miterlimit="10" d="M248.9,602.4
		c1.1,4.7-3.1,8.9-7.8,7.8c-2.4-0.5-4.3-2.5-4.8-4.8c-1.1-4.7,3.1-8.9,7.8-7.8C246.4,598.1,248.3,600,248.9,602.4z"/>
	<path id="st45" display="inline" fill="#FFFFFF" stroke="#D52342" stroke-width="4" stroke-miterlimit="10" d="M217.4,634
		c1.1,4.7-3.1,8.9-7.8,7.8c-2.4-0.5-4.3-2.5-4.8-4.8c-1.1-4.7,3.1-8.9,7.8-7.8C214.9,629.6,216.8,631.6,217.4,634z"/>
	<path id="st46" display="inline" fill="#FFFFFF" stroke="#D52342" stroke-width="4" stroke-miterlimit="10" d="M185.8,665.5
		c1.1,4.7-3.1,8.9-7.8,7.8c-2.4-0.5-4.3-2.5-4.8-4.8c-1.1-4.7,3.1-8.9,7.8-7.8C183.4,661.2,185.3,663.1,185.8,665.5z"/>
	<path id="st47" display="inline" fill="#FFFFFF" stroke="#D52342" stroke-width="4" stroke-miterlimit="10" d="M154.3,697
		c1.1,4.7-3.1,8.9-7.8,7.8c-2.4-0.5-4.3-2.5-4.8-4.8c-1.1-4.7,3.1-8.9,7.8-7.8C151.9,692.7,153.8,694.6,154.3,697z"/>
	<path id="st22" display="inline" fill="#FFFFFF" stroke="#2079BA" stroke-width="4" stroke-miterlimit="10" d="M352.7,572
		c1.1,4.7-3.1,8.9-7.8,7.8c-2.4-0.5-4.3-2.5-4.8-4.8c-1.1-4.7,3.1-8.9,7.8-7.8C350.2,567.7,352.2,569.6,352.7,572z"/>
	<path id="st23" display="inline" fill="#FFFFFF" stroke="#2079BA" stroke-width="4" stroke-miterlimit="10" d="M352.7,603.3
		c1.1,4.7-3.1,8.9-7.8,7.8c-2.4-0.5-4.3-2.5-4.8-4.8c-1.1-4.7,3.1-8.9,7.8-7.8C350.2,598.9,352.2,600.9,352.7,603.3z"/>
	<path id="st24" display="inline" fill="#FFFFFF" stroke="#2079BA" stroke-width="4" stroke-miterlimit="10" d="M352.7,634.1
		c1.1,4.7-3.1,8.9-7.8,7.8c-2.4-0.5-4.3-2.5-4.8-4.8c-1.1-4.7,3.1-8.9,7.8-7.8C350.2,629.8,352.2,631.7,352.7,634.1z"/>
	<path id="st25" display="inline" fill="#FFFFFF" stroke="#2079BA" stroke-width="4" stroke-miterlimit="10" d="M352.7,666.2
		c1.1,4.7-3.1,8.9-7.8,7.8c-2.4-0.5-4.3-2.5-4.8-4.8c-1.1-4.7,3.1-8.9,7.8-7.8C350.2,661.9,352.2,663.8,352.7,666.2z"/>
	<path id="st26" display="inline" fill="#FFFFFF" stroke="#2079BA" stroke-width="4" stroke-miterlimit="10" d="M352.7,697
		c1.1,4.7-3.1,8.9-7.8,7.8c-2.4-0.5-4.3-2.5-4.8-4.8c-1.1-4.7,3.1-8.9,7.8-7.8C350.2,692.7,352.2,694.6,352.7,697z"/>
	<path id="st27" display="inline" fill="#FFFFFF" stroke="#2079BA" stroke-width="4" stroke-miterlimit="10" d="M352.7,728.3
		c1.1,4.7-3.1,8.9-7.8,7.8c-2.4-0.5-4.3-2.5-4.8-4.8c-1.1-4.7,3.1-8.9,7.8-7.8C350.2,724,352.2,725.9,352.7,728.3z"/>
	<path id="st28" display="inline" fill="#FFFFFF" stroke="#2079BA" stroke-width="4" stroke-miterlimit="10" d="M352.7,759.5
		c1.1,4.7-3.1,8.9-7.8,7.8c-2.4-0.5-4.3-2.5-4.8-4.8c-1.1-4.7,3.1-8.9,7.8-7.8C350.2,755.2,352.2,757.1,352.7,759.5z"/>
	<path id="st1_1_" display="inline" fill="#FFFFFF" stroke="#702F84" stroke-width="4" stroke-miterlimit="10" d="M192.8,221.9
		c1.1,4.7-3.1,8.9-7.8,7.8c-2.4-0.5-4.3-2.5-4.8-4.8c-1.1-4.7,3.1-8.9,7.8-7.8C190.3,217.6,192.2,219.5,192.8,221.9z"/>
	<path id="st2" display="inline" fill="#FFFFFF" stroke="#702F84" stroke-width="4" stroke-miterlimit="10" d="M192.8,253.9
		c1.1,4.7-3.1,8.9-7.8,7.8c-2.4-0.5-4.3-2.5-4.8-4.8c-1.1-4.7,3.1-8.9,7.8-7.8C190.3,249.6,192.2,251.5,192.8,253.9z"/>
	<path id="st3" display="inline" fill="#FFFFFF" stroke="#702F84" stroke-width="4" stroke-miterlimit="10" d="M192.8,285.9
		c1.1,4.7-3.1,8.9-7.8,7.8c-2.4-0.5-4.3-2.5-4.8-4.8c-1.1-4.7,3.1-8.9,7.8-7.8C190.3,281.6,192.2,283.5,192.8,285.9z"/>
	<path id="st4" display="inline" fill="#FFFFFF" stroke="#702F84" stroke-width="4" stroke-miterlimit="10" d="M192.8,317.9
		c1.1,4.7-3.1,8.9-7.8,7.8c-2.4-0.5-4.3-2.5-4.8-4.8c-1.1-4.7,3.1-8.9,7.8-7.8C190.3,313.5,192.2,315.5,192.8,317.9z"/>
	<path id="st5" display="inline" fill="#FFFFFF" stroke="#702F84" stroke-width="4" stroke-miterlimit="10" d="M192.8,349.8
		c1.1,4.7-3.1,8.9-7.8,7.8c-2.4-0.5-4.3-2.5-4.8-4.8c-1.1-4.7,3.1-8.9,7.8-7.8C190.3,345.5,192.2,347.4,192.8,349.8z"/>
	<path id="st6" display="inline" fill="#FFFFFF" stroke="#702F84" stroke-width="4" stroke-miterlimit="10" d="M337.1,442.6
		c1.1,4.7-3.1,8.9-7.8,7.8c-2.4-0.5-4.3-2.5-4.8-4.8c-1.1-4.7,3.1-8.9,7.8-7.8C334.6,438.3,336.5,440.2,337.1,442.6z"/>
	<path id="st7" display="inline" fill="#FFFFFF" stroke="#702F84" stroke-width="4" stroke-miterlimit="10" d="M406.7,512.6
		c1.1,4.7-3.1,8.9-7.8,7.8c-2.4-0.5-4.3-2.5-4.8-4.8c-1.1-4.7,3.1-8.9,7.8-7.8C404.3,508.3,406.2,510.2,406.7,512.6z"/>
	<path id="st9_1_" display="inline" fill="#FFFFFF" stroke="#702F84" stroke-width="4" stroke-miterlimit="10" d="M472.1,578.5
		c1.1,4.7-3.1,8.9-7.8,7.8c-2.4-0.5-4.3-2.5-4.8-4.8c-1.1-4.7,3.1-8.9,7.8-7.8C469.7,574.2,471.6,576.1,472.1,578.5z"/>
	<path id="st8_1_" display="inline" fill="#FFFFFF" stroke="#702F84" stroke-width="4" stroke-miterlimit="10" d="M439.4,545.5
		c1.1,4.7-3.1,8.9-7.8,7.8c-2.4-0.5-4.3-2.5-4.8-4.8c-1.1-4.7,3.1-8.9,7.8-7.8C437,541.2,438.9,543.2,439.4,545.5z"/>
	<path id="st10_1_" display="inline" fill="#FFFFFF" stroke="#702F84" stroke-width="4" stroke-miterlimit="10" d="M509.5,634.1
		c1.1,4.7-3.1,8.9-7.8,7.8c-2.4-0.5-4.3-2.5-4.8-4.8c-1.1-4.7,3.1-8.9,7.8-7.8C507,629.8,509,631.7,509.5,634.1z"/>
	<path id="st11" display="inline" fill="#FFFFFF" stroke="#702F84" stroke-width="4" stroke-miterlimit="10" d="M509.5,666.2
		c1.1,4.7-3.1,8.9-7.8,7.8c-2.4-0.5-4.3-2.5-4.8-4.8c-1.1-4.7,3.1-8.9,7.8-7.8C507,661.9,509,663.8,509.5,666.2z"/>
	<path id="st48" display="inline" fill="#FFFFFF" stroke="#48B661" stroke-width="4" stroke-miterlimit="10" d="M36.5,377.2
		c1.1,4.7-3.1,8.9-7.8,7.8c-2.4-0.5-4.3-2.5-4.8-4.8c-1.1-4.7,3.1-8.9,7.8-7.8C34,372.9,36,374.8,36.5,377.2z"/>
	<path id="st49" display="inline" fill="#FFFFFF" stroke="#48B661" stroke-width="4" stroke-miterlimit="10" d="M121.1,377.2
		c1.1,4.7-3.1,8.9-7.8,7.8c-2.4-0.5-4.3-2.5-4.8-4.8c-1.1-4.7,3.1-8.9,7.8-7.8C118.6,372.9,120.5,374.8,121.1,377.2z"/>
	<path id="st50" display="inline" fill="#FFFFFF" stroke="#48B661" stroke-width="4" stroke-miterlimit="10" d="M352.7,377.2
		c1.1,4.7-3.1,8.9-7.8,7.8c-2.4-0.5-4.3-2.5-4.8-4.8c-1.1-4.7,3.1-8.9,7.8-7.8C350.2,372.9,352.2,374.8,352.7,377.2z"/>
	<path id="st58" display="inline" fill="#FFFFFF" stroke="#F1813E" stroke-width="4" stroke-miterlimit="10" d="M352.7,457.9
		c1.1,4.7-3.1,8.9-7.8,7.8c-2.4-0.5-4.3-2.5-4.8-4.8c-1.1-4.7,3.1-8.9,7.8-7.8C350.2,453.6,352.2,455.5,352.7,457.9z"/>
	<path id="st59" display="inline" fill="#FFFFFF" stroke="#F1813E" stroke-width="4" stroke-miterlimit="10" d="M509.5,457.9
		c1.1,4.7-3.1,8.9-7.8,7.8c-2.4-0.5-4.3-2.5-4.8-4.8c-1.1-4.7,3.1-8.9,7.8-7.8C507,453.6,509,455.5,509.5,457.9z"/>
	<path id="st60" display="inline" fill="#FFFFFF" stroke="#F1813E" stroke-width="4" stroke-miterlimit="10" d="M668.9,457.9
		c1.1,4.7-3.1,8.9-7.8,7.8c-2.4-0.5-4.3-2.5-4.8-4.8c-1.1-4.7,3.1-8.9,7.8-7.8C666.5,453.6,668.4,455.5,668.9,457.9z"/>
	<path id="st62_1_" display="inline" fill="#FFFFFF" stroke="#F1813E" stroke-width="4" stroke-miterlimit="10" d="M828.2,507
		c1.1,4.7-3.1,8.9-7.8,7.8c-2.4-0.5-4.3-2.5-4.8-4.8c-1.1-4.7,3.1-8.9,7.8-7.8C825.7,502.6,827.6,504.6,828.2,507z"/>
	<path id="st61_1_" display="inline" fill="#FFFFFF" stroke="#F1813E" stroke-width="4" stroke-miterlimit="10" d="M748.9,457.9
		c1.1,4.7-3.1,8.9-7.8,7.8c-2.4-0.5-4.3-2.5-4.8-4.8c-1.1-4.7,3.1-8.9,7.8-7.8C746.5,453.6,748.4,455.5,748.9,457.9z"/>
	<path id="st63_1_" display="inline" fill="#FFFFFF" stroke="#F1813E" stroke-width="4" stroke-miterlimit="10" d="M828.2,537.6
		c1.1,4.7-3.1,8.9-7.8,7.8c-2.4-0.5-4.3-2.5-4.8-4.8c-1.1-4.7,3.1-8.9,7.8-7.8C825.7,533.3,827.6,535.2,828.2,537.6z"/>
	<path id="st64" display="inline" fill="#FFFFFF" stroke="#F1813E" stroke-width="4" stroke-miterlimit="10" d="M828.2,569
		c1.1,4.7-3.1,8.9-7.8,7.8c-2.4-0.5-4.3-2.5-4.8-4.8c-1.1-4.7,3.1-8.9,7.8-7.8C825.7,564.7,827.6,566.6,828.2,569z"/>
	<path id="st65" display="inline" fill="#FFFFFF" stroke="#F1813E" stroke-width="4" stroke-miterlimit="10" d="M828.2,601.9
		c1.1,4.7-3.1,8.9-7.8,7.8c-2.4-0.5-4.3-2.5-4.8-4.8c-1.1-4.7,3.1-8.9,7.8-7.8C825.7,597.6,827.6,599.5,828.2,601.9z"/>
	<path id="st51" display="inline" fill="#FFFFFF" stroke="#48B661" stroke-width="4" stroke-miterlimit="10" d="M509.5,377.2
		c1.1,4.7-3.1,8.9-7.8,7.8c-2.4-0.5-4.3-2.5-4.8-4.8c-1.1-4.7,3.1-8.9,7.8-7.8C507,372.9,509,374.8,509.5,377.2z"/>
	<path id="st52" display="inline" fill="#FFFFFF" stroke="#48B661" stroke-width="4" stroke-miterlimit="10" d="M668.9,439.6
		c1.1,4.7-3.1,8.9-7.8,7.8c-2.4-0.5-4.3-2.5-4.8-4.8c-1.1-4.7,3.1-8.9,7.8-7.8C666.5,435.3,668.4,437.2,668.9,439.6z"/>
	<path id="st53" display="inline" fill="#FFFFFF" stroke="#48B661" stroke-width="4" stroke-miterlimit="10" d="M668.9,537.6
		c1.1,4.7-3.1,8.9-7.8,7.8c-2.4-0.5-4.3-2.5-4.8-4.8c-1.1-4.7,3.1-8.9,7.8-7.8C666.5,533.3,668.4,535.2,668.9,537.6z"/>
	<path id="st54" display="inline" fill="#FFFFFF" stroke="#48B661" stroke-width="4" stroke-miterlimit="10" d="M668.9,569.7
		c1.1,4.7-3.1,8.9-7.8,7.8c-2.4-0.5-4.3-2.5-4.8-4.8c-1.1-4.7,3.1-8.9,7.8-7.8C666.5,565.4,668.4,567.3,668.9,569.7z"/>
	<path id="st55" display="inline" fill="#FFFFFF" stroke="#48B661" stroke-width="4" stroke-miterlimit="10" d="M668.9,601.9
		c1.1,4.7-3.1,8.9-7.8,7.8c-2.4-0.5-4.3-2.5-4.8-4.8c-1.1-4.7,3.1-8.9,7.8-7.8C666.5,597.6,668.4,599.5,668.9,601.9z"/>
	<path id="st56" display="inline" fill="#FFFFFF" stroke="#48B661" stroke-width="4" stroke-miterlimit="10" d="M668.9,634.1
		c1.1,4.7-3.1,8.9-7.8,7.8c-2.4-0.5-4.3-2.5-4.8-4.8c-1.1-4.7,3.1-8.9,7.8-7.8C666.5,629.8,668.4,631.7,668.9,634.1z"/>
	<path id="st57" display="inline" fill="#FFFFFF" stroke="#48B661" stroke-width="4" stroke-miterlimit="10" d="M668.9,666.2
		c1.1,4.7-3.1,8.9-7.8,7.8c-2.4-0.5-4.3-2.5-4.8-4.8c-1.1-4.7,3.1-8.9,7.8-7.8C666.5,661.9,668.4,663.8,668.9,666.2z"/>
</g>
<g id="Layer_6">
	<circle id="e0" fill="#FFFFFF" stroke="#702F84" stroke-width="4" stroke-miterlimit="10" cx="186.4" cy="191.4" r="6.5"/>
	<circle id="e1" fill="#FFFFFF" stroke="#702F84" stroke-width="4" stroke-miterlimit="10" cx="186.4" cy="223.4" r="6.5"/>
	<circle id="e2" fill="#FFFFFF" stroke="#702F84" stroke-width="4" stroke-miterlimit="10" cx="186.4" cy="255.4" r="6.5"/>
	<circle id="e3" fill="#FFFFFF" stroke="#702F84" stroke-width="4" stroke-miterlimit="10" cx="186.4" cy="287.4" r="6.5"/>
	<circle id="e4" fill="#FFFFFF" stroke="#702F84" stroke-width="4" stroke-miterlimit="10" cx="186.4" cy="319.3" r="6.5"/>
	<circle id="e5" fill="#FFFFFF" stroke="#702F84" stroke-width="4" stroke-miterlimit="10" cx="186.4" cy="351.3" r="6.5"/>
	<circle id="e6" fill="#FFFFFF" stroke="#702F84" stroke-width="4" stroke-miterlimit="10" cx="330.7" cy="444.1" r="6.5"/>
	<circle id="e7" fill="#FFFFFF" stroke="#702F84" stroke-width="4" stroke-miterlimit="10" cx="400.4" cy="514.1" r="6.5"/>
	<circle id="e8" fill="#FFFFFF" stroke="#702F84" stroke-width="4" stroke-miterlimit="10" cx="433.1" cy="547" r="6.5"/>
	<circle id="e9" fill="#FFFFFF" stroke="#702F84" stroke-width="4" stroke-miterlimit="10" cx="465.8" cy="580" r="6.5"/>
	<circle id="e10" fill="#FFFFFF" stroke="#702F84" stroke-width="4" stroke-miterlimit="10" cx="503.1" cy="635.6" r="6.5"/>
	<circle id="e11" fill="#FFFFFF" stroke="#702F84" stroke-width="4" stroke-miterlimit="10" cx="503.1" cy="667.7" r="6.5"/>
	<circle id="e12" fill="#FFFFFF" stroke="#2079BA" stroke-width="4" stroke-miterlimit="10" cx="346.4" cy="98.1" r="6.5"/>
	<circle id="e13" fill="#FFFFFF" stroke="#2079BA" stroke-width="4" stroke-miterlimit="10" cx="346.4" cy="129.7" r="6.5"/>
	<circle id="e14" fill="#FFFFFF" stroke="#2079BA" stroke-width="4" stroke-miterlimit="10" cx="346.4" cy="161.2" r="6.5"/>
	<circle id="e15" fill="#FFFFFF" stroke="#2079BA" stroke-width="4" stroke-miterlimit="10" cx="346.4" cy="191.4" r="6.5"/>
	<circle id="e16" fill="#FFFFFF" stroke="#2079BA" stroke-width="4" stroke-miterlimit="10" cx="346.4" cy="223.4" r="6.5"/>
	<circle id="e17" fill="#FFFFFF" stroke="#2079BA" stroke-width="4" stroke-miterlimit="10" cx="346.4" cy="255.4" r="6.5"/>
	<circle id="e18" fill="#FFFFFF" stroke="#2079BA" stroke-width="4" stroke-miterlimit="10" cx="346.4" cy="287.4" r="6.5"/>
	<circle id="e19" fill="#FFFFFF" stroke="#2079BA" stroke-width="4" stroke-miterlimit="10" cx="346.4" cy="319.3" r="6.5"/>
	<circle id="e20" fill="#FFFFFF" stroke="#2079BA" stroke-width="4" stroke-miterlimit="10" cx="346.4" cy="359.3" r="6.5"/>
	<circle id="e21" fill="#FFFFFF" stroke="#2079BA" stroke-width="4" stroke-miterlimit="10" cx="346.4" cy="428" r="6.5"/>
	<circle id="e22" fill="#FFFFFF" stroke="#2079BA" stroke-width="4" stroke-miterlimit="10" cx="346.4" cy="573.5" r="6.5"/>
	<circle id="e23" fill="#FFFFFF" stroke="#2079BA" stroke-width="4" stroke-miterlimit="10" cx="346.4" cy="604.7" r="6.5"/>
	<circle id="e24" fill="#FFFFFF" stroke="#2079BA" stroke-width="4" stroke-miterlimit="10" cx="346.4" cy="635.6" r="6.5"/>
	<circle id="e25" fill="#FFFFFF" stroke="#2079BA" stroke-width="4" stroke-miterlimit="10" cx="346.4" cy="667.7" r="6.5"/>
	<circle id="e26" fill="#FFFFFF" stroke="#2079BA" stroke-width="4" stroke-miterlimit="10" cx="346.4" cy="698.5" r="6.5"/>
	<circle id="e27" fill="#FFFFFF" stroke="#2079BA" stroke-width="4" stroke-miterlimit="10" cx="346.4" cy="729.8" r="6.5"/>
	<circle id="e28" fill="#FFFFFF" stroke="#2079BA" stroke-width="4" stroke-miterlimit="10" cx="346.4" cy="761" r="6.5"/>
	<circle id="e29" fill="#FFFFFF" stroke="#D52342" stroke-width="4" stroke-miterlimit="10" cx="503.1" cy="65.7" r="6.5"/>
	<circle id="e30" fill="#FFFFFF" stroke="#D52342" stroke-width="4" stroke-miterlimit="10" cx="503.1" cy="98.1" r="6.5"/>
	<circle id="e31" fill="#FFFFFF" stroke="#D52342" stroke-width="4" stroke-miterlimit="10" cx="503.1" cy="129.7" r="6.5"/>
	<circle id="e32" fill="#FFFFFF" stroke="#D52342" stroke-width="4" stroke-miterlimit="10" cx="503.1" cy="161.2" r="6.5"/>
	<circle id="e33" fill="#FFFFFF" stroke="#D52342" stroke-width="4" stroke-miterlimit="10" cx="503.1" cy="191.4" r="6.5"/>
	<circle id="e34" fill="#FFFFFF" stroke="#D52342" stroke-width="4" stroke-miterlimit="10" cx="503.1" cy="223.4" r="6.5"/>
	<circle id="e35" fill="#FFFFFF" stroke="#D52342" stroke-width="4" stroke-miterlimit="10" cx="503.1" cy="255.4" r="6.5"/>
	<circle id="e36" fill="#FFFFFF" stroke="#D52342" stroke-width="4" stroke-miterlimit="10" cx="503.1" cy="287.4" r="6.5"/>
	<circle id="e37" fill="#FFFFFF" stroke="#D52342" stroke-width="4" stroke-miterlimit="10" cx="503.1" cy="319.3" r="6.5"/>
	<circle id="e38" fill="#FFFFFF" stroke="#D52342" stroke-width="4" stroke-miterlimit="10" cx="503.1" cy="359.3" r="6.5"/>
	<circle id="e39" fill="#FFFFFF" stroke="#D52342" stroke-width="4" stroke-miterlimit="10" cx="503.1" cy="440.5" r="6.5"/>
	<circle id="e40" fill="#FFFFFF" stroke="#D52342" stroke-width="4" stroke-miterlimit="10" cx="386.3" cy="500" r="6.5"/>
	<circle id="e41" fill="#FFFFFF" stroke="#D52342" stroke-width="4" stroke-miterlimit="10" cx="346.4" cy="505.1" r="6.5"/>
	<circle id="e42" fill="#FFFFFF" stroke="#D52342" stroke-width="4" stroke-miterlimit="10" cx="305.5" cy="540.8" r="6.5"/>
	<circle id="e43" fill="#FFFFFF" stroke="#D52342" stroke-width="4" stroke-miterlimit="10" cx="274" cy="572.4" r="6.5"/>
	<circle id="e44" fill="#FFFFFF" stroke="#D52342" stroke-width="4" stroke-miterlimit="10" cx="242.5" cy="603.9" r="6.5"/>
	<circle id="e45" fill="#FFFFFF" stroke="#D52342" stroke-width="4" stroke-miterlimit="10" cx="211" cy="635.4" r="6.5"/>
	<circle id="e46" fill="#FFFFFF" stroke="#D52342" stroke-width="4" stroke-miterlimit="10" cx="179.5" cy="667" r="6.5"/>
	<circle id="e47" fill="#FFFFFF" stroke="#D52342" stroke-width="4" stroke-miterlimit="10" cx="148" cy="698.5" r="6.5"/>
	<circle id="e48" fill="#FFFFFF" stroke="#48B661" stroke-width="4" stroke-miterlimit="10" cx="30.1" cy="378.7" r="6.5"/>
	<circle id="e49" fill="#FFFFFF" stroke="#48B661" stroke-width="4" stroke-miterlimit="10" cx="114.7" cy="378.7" r="6.5"/>
	<circle id="e50" fill="#FFFFFF" stroke="#48B661" stroke-width="4" stroke-miterlimit="10" cx="346.4" cy="378.7" r="6.5"/>
	<circle id="e51" fill="#FFFFFF" stroke="#48B661" stroke-width="4" stroke-miterlimit="10" cx="503.1" cy="378.7" r="6.5"/>
	<circle id="e52" fill="#FFFFFF" stroke="#48B661" stroke-width="4" stroke-miterlimit="10" cx="662.6" cy="441.1" r="6.5"/>
	<circle id="e53" fill="#FFFFFF" stroke="#48B661" stroke-width="4" stroke-miterlimit="10" cx="662.6" cy="539.1" r="6.5"/>
	<circle id="e54" fill="#FFFFFF" stroke="#48B661" stroke-width="4" stroke-miterlimit="10" cx="662.6" cy="571.2" r="6.5"/>
	<circle id="e55" fill="#FFFFFF" stroke="#48B661" stroke-width="4" stroke-miterlimit="10" cx="662.6" cy="603.4" r="6.5"/>
	<circle id="e56" fill="#FFFFFF" stroke="#48B661" stroke-width="4" stroke-miterlimit="10" cx="662.6" cy="635.6" r="6.5"/>
	<circle id="e57" fill="#FFFFFF" stroke="#48B661" stroke-width="4" stroke-miterlimit="10" cx="662.6" cy="667.7" r="6.5"/>
	<circle id="e58" fill="#FFFFFF" stroke="#F1813E" stroke-width="4" stroke-miterlimit="10" cx="346.4" cy="459.4" r="6.5"/>
	<circle id="e59" fill="#FFFFFF" stroke="#F1813E" stroke-width="4" stroke-miterlimit="10" cx="503.1" cy="459.4" r="6.5"/>
	<circle id="e60" fill="#FFFFFF" stroke="#F1813E" stroke-width="4" stroke-miterlimit="10" cx="662.6" cy="459.4" r="6.5"/>
	<circle id="e61" fill="#FFFFFF" stroke="#F1813E" stroke-width="4" stroke-miterlimit="10" cx="742.6" cy="459.4" r="6.5"/>
	<circle id="e62" fill="#FFFFFF" stroke="#F1813E" stroke-width="4" stroke-miterlimit="10" cx="821.8" cy="508.4" r="6.5"/>
	<circle id="e63" fill="#FFFFFF" stroke="#F1813E" stroke-width="4" stroke-miterlimit="10" cx="821.8" cy="539.1" r="6.5"/>
	<circle id="e64" fill="#FFFFFF" stroke="#F1813E" stroke-width="4" stroke-miterlimit="10" cx="821.8" cy="570.5" r="6.5"/>
	<circle id="e65" fill="#FFFFFF" stroke="#F1813E" stroke-width="4" stroke-miterlimit="10" cx="821.8" cy="603.4" r="6.5"/>
	<text transform="matrix(1 0 0 1 631.1566 131.1853)"><tspan x="0" y="0" font-family="'MyriadPro-Regular'" font-size="27">Схема линий Петербургского</tspan><tspan x="162.8" y="32.4" font-family="'MyriadPro-Regular'" font-size="27">метрополитена</tspan></text>
	<g id="Слой_x0020_1">
		
			<sodipodi:namedview  guidetolerance="10" gridtolerance="10" inkscape:cx="77.5" inkscape:zoom="1.8153846" bordercolor="#666666" objecttolerance="10" pagecolor="#ffffff" id="namedview8" showgrid="false" borderopacity="1" inkscape:cy="65" inkscape:current-layer="svg2" inkscape:window-maximized="1" inkscape:window-y="-8" inkscape:window-x="-8" inkscape:window-width="1440" inkscape:pageshadow="2" inkscape:pageopacity="0" inkscape:window-height="837">
			</sodipodi:namedview>
		<path id="path4" fill="#2452A2" d="M961.8,33.7c-7.8-7.1-15.3-9.2-15.3-9.2l-15,51.1h-0.1l-15.1-51.1c0,0-7.4,2.1-15.3,9.2
			c-8.3,7.6-15.5,19.2-14.3,37.6c1,14.6,11.7,26.9,11.7,26.9l20.8-0.1c0,0-17.9-9.5-22.2-24.4c-5.1-17.6,2.9-29.9,9-35.7
			c2.5-2.2,6.2-2.7,7.5,2c4.6,14.9,17.8,57.7,17.8,57.7l0.1,0c0,0,13.1-42.8,17.8-57.7c1.4-4.7,5.1-4.2,7.5-2
			c6.2,5.8,14.2,18.1,9,35.7c-4.3,14.9-22.2,24.4-22.2,24.4l20.8,0.1c0,0,10.8-12.4,11.7-26.9C977.4,52.9,970.2,41.2,961.8,33.7z"/>
	</g>
</g>
</svg>
