<?xml version="1.0" encoding="utf-8"?>
<!-- Generator: Adobe Illustrator 18.0.0, SVG Export Plug-In . SVG Version: 6.00 Build 0)  -->
<!DOCTYPE svg PUBLIC "-//W3C//DTD SVG 1.1//EN" "http://www.w3.org/Graphics/SVG/1.1/DTD/svg11.dtd">
<svg version="1.1" id="ëÎÓÈ_1" xmlns="http://www.w3.org/2000/svg" xmlns:xlink="http://www.w3.org/1999/xlink" x="0px" y="0px"
	 viewBox="0 0 684.5 470.6" enable-background="new 0 0 684.5 470.6" xml:space="preserve">
<g>
	<path fill="#FF0013" d="M345.6,300.7c-0.2,0.3-0.4,0.6-0.7,0.9c-0.3,0.3-0.7,0.6-1.1,0.8c-0.5,0.2-1.1,0.4-1.6,0.4c0,0,0,0,0,0
		c-0.5,0-1.1-0.1-1.6-0.3c-0.4-0.2-0.8-0.5-1.2-0.8c-0.3-0.3-0.5-0.6-0.7-0.9L211.7,77.9L71.8,431.6h89.5l69.5-199
		c0.6-1.6,2.1-2.6,3.8-2.6c1.3,0.1,2.6,0.6,3.4,1.9l104.3,171.7l104.3-171.7c0.7-1.2,2-1.9,3.3-1.9c0.1,0,0.1,0,0.1,0
		c1.6,0,3.1,1,3.7,2.6l69.5,199h89.5L472.7,77.9L345.6,300.7z"/>
	<path fill="#FF0013" d="M637.4,405L477.2,0l-135,236.6L207.3,0L47,405H0v61.1h242V405h-36.2L241,304.1l101.2,166.5l101.2-166.6
		L478.7,405h-36.2v61.1h242V405H637.4z M663.6,439.4H463.3c-2.1,0-3.9-1.7-3.9-3.9c0-2.1,1.7-3.9,3.9-3.9H515L449,242.8L345.8,412.8
		c-0.3,0.7-0.8,1.2-1.5,1.6c-0.6,0.4-1.3,0.6-2,0.6c0,0,0,0,0,0c-0.7,0-1.4-0.2-2-0.6c-0.7-0.4-1.2-1-1.5-1.6L235.4,242.8l-66,188.8
		h51.6c2.1,0,3.9,1.7,3.9,3.9c0,2.2-1.7,3.9-3.9,3.9H20.9c-2.1,0-3.9-1.7-3.9-3.9c0-2.1,1.7-3.9,3.9-3.9h42.5L207.4,67.8
		c0.6-1.6,2.1-2.5,3.8-2.5c1.4,0,2.8,0.7,3.5,2l127.6,223.6L469.8,67.3c0.7-1.3,2.1-2,3.5-2c1.4,0,3.1,0.9,3.8,2.5L621,431.6h42.5
		c2.2,0,3.9,1.7,3.9,3.9C667.5,437.7,665.7,439.4,663.6,439.4z"/>
</g>
</svg>
