<?xml version="1.0" encoding="utf-8"?>
<!-- Generator: Adobe Illustrator 18.0.0, SVG Export Plug-In . SVG Version: 6.00 Build 0)  -->
<!DOCTYPE svg PUBLIC "-//W3C//DTD SVG 1.1//EN" "http://www.w3.org/Graphics/SVG/1.1/DTD/svg11.dtd">
<svg version="1.1" xmlns="http://www.w3.org/2000/svg" xmlns:xlink="http://www.w3.org/1999/xlink" x="0px" y="0px"
	 viewBox="0 0 222.8 304.1" enable-background="new 0 0 222.8 304.1" xml:space="preserve">
<g id="Layer_1">
	<g>
		<path fill="#FFFFFF" d="M69.8,58.5c0.3,0.1,0.6,0.3,0.9,0.4c-1.5,3.1-3,6.2-4.6,9.3c-3.5,6.8-7.2,13.5-10.3,20.5
			c-0.8,1.9-0.9,5.8,0.1,6.5c4.2,2.8,1.3,5.2,0.2,7.6c-1.3,3-3.1,5.8-4.3,8.8c-1.6,3.9-2.8,8-4.1,11.9c-2.3,7-0.7,13.8,3.8,16.9
			c1.7,1.2,2.9,3.1,4.4,4.6c-7.4,3.4-13.7,6.7-20.3,9.3c-6.7,2.6-11.4,5.7-9.1,14.2c0.9,3.2-0.5,6.9-0.2,10.4
			c0.3,3.7,1.3,7.3,2.1,11.7c2.4,0.6,5.2,1.4,8.5,2.2c-2.5,0.7-4.8,1.4-8.1,2.4c1.8,0.4,2.7,0.6,3.5,0.8c-0.7,1-1.2,1.7-1,1.4
			c3.7,1.2,7.2,2.4,11.4,3.8c-1.8,1.3-2.9,2.1-5,3.6c3.2-0.3,5.3-0.6,7.3-0.8c0.1,0.3,0.1,0.6,0.2,1c-1.9,1-3.7,1.9-5.6,2.9
			c0.1,0.3,0.2,0.6,0.2,0.9c1.8,0,3.6,0,5.4,0c0,0.3,0,0.5,0.1,0.8c-1.5,0.8-3,1.5-5.5,2.8c2.9,0.3,4.4,0.4,6.5,0.6
			c-1.7,1.6-2.8,2.6-4.4,4c1.2,0,1.9,0,3.5,0c-1.5,1.4-2.6,2.4-4.1,3.8c2.3,3.1,4.5,6.2,6.8,9.3c-1.9,2.3-7.6,3.3-3.2,7
			c3.3,2.8,5.2,4.7,1.4,10.1c4.4-1.4,7.1-2.3,9.9-3.2c-5.6,4.9-6.3,6.5-1.4,16.4c2.5,5.1,7.4,3.2,11.5,0.5c-2.1,2.4-4.2,4.9-6.3,7.3
			c0.2,0.3,0.3,0.6,0.5,0.9c3.5-1.5,6.9-3,10.4-4.5c0.2,0.3,0.3,0.6,0.5,0.9c-1.6,0.9-3.2,1.9-5.4,3.2c5.8,0,10.5,0,15.4,0
			c-0.8,0.8-1.7,1.6-2.6,2.4c0.2,0.3,0.4,0.6,0.6,0.9c1.8-1,3.6-2,5.6-3.2c-1.8,4.6-3.4,8.9-5,13c1.4-0.4,3.1-1.5,4.3-1.1
			c6.5,1.8,10.6-3.2,15.1-5.7c5.5-3,9.9-8.2,14.8-12.4c0.8-0.7,1.8-1.3,2.7-1.9c0.6,0.7,1.3,1.4,1.9,2.1c-4.5,3.6-8.9,7.2-13.4,10.8
			c0.3,0.4,0.6,0.7,1,1.1c0.7-0.2,1.7-0.2,2.2-0.7c5.1-5.2,10.3-10.3,15.1-15.8c2.8-3.3,5.7-5.2,10.2-4.4c4.2,0.7,8.4,0.8,12.7,1.2
			c0-0.3,0.1-0.7,0.1-1c-5.2-0.6-10.4-1.2-15.5-1.8c0-0.4,0-0.8,0-1.2c4.8,0,9.6,0,14.4,0c0-0.4,0-0.8,0-1.2
			c-1.9-0.1-3.8-0.2-5.7-0.3c6.3-0.4,12.5-0.3,18.7-0.4c0.8,0,1.6-0.8,2.4-1.3c-0.6-0.5-1.3-1.1-1.8-1.5c2.3-1,4.6-2.1,6.9-3.2
			c0-0.3,0-0.7,0-1c-4.1-0.3-8.3-0.5-12.4-0.8c0-0.5,0.1-1.1,0.1-1.6c4.3,0.3,8.5,0.6,12.8,0.9c0-0.4,0.1-0.8,0.1-1.2
			c-4.3-0.4-8.6-0.9-13-1.3c0-0.5,0-0.9,0-1.4c6.2-0.9,12.4-1.8,18.5-2.8c0-0.2,0-0.3,0-0.5c-3.5-0.2-6.9-0.3-10.4-0.5
			c0-0.4,0-0.8,0-1.2c4.9,0,9.7,0,14.6,0c0-0.4,0-0.7,0-1.1c-4.8,0-9.7,0-14.5,0c0-0.5,0-0.9-0.1-1.4c5.1-0.3,10.3-0.6,15.4-1
			c0-0.4,0-0.8,0-1.2c-4.8,0-9.5,0-14.3,0c0-0.4-0.1-0.9-0.1-1.3c3.9-0.5,7.8-1.1,11.8-1.6c0-0.1,0-0.2,0-0.4
			c-2.4-0.2-4.8-0.3-7.2-0.5c0-0.3-0.1-0.7-0.1-1c4-0.4,7.9-0.9,11.9-1.3c0-0.4-0.1-0.8-0.1-1.2c-2.4-0.1-4.9-0.2-7.3-0.4
			c0-0.4-0.1-0.8-0.1-1.2c4.5-0.3,9.1-0.7,13.6-1c0-0.5-0.1-1.1-0.1-1.6c-3.2,0-6.4,0-10.6,0c1.9-2.6,3-5.4,4.2-5.4
			c4.6-0.2,4.6-3.3,5.2-6.4c0.3-1.3,1-2.6,1.6-3.9c0.2,0.1,0.4,0.2,0.7,0.3c-0.2,1.7-0.4,3.3-0.6,5c0.3,0.1,0.7,0.1,1,0.2
			c1-2.7,2-5.3,3.4-9.2c0.3,2.8,0.4,4.2,0.6,6.3c1.2-3.2,2-5.7,2.9-8.2c0.2,0,0.4,0.1,0.5,0.1c-0.2,2-0.5,4-0.8,6.4
			c2.1-0.7,3.5-1.2,4.3-1.4c1.6-4.6,3.2-9,4.7-13.3c-0.3-0.1-0.5-0.2-0.8-0.3c-1.2,2-2.4,4-3.6,5.9c-0.2-0.1-0.4-0.2-0.6-0.3
			c2.4-5.5,4.7-10.9,7.2-16.6c0,0-1-0.4-2.2-0.8c1.5-0.3,2.8-0.6,4.2-0.8c0-3.9,0.2-7.6-0.1-11.3c-0.1-1.3-1-3.1-2.1-3.7
			c-7.3-3.8-14.9-7.2-22.2-11c-1.6-0.9-2.5-3.1-3.7-4.7c0.3-0.2,0.6-0.5,0.9-0.7c0.8,0.6,1.6,1.2,2.2,1.6c0.4-2.3,0.8-4.5,1.2-6.7
			c0.4,0,0.8,0.1,1.2,0.1c0.1,0.9,0.2,1.8,0.3,3.6c2-1.7,4.3-2.7,4.9-4.4c3.2-8.9,4.9-17.8,1.5-27.2c-4.7-12.9-8.1-26.3-17-37.3
			c-4.3-5.3-7.8-11-9.8-17.9c-1.7-6.2-4.5-12.8-8.7-17.4c-12.6-13.9-29.4-15.4-46.8-12.9c-7.5,1.1-14.4,3.6-21.2,7.8
			c-5.7,3.5-11.3,6.3-15.1,12.2c-3.6,5.7-6.9,11.4-5.1,18.8C67.9,60.8,68.8,59.7,69.8,58.5z"/>
		<path fill="#353535" d="M69.8,58.5c-0.9,1.1-1.9,2.2-3.1,3.6c-1.8-7.4,1.5-13,5.1-18.8c3.7-5.9,9.3-8.7,15.1-12.2
			c6.8-4.2,13.7-6.7,21.2-7.8c17.4-2.5,34.2-1.1,46.8,12.9c4.2,4.7,7,11.3,8.7,17.4c1.9,6.9,5.4,12.5,9.8,17.9
			c8.9,11,12.3,24.4,17,37.3c3.5,9.4,1.7,18.4-1.5,27.2c-0.6,1.6-2.9,2.6-4.9,4.4c-0.2-1.8-0.2-2.7-0.3-3.6c-0.4,0-0.8-0.1-1.2-0.1
			c-0.4,2.2-0.8,4.4-1.2,6.7c-0.6-0.4-1.4-1-2.2-1.6c-0.3,0.2-0.6,0.5-0.9,0.7c1.2,1.6,2.1,3.8,3.7,4.7c7.3,3.9,14.9,7.2,22.2,11
			c1.1,0.6,2,2.4,2.1,3.7c0.3,3.7,0.1,7.4,0.1,11.3c-1.4,0.3-2.7,0.5-4.2,0.8c1.2,0.4,2.2,0.8,2.2,0.8c-2.5,5.7-4.8,11.2-7.2,16.6
			c0.2,0.1,0.4,0.2,0.6,0.3c1.2-2,2.4-4,3.6-5.9c0.3,0.1,0.5,0.2,0.8,0.3c-1.5,4.3-3.1,8.6-4.7,13.3c-0.8,0.3-2.2,0.7-4.3,1.4
			c0.3-2.4,0.5-4.4,0.8-6.4c-0.2,0-0.4-0.1-0.5-0.1c-0.9,2.5-1.8,5-2.9,8.2c-0.2-2.1-0.3-3.5-0.6-6.3c-1.4,3.9-2.4,6.5-3.4,9.2
			c-0.3-0.1-0.7-0.1-1-0.2c0.2-1.7,0.4-3.3,0.6-5c-0.2-0.1-0.4-0.2-0.7-0.3c-0.5,1.3-1.3,2.5-1.6,3.9c-0.6,3-0.6,6.2-5.2,6.4
			c-1.2,0-2.3,2.8-4.2,5.4c4.2,0,7.4,0,10.6,0c0,0.5,0.1,1.1,0.1,1.6c-4.5,0.3-9.1,0.7-13.6,1c0,0.4,0.1,0.8,0.1,1.2
			c2.4,0.1,4.9,0.2,7.3,0.4c0,0.4,0.1,0.8,0.1,1.2c-4,0.4-7.9,0.9-11.9,1.3c0,0.3,0.1,0.7,0.1,1c2.4,0.2,4.8,0.3,7.2,0.5
			c0,0.1,0,0.2,0,0.4c-3.9,0.5-7.8,1.1-11.8,1.6c0,0.4,0.1,0.9,0.1,1.3c4.8,0,9.5,0,14.3,0c0,0.4,0,0.8,0,1.2
			c-5.1,0.3-10.3,0.6-15.4,1c0,0.5,0,0.9,0.1,1.4c4.8,0,9.7,0,14.5,0c0,0.4,0,0.7,0,1.1c-4.9,0-9.7,0-14.6,0c0,0.4,0,0.8,0,1.2
			c3.5,0.2,6.9,0.3,10.4,0.5c0,0.2,0,0.3,0,0.5c-6.2,0.9-12.4,1.8-18.5,2.8c0,0.5,0,0.9,0,1.4c4.3,0.4,8.6,0.9,13,1.3
			c0,0.4-0.1,0.8-0.1,1.2c-4.3-0.3-8.5-0.6-12.8-0.9c0,0.5-0.1,1.1-0.1,1.6c4.1,0.3,8.3,0.5,12.4,0.8c0,0.3,0,0.7,0,1
			c-2.3,1.1-4.6,2.1-6.9,3.2c0.5,0.4,1.1,1,1.8,1.5c-0.8,0.4-1.6,1.3-2.4,1.3c-6.2,0.1-12.4,0.1-18.7,0.4c1.9,0.1,3.8,0.2,5.7,0.3
			c0,0.4,0,0.8,0,1.2c-4.8,0-9.6,0-14.4,0c0,0.4,0,0.8,0,1.2c5.2,0.6,10.4,1.2,15.5,1.8c0,0.3-0.1,0.7-0.1,1
			c-4.2-0.4-8.5-0.5-12.7-1.2c-4.5-0.7-7.4,1.1-10.2,4.4c-4.7,5.5-10,10.6-15.1,15.8c-0.5,0.5-1.4,0.5-2.2,0.7
			c-0.3-0.4-0.6-0.7-1-1.1c4.5-3.6,8.9-7.2,13.4-10.8c-0.6-0.7-1.3-1.4-1.9-2.1c-0.9,0.6-1.8,1.2-2.7,1.9
			c-4.9,4.2-9.3,9.3-14.8,12.4c-4.6,2.5-8.7,7.5-15.1,5.7c-1.3-0.4-2.9,0.7-4.3,1.1c1.6-4.1,3.2-8.4,5-13c-2,1.2-3.8,2.2-5.6,3.2
			c-0.2-0.3-0.4-0.6-0.6-0.9c0.9-0.8,1.8-1.6,2.6-2.4c-4.9,0-9.6,0-15.4,0c2.2-1.3,3.8-2.2,5.4-3.2c-0.2-0.3-0.3-0.6-0.5-0.9
			c-3.5,1.5-6.9,3-10.4,4.5c-0.2-0.3-0.3-0.6-0.5-0.9c2.1-2.4,4.2-4.9,6.3-7.3c-4.1,2.8-9,4.6-11.5-0.5c-4.8-9.9-4.2-11.4,1.4-16.4
			c-2.7,0.9-5.5,1.8-9.9,3.2c3.8-5.3,1.9-7.3-1.4-10.1c-4.4-3.7,1.3-4.7,3.2-7c-2.2-3-4.5-6.2-6.8-9.3c1.5-1.4,2.6-2.4,4.1-3.8
			c-1.5,0-2.2,0-3.5,0c1.5-1.4,2.7-2.5,4.4-4c-2.2-0.2-3.7-0.4-6.5-0.6c2.5-1.3,4-2.1,5.5-2.8c0-0.3,0-0.5-0.1-0.8
			c-1.8,0-3.6,0-5.4,0c-0.1-0.3-0.2-0.6-0.2-0.9c1.9-1,3.7-1.9,5.6-2.9c-0.1-0.3-0.1-0.6-0.2-1c-2,0.2-4,0.4-7.3,0.8
			c2.1-1.5,3.3-2.4,5-3.6c-4.2-1.4-7.8-2.6-11.4-3.8c-0.2,0.2,0.3-0.4,1-1.4c-0.8-0.2-1.7-0.4-3.5-0.8c3.3-1,5.6-1.6,8.1-2.4
			c-3.2-0.8-6.1-1.6-8.5-2.2c-0.8-4.4-1.8-8-2.1-11.7c-0.3-3.4,1.1-7.2,0.2-10.4c-2.3-8.5,2.4-11.6,9.1-14.2
			c6.6-2.5,12.8-5.8,20.3-9.3c-1.4-1.5-2.7-3.4-4.4-4.6c-4.4-3.1-6.1-10-3.8-16.9c1.3-4,2.5-8,4.1-11.9c1.2-3,3-5.8,4.3-8.8
			c1-2.4,4-4.8-0.2-7.6c-1.1-0.7-0.9-4.6-0.1-6.5c3.2-7,6.9-13.7,10.3-20.5c1.6-3.1,3-6.2,4.6-9.3C70.3,58.8,70,58.7,69.8,58.5z
			 M183.5,95.4c0.7,4.9,1.5,9.8,2.2,14.8c0.7-0.2,1.4-0.3,2.1-0.5c-1.5-4.7-2.9-9.5-4.4-14.2c-2.2-5.9-4.4-11.7-6.6-17.6
			c-0.7,0.3-1.3,0.6-2,0.8C177.7,84.3,180.6,89.9,183.5,95.4z M90.2,187.7c0.2,1.5,0.4,3,0.7,5.5c1.2-2.1,1.8-3.1,2.5-4.3
			c0.9,1.4,1.7,2.6,3.2,4.9c-0.4-4-0.6-6.5-0.8-9.6c-2.3,1.5-4,2.6-5.7,3.7c-1-0.7-2.1-1.5-4-2.8c-0.1-0.9-0.3-2.9-0.6-5
			c0.3,0,0.7,0,1-0.1c0.5,0.7,1,1.3,1.5,2c1.1-3,1.1-5.7,1.1-8.4c0-5.7-0.1-5.7,3.2-5.4c-3.8,3.4-0.3,6.2,1.1,8.6
			c0.8,1.4,3.9,1.5,6.8,2.5c0,0.1,0.5,1.5,1.2,3.4c0.6-1.5,1-2.4,1.4-3.4c1.3,1.6,2.3,2.9,3.8,4.8c0.5-4.6,1-8.1,1.4-12.2
			c-1.4,0.9-2,1.3-2.9,1.8c1-4.2,1.9-8.1,2.9-12.1c-0.5-0.1-1.1-0.2-1.6-0.4c-0.5,1.3-1,2.5-1.4,3.8c-0.5-0.1-0.9-0.2-1.4-0.3
			c0.6-5.1,1.3-10.3,1.9-15.4c0.6,0,1.2,0,1.9,0c0.6,2.3,2.1,4.9,1.5,6.7c-1.4,4,0.1,6.2,3.4,8.5c-0.7-2.1-1.3-3.8-1.9-5.5
			c3.3,3.6,3.3,3.6,1.3,12.7c-0.6-1.6-1.1-3.1-1.6-4.6c1.6,5.2-3.3,12,3.9,15.7c1.2-0.5,2.6-1.2,5.6-2.5c-2.5,5.1-9.2,7.6-4,13.2
			c0.1-2.2,0.2-4.3,0.3-6.5c0.7,0.1,1.3,0.2,2,0.4c-1,4.5-2.1,8.9-3.1,13.4c5.8-8.3,5.8-8.3,12-5c0.4,4.6,0.8,8.9,1.1,12.8
			c2.3-0.5,4.5-1,7.3-1.6c0.6-4.4,1.3-9.8,2-15.3c4.7-0.9,5.8-2.1,4.8-5.6c-0.7,0.8-1.3,1.5-2.3,2.7c-0.5-2.1-0.8-3.6-0.8-4
			c-1.3,1.8-3.1,3.6-4.1,5.8c-1.1,2.4-1.5,5.1-2.1,7.6c-1.6-3.9-3.1-7.5-4.4-11.2c-0.2-0.6,0.4-1.5,0.6-2.2c1.1,1.8,2.2,3.6,3.3,5.5
			c0.3-0.2,0.7-0.4,1-0.5c-0.6-1.5-1.2-3.1-1.3-3.5c1.3-1.2,3.1-2.3,3-2.8c-1.3-4.2-3-8.4-4.5-12.5c-0.4,0.1-0.9,0.3-1.3,0.4
			c0.4,1.8,0.5,3.7,1.3,5.3c1.5,3.3,1.1,6-1.6,8.4c-0.7-1.7-1.5-3.4-2.6-6c1.7,1.1,2.6,1.7,3.4,2.2c-1-4.7-2-9-3-13.6
			c3.8,1.2,6.3,1.5,4.7-4.2c-1.3-4.4-0.7-9.2-1-13.9c-0.6-0.2-1.2-0.3-1.8-0.5c-1.4,1.6-2.8,3.3-4.9,5.8c0.3-5.1,0.6-9.4,0.9-13.8
			c-0.9,0.1-2.3,0.2-3.2,0.3c-3.8-7.3-8.6-5.7-13.7-2.3c-0.3-0.8-0.6-1.6-1-2.5c-1.5,0.7-2.7,1.3-3.8,1.9c-0.3-0.3-0.5-0.7-0.8-1
			c0.8-0.9,1.6-1.9,2.5-2.8c-1.5-0.1-3.2-0.2-4.8-0.4c-1.5,2.1-2.8,4.2-4.6,6.8c0-2.8,0-4.7,0-7.6c-2.4,4.7-4.5,8.6-7.1,13.6
			c0-3,0-4.9,0-7.5c-1.4,2.1-2.6,3.7-3.5,5.4c-1.9,3.5-0.3,9.1-6.2,10.2c-0.4,0.1-0.7,1.1-0.8,1.7c-0.4,2.4-0.6,4.9-1.1,7.3
			c-1.3,5.7-2.3,11.7-9.5,14.5c1.7,1,3.1,1.7,3.7,2.1c0.4,2.4,0.8,4.4,1.1,6.3c-1.2,0.5-2.7,1-4.2,1.6c0.1,0.5,0.3,1,0.4,1.5
			c1.6-0.2,3.3-0.5,5.3-0.8c0.2,5.2-0.4,9.8-4.6,11.9c-0.4,4.1-0.6,7.5-1.2,10.7c-0.5,2.7,0.3,3.8,2.4,3.7
			c1.5-6.5,2.9-12.8,4.4-19.2c1,0.5,1.4,0.9,1.8,1c1.3,0.3,2.5,0.5,3.8,0.7c-0.4-1-1-2-1.1-3.1c-0.2-3.7-3.8-6.5-2.8-10.6
			c0.1-0.5-1.8-1.5-2.8-2.2c-0.4-0.3-0.8-0.3-2.5-1c2.9-0.8,4.2-1.2,4.8-1.3c3.2-8.6,6.1-16.5,9-24.4c0.1,0,0.3,0,0.4,0
			c-1.7,10.4-3.4,20.9-5.1,31.3c0.6,0.1,1.3,0.2,1.9,0.3c1.2-6.9,2.3-13.9,3.4-20.5c1.9,3.7,1.7,7.8,0.2,12.3c-1.3,3.8-1.4,8-2,12.1
			c0.5,0.3,1,0.6,1.5,0.9C86.6,190.8,88.4,189.2,90.2,187.7z M105.5,74.5c0.3,0.1,0.6,0.1,0.9,0.2c-0.2,1.3,0,2.7-0.5,3.8
			c-2.4,4.9-5.5,9.4-5.9,15.1c-0.3,3.8-0.6,7.6-0.2,11.4c0.1,1,2.3,2.2,3.7,2.5c1.4,0.3,3-0.5,4.3-0.7c0-9.4,0-18.6,0-26.4
			c2.4-0.6,4.9-0.5,5.9-1.7c3.3-3.7,7.2-4.2,11.8-4.1c5,0.1,10.1-0.6,15.9-1c4.2-6.4-3.4-5.9-6.5-8.3c0.8-0.4,1.5-0.7,2.4-1.1
			c-1.2-2.3-2.4-4.6-3.7-7.1c0.8-1.6,1.8-3.5,2.4-4.6c-1-2.9-2.2-5-2.3-7.2c-0.5-7.4-7.6-13.5-14.9-12.4c-6.2,0.9-12.3,1.1-18.7,0.7
			c-5.2-0.4-12,2.2-15.9,5.9c-6.1,5.7-9.1,13.8-8.7,22.8c0.4,7.6,0.1,15.2,0.1,23.3c1.9-5.5,3.7-10.7,5.5-16c2,6.8,3.5,7.4,10.7,4.6
			c-0.4-1-0.7-2-1.1-3c0.3-0.1,0.6-0.2,0.9-0.4c1.1,1.7,2.3,3.4,3.3,4.9c2.8,1.7,5.8,3.4,8.9,5.3C104,79,104.8,76.8,105.5,74.5z
			 M81.9,139.6c1.8-4.8,3.2-8.6,4.6-12.4c0-0.1,0.3-0.1,0.6-0.1c0.5,0.4,1.1,1,1.7,1.5c2.8-7.8,8.2-10.3,14.3-6.5
			c-0.6-1.5-1.2-2.8-1.9-4.5c-1.2,0.6-2.4,1.1-3.6,1.7c-0.6-1.1-1.2-2.1-2.1-3.7c-4.5,2.8-9,5.6-13.4,8.3c-3-7-5.7-13.4-8.9-20.9
			c-1.2,3.9-2,6.4-2.9,9.2c1.4,0.3,2.6,0.6,2.6,0.6c0.8,5.8,1.5,11,2.2,16.1c2-1.5,3.5-2.7,5-3.9c0.3,0.3,0.5,0.6,0.8,0.9
			c-1.1,1.5-2.3,4.4-3.3,4.4c-6.3-0.4-9.9,1.2-8,8.4c0,0.1-0.3,0.2-0.3,0.3c-1.9,3-3.8,6.1-5.7,9.2c0.3,0.2,0.6,0.3,0.9,0.5
			c1.9-2.3,3.8-4.6,5.7-7c0.2,0.2,0.4,0.4,0.7,0.6c-1.4,4-2.9,8-4.3,12c0.5,0.5,1.1,0.9,1.6,1.4c1.6-2.3,3.1-4.5,4.7-6.8
			c0.8,1.4,0.8,2.4,0.3,2.7c-4.3,3.3-7.1,7.5-8.4,12.8c-0.1,0.4-0.6,1-1,1c-4.7,0.2-2.1,3.8-2.4,6.1c1.9-2.6,3.8-5.2,6-8.1
			c1.3,1.5,2.5,3,4.7,5.5c0-5.2,0-9.4,0-12c3.7-2.6,6.3-4.4,8.8-6.2c-0.4-2.8-0.8-5.2-1.2-7.7c-0.9,0-1.7,0-3.2,0
			c1.4-2.7,2.5-4.9,4-7.9C81.2,137,81.4,137.9,81.9,139.6z M111.6,199.3c-4,6.5-4.1,6.4-10.8,10.4c-1.2,0.7-2.2,2.7-2.4,4.2
			c-0.8,10.5-1.5,21-2.1,31.5c-0.1,1.5,0.2,3,0.3,5c10.4-10.7,26.2-42.6,25-47.5c-1.6,1.3-4,3.2-7.2,5.9
			C113.2,204.8,112.5,202.4,111.6,199.3z M89.4,260c0.9,0.1,1.8,0.2,2.7,0.4c0.7-3.9,1.9-7.7,2-11.6c0.1-9.9-0.3-19.8-0.5-29.7
			c-0.1-2.6,0.4-7.1-0.5-7.5c-7.3-2.7-3.7-6.9-2-10.6c-2-2.2-3.8-4.2-5.7-6.3C77.9,217,86.6,238.3,89.4,260z M115.5,108.1
			c-1.8,3.6-1.8,3.6,4.3,8.4c1.6-1,3.1-1.9,4.7-2.9c-2.6-3.7-1.8-5.6,1.7-8.5c2.1-1.8,7.1-2.4,4.7-7c2.2-0.9,4.1-1.7,5.8-2.4
			c-3.5-1.3-6.9-2.5-10.2-3.7c0.1-0.4,0.2-0.7,0.3-1.1c1.7-0.1,3.5-0.3,5.2-0.4c0-0.2,0-0.3,0-0.5c-3.7-0.5-7.4-1-11.4-1.6
			c0.3-1.6,0.5-3.2,0.7-4.4c-2.7,0.6-5.2,1.2-8.1,1.9c0.2,3.5-4.5,6.9-2,11.7c-0.6,0.7-1.6,1.9-2.6,3.1c1.4,0.4,3.1,0.3,4,1.2
			c3.1,3.1,6,6.6,8.9,9.9c-0.4,0.3-0.8,0.7-1.1,1C118.9,111.3,117.4,109.9,115.5,108.1z M95.8,109.4c0.4,0,0.7-0.1,1.1-0.1
			c0.3-4.9,0.7-9.8,1-14.9c-0.8,0-1.6,0.1-2.5,0.1c0.7-2.6,1.2-5,1.8-7.3c-1.7,1.2-2.4,3-3.5,3.4c-2.3,0.8-4.8,0.8-7.2,1.2
			c-3.8,0.7-6.8,2.3-7.2,6.7c-0.6,6.7,4.3,10.1,7.9,14.6c2.6-3.3,4.7-6,7.5-9.5C95.2,106.4,95.5,107.9,95.8,109.4z M121.9,124.1
			c1.1,2.3,2.1,4.6,3.2,6.8c1-0.8,2-1.5,3.4-2.6c-2.2,9.4,9.4,13.3,8.2,22.2c0,0.3,0.6,0.9,1,1c2,0.5,4,0.9,6.2,1.4
			c-1.5-3.8-8.1-5-5.1-8.8c-2-2.8-3.3-5.9-5.6-7.5c-3.1-2.1-3.3-4.6-3.5-7.8c-0.2-3.4-5.8-7.5-9.4-8c-1.4-0.2-3.1-1.1-4-2.1
			c-3.8-4.6-3.8-4.7-10.7-3.3c2.5,2.3,4.1,6.3,8.4,2.4C114.1,124.8,117.6,125.7,121.9,124.1z M138.4,137.4c0.6-0.3,1.1-0.6,1.7-0.8
			c-1.1-1.9-2.3-3.8-3.6-6.1c7.6,1.5,2.8,9,6.7,12.5c-0.3-3.3-0.6-6.2-0.9-9.7c3.3,2,5.8,3.6,8.3,5.2c0.3-0.5,0.6-1,0.9-1.5
			c-4.4-3-8.9-6-13.3-9c-1.2,0.8-2.4,1.6-4,2.6C135.6,132.9,137,135.2,138.4,137.4z M65.4,72c2,3.8-5.7,7.5,1.4,11
			c1.3-3.6,2.4-6.7,3.6-9.9C68.9,72.7,67.7,72.5,65.4,72z M102.4,29.1c0.1,0.4,0.3,0.9,0.4,1.3c5.7-1.6,11.4-3.2,17.7-4.9
			C113.2,23.2,108,27.1,102.4,29.1z M95.5,126.1c0,0.5,0,0.9,0,1.4c5.4,0,10.8,0,16.2,0c0-0.5,0-0.9,0-1.4
			C106.3,126.1,100.9,126.1,95.5,126.1z M150.4,131.5c0.5-0.4,1.1-0.8,1.6-1.2c-4.3-3.6-3.8-11.1-12.8-12.6c1.6,1.9,2.3,3,3.3,3.8
			c0.8,0.7,2.2,1,2.8,1.8C147.1,126,148.7,128.8,150.4,131.5z M176.5,135.2c0.6-0.2,1.2-0.3,1.8-0.5c-1.5-5.3-3-10.6-4.5-16
			c-0.4,0.1-0.9,0.2-1.3,0.3C173.9,124.4,175.2,129.8,176.5,135.2z M67.4,198.8c1-1.2,2.1-2.4,3.3-3.7c-2.1-1.3-3.6-2.2-5.2-3.3
			c-0.7,1.3-1.3,2.4-1.9,3.4C64.8,196.4,65.9,197.4,67.4,198.8z M62.6,176.1c6.9-4.5,6.9-4.5,4.8-8
			C65.8,170.9,64.2,173.5,62.6,176.1z M79.9,85c3.6-1.4,7.6-3,12.4-4.9C86.6,80.3,81.2,78.8,79.9,85z M154.5,168.4
			c0.6-0.5,1.3-1,1.9-1.4c-2-2.3-4.1-4.7-6.1-7c-0.4,0.3-0.8,0.7-1.3,1C150.9,163.4,152.7,165.9,154.5,168.4z"/>
		<path fill="#FFFFFF" d="M105.5,74.5c-0.7,2.3-1.5,4.5-2.1,6.4c-3.1-1.9-6.1-3.6-8.9-5.3c-1-1.5-2.1-3.2-3.3-4.9
			c-0.3,0.1-0.6,0.2-0.9,0.4c0.4,1,0.7,2,1.1,3c-7.2,2.8-8.7,2.2-10.7-4.6c-1.8,5.2-3.6,10.5-5.5,16c0-8.1,0.3-15.7-0.1-23.3
			c-0.4-9,2.6-17,8.7-22.8c3.9-3.7,10.6-6.3,15.9-5.9c6.4,0.5,12.5,0.2,18.7-0.7c7.3-1.1,14.4,5,14.9,12.4c0.1,2.2,1.4,4.3,2.3,7.2
			c-0.6,1.1-1.6,3-2.4,4.6c1.3,2.5,2.5,4.8,3.7,7.1c-0.9,0.4-1.6,0.7-2.4,1.1c3.2,2.4,10.7,1.9,6.5,8.3c-5.8,0.4-10.9,1.1-15.9,1
			c-4.6-0.1-8.5,0.4-11.8,4.1c-1,1.1-3.4,1-5.9,1.7c0,7.8,0,17,0,26.4c-1.3,0.3-2.9,1-4.3,0.7c-1.4-0.3-3.6-1.5-3.7-2.5
			c-0.3-3.8,0-7.6,0.2-11.4c0.4-5.6,3.6-10.2,5.9-15.1c0.5-1.1,0.4-2.5,0.5-3.8C106.1,74.6,105.8,74.6,105.5,74.5z"/>
		<path fill="#FFFFFF" d="M128.9,185.1c-0.2,0.7-0.8,1.6-0.6,2.2c1.4,3.7,2.9,7.3,4.4,11.2c0.7-2.5,1-5.3,2.1-7.6
			c1-2.2,2.8-4,4.1-5.8c0.1,0.4,0.4,1.8,0.8,4c1-1.1,1.6-1.9,2.3-2.7c1,3.6-0.1,4.8-4.8,5.6c-0.7,5.5-1.5,10.9-2,15.3
			c-2.8,0.6-5,1.1-7.3,1.6c-0.3-3.9-0.7-8.2-1.1-12.8c-6.2-3.4-6.2-3.4-12,5c1-4.5,2.1-8.9,3.1-13.4c-0.7-0.1-1.3-0.2-2-0.4
			c-0.1,2.2-0.2,4.3-0.3,6.5c-5.2-5.6,1.5-8.1,4-13.2c-3,1.3-4.4,1.9-5.6,2.5c-7.2-3.6-2.3-10.5-3.9-15.7c0.5,1.5,1.1,2.9,1.6,4.6
			c2.1-9.1,2.1-9.1-1.3-12.7c0.6,1.7,1.2,3.4,1.9,5.5c-3.3-2.4-4.8-4.5-3.4-8.5c0.6-1.8-0.9-4.5-1.5-6.7c-0.6,0-1.2,0-1.9,0
			c-0.6,5.1-1.3,10.3-1.9,15.4c0.5,0.1,0.9,0.2,1.4,0.3c0.5-1.3,1-2.5,1.4-3.8c0.5,0.1,1.1,0.2,1.6,0.4c-0.9,3.9-1.9,7.9-2.9,12.1
			c0.9-0.6,1.5-1,2.9-1.8c-0.5,4.1-0.9,7.6-1.4,12.2c-1.5-1.9-2.5-3.2-3.8-4.8c-0.4,1-0.8,1.9-1.4,3.4c-0.7-1.9-1.1-3.3-1.2-3.4
			c-2.9-1-6-1.1-6.8-2.5c-1.4-2.4-4.9-5.2-1.1-8.6c-3.3-0.4-3.3-0.4-3.2,5.4c0,2.7,0,5.4-1.1,8.4c-0.5-0.7-1-1.3-1.5-2
			c-0.3,0-0.7,0-1,0.1c0.2,2,0.5,4.1,0.6,5c1.9,1.3,2.9,2,4,2.8l0.2-0.2c-1.8,1.5-3.6,3-5.4,4.6c-0.5-0.3-1-0.6-1.5-0.9
			c0.6-4,0.7-8.2,2-12.1c1.5-4.5,1.6-8.6-0.2-12.3c-1.1,6.6-2.3,13.5-3.4,20.5c-0.6-0.1-1.3-0.2-1.9-0.3c1.7-10.4,3.4-20.9,5.1-31.3
			c-0.1,0-0.3,0-0.4,0c-2.9,7.9-5.9,15.8-9,24.4c-0.6,0.2-1.9,0.5-4.8,1.3c1.6,0.6,2.1,0.7,2.5,1c1,0.7,2.9,1.7,2.8,2.2
			c-1.1,4.1,2.6,6.9,2.8,10.6c0.1,1,0.7,2.1,1.1,3.1c-1.3-0.2-2.5-0.4-3.8-0.7c-0.5-0.1-0.9-0.4-1.8-1c-1.5,6.5-2.9,12.7-4.4,19.2
			c-2.1,0-2.9-1-2.4-3.7c0.6-3.3,0.8-6.6,1.2-10.7c4.2-2.1,4.8-6.7,4.6-11.9c-2,0.3-3.7,0.5-5.3,0.8c-0.1-0.5-0.3-1-0.4-1.5
			c1.5-0.6,3-1.2,4.2-1.6c-0.3-2-0.7-3.9-1.1-6.3c-0.7-0.4-2-1.1-3.7-2.1c7.3-2.8,8.2-8.8,9.5-14.5c0.5-2.4,0.7-4.9,1.1-7.3
			c0.1-0.6,0.4-1.6,0.8-1.7c5.9-1.1,4.3-6.7,6.2-10.2c0.9-1.7,2.1-3.3,3.5-5.4c0,2.5,0,4.4,0,7.5c2.6-5.1,4.7-9,7.1-13.6
			c0,2.9,0,4.9,0,7.6c1.8-2.6,3.2-4.7,4.6-6.8c1.6,0.1,3.3,0.3,4.8,0.4c-0.8,0.9-1.6,1.9-2.5,2.8c0.3,0.3,0.5,0.7,0.8,1
			c1.2-0.6,2.4-1.2,3.8-1.9c0.3,0.8,0.7,1.7,1,2.5c5.1-3.4,9.9-5,13.7,2.3c1-0.1,2.3-0.2,3.2-0.3c-0.3,4.4-0.6,8.7-0.9,13.8
			c2.1-2.5,3.5-4.1,4.9-5.8c0.6,0.2,1.2,0.3,1.8,0.5c0.3,4.6-0.3,9.5,1,13.9c1.6,5.7-0.9,5.4-4.7,4.2c1,4.6,2,8.9,3,13.6
			c-0.9-0.6-1.7-1.1-3.4-2.2c1.1,2.6,1.8,4.3,2.6,6L128.9,185.1z M115.2,179.7c4.3-4.9,1-7.6-2.4-10.2
			C113.5,172.8,114.3,176,115.2,179.7z"/>
		<path fill="#FFFFFF" d="M81.9,139.6c-0.5-1.7-0.7-2.6-1.3-4.5c-1.5,3-2.6,5.2-4,7.9c1.5,0,2.3,0,3.2,0c0.4,2.5,0.8,4.9,1.2,7.7
			c-2.5,1.8-5.2,3.6-8.8,6.2c0,2.5,0,6.8,0,12c-2.2-2.5-3.4-4-4.7-5.5c-2.2,2.9-4.1,5.5-6,8.1c0.3-2.4-2.2-6,2.4-6.1
			c0.4,0,0.9-0.6,1-1c1.3-5.3,4.1-9.5,8.4-12.8c0.4-0.3,0.4-1.3-0.3-2.7c-1.6,2.3-3.1,4.5-4.7,6.8c-0.5-0.5-1.1-0.9-1.6-1.4
			c1.4-4,2.9-8,4.3-12c-0.2-0.2-0.4-0.4-0.7-0.6c-1.9,2.3-3.8,4.6-5.7,7c-0.3-0.2-0.6-0.3-0.9-0.5c1.9-3.1,3.8-6.1,5.7-9.2
			c0.1-0.1,0.4-0.3,0.3-0.3c-1.9-7.2,1.7-8.8,8-8.4c1,0.1,2.2-2.9,3.3-4.4c-0.3-0.3-0.5-0.6-0.8-0.9c-1.5,1.2-3.1,2.4-5,3.9
			c-0.7-5.1-1.4-10.3-2.2-16.1c0,0-1.2-0.3-2.6-0.6c0.9-2.8,1.7-5.4,2.9-9.2c3.2,7.6,5.9,14,8.9,20.9c4.4-2.7,8.8-5.5,13.4-8.3
			c0.9,1.6,1.5,2.6,2.1,3.7c1.2-0.5,2.4-1.1,3.6-1.7c0.7,1.6,1.3,3,1.9,4.5c-6.1-3.9-11.4-1.4-14.3,6.5c-0.6-0.5-1.2-1-1.7-1.5
			c-0.3,0.1-0.6,0.1-0.6,0.1C85.1,131,83.7,134.8,81.9,139.6z"/>
		<path fill="#FFFFFF" d="M111.6,199.3c0.9,3.1,1.7,5.6,2.9,9.5c3.2-2.6,5.6-4.6,7.2-5.9c1.1,4.9-14.6,36.8-25,47.5
			c-0.1-1.9-0.4-3.5-0.3-5c0.6-10.5,1.2-21,2.1-31.5c0.1-1.5,1.1-3.5,2.4-4.2C107.5,205.7,107.6,205.8,111.6,199.3z"/>
		<path fill="#FFFFFF" d="M89.4,260c-2.8-21.7-11.5-43-4-65.4c1.9,2.1,3.7,4.1,5.7,6.3c-1.8,3.8-5.4,7.9,2,10.6
			c1,0.4,0.5,4.9,0.5,7.5c0.2,9.9,0.6,19.8,0.5,29.7c0,3.9-1.3,7.7-2,11.6C91.2,260.2,90.3,260.1,89.4,260z"/>
		<path fill="#FFFFFF" d="M115.5,108.1c1.9,1.8,3.4,3.2,4.9,4.6c0.4-0.3,0.8-0.7,1.1-1c-3-3.3-5.8-6.8-8.9-9.9
			c-0.9-0.9-2.6-0.8-4-1.2c1-1.2,2-2.4,2.6-3.1c-2.5-4.8,2.1-8.2,2-11.7c3-0.7,5.4-1.3,8.1-1.9c-0.2,1.3-0.5,2.9-0.7,4.4
			c4,0.6,7.7,1.1,11.4,1.6c0,0.2,0,0.3,0,0.5c-1.7,0.1-3.5,0.3-5.2,0.4c-0.1,0.4-0.2,0.7-0.3,1.1c3.3,1.2,6.6,2.4,10.2,3.7
			c-1.7,0.7-3.6,1.5-5.8,2.4c2.4,4.6-2.6,5.2-4.7,7c-3.5,3-4.3,4.8-1.7,8.5c-1.5,0.9-3.1,1.9-4.7,2.9
			C113.7,111.7,113.7,111.7,115.5,108.1z"/>
		<path fill="#FFFFFF" d="M95.8,109.4c-0.3-1.5-0.6-3-1.2-5.9c-2.8,3.5-4.9,6.2-7.5,9.5c-3.6-4.5-8.5-7.9-7.9-14.6
			c0.4-4.5,3.4-6,7.2-6.7c2.4-0.4,4.9-0.4,7.2-1.2c1.1-0.4,1.8-2.2,3.5-3.4c-0.6,2.4-1.2,4.7-1.8,7.3c0.9,0,1.7-0.1,2.5-0.1
			c-0.4,5.1-0.7,10-1,14.9C96.5,109.4,96.2,109.4,95.8,109.4z"/>
		<path fill="#FFFFFF" d="M121.9,124.1c-4.3,1.6-7.8,0.7-7.9-6.2c-4.3,3.9-5.9-0.1-8.4-2.4c6.8-1.5,6.9-1.4,10.7,3.3
			c0.9,1.1,2.6,1.9,4,2.1c3.7,0.5,9.2,4.6,9.4,8c0.2,3.2,0.4,5.7,3.5,7.8c2.3,1.6,3.6,4.7,5.6,7.5c-3,3.8,3.6,5,5.1,8.8
			c-2.1-0.5-4.2-0.9-6.2-1.4c-0.4-0.1-1.1-0.7-1-1c1.2-8.9-10.5-12.8-8.2-22.2c-1.4,1.1-2.4,1.8-3.4,2.6
			C124.1,128.7,123,126.4,121.9,124.1z"/>
		<path fill="#FFFFFF" d="M138.4,137.4c-1.4-2.3-2.8-4.5-4.2-6.7c1.6-1,2.8-1.8,4-2.6c4.4,3,8.8,6,13.3,9c-0.3,0.5-0.6,1-0.9,1.5
			c-2.5-1.6-5.1-3.1-8.3-5.2c0.3,3.4,0.6,6.3,0.9,9.7c-3.9-3.5,0.9-11-6.7-12.5c1.4,2.3,2.5,4.2,3.6,6.1
			C139.5,136.9,139,137.2,138.4,137.4z"/>
		<path fill="#FFFFFF" d="M128.8,185.2c2.7-2.4,3.2-5.1,1.6-8.4c-0.7-1.6-0.9-3.5-1.3-5.3c0.4-0.1,0.9-0.3,1.3-0.4
			c1.5,4.2,3.2,8.3,4.5,12.5c0.2,0.5-1.7,1.6-3,2.8c0.1,0.4,0.7,1.9,1.3,3.5c-0.3,0.2-0.7,0.4-1,0.5c-1.1-1.8-2.2-3.6-3.4-5.5
			C128.9,185.1,128.8,185.2,128.8,185.2z"/>
		<path fill="#FFFFFF" d="M65.4,72c2.3,0.5,3.5,0.7,5,1c-1.2,3.3-2.3,6.3-3.6,9.9C59.7,79.5,67.5,75.8,65.4,72z"/>
		<path fill="#FFFFFF" d="M102.4,29.1c5.6-1.9,10.8-5.9,18.1-3.6c-6.3,1.8-12,3.4-17.7,4.9C102.6,30,102.5,29.5,102.4,29.1z"/>
		<path fill="#FFFFFF" d="M95.5,126.1c5.4,0,10.8,0,16.2,0c0,0.5,0,0.9,0,1.4c-5.4,0-10.8,0-16.2,0C95.5,127,95.5,126.5,95.5,126.1z
			"/>
		<path fill="#FFFFFF" d="M150.4,131.5c-1.7-2.7-3.3-5.5-5.1-8.2c-0.6-0.8-2-1.1-2.8-1.8c-0.9-0.8-1.7-1.9-3.3-3.8
			c9,1.5,8.4,9,12.8,12.6C151.5,130.8,150.9,131.1,150.4,131.5z"/>
		<path fill="#FFFFFF" d="M176.5,135.2c-1.3-5.4-2.7-10.7-4-16.1c0.4-0.1,0.9-0.2,1.3-0.3c1.5,5.3,3,10.6,4.5,16
			C177.8,134.9,177.1,135,176.5,135.2z"/>
		<path fill="#FFFFFF" d="M90.1,187.9c1.7-1.1,3.4-2.2,5.7-3.7c0.3,3,0.5,5.5,0.8,9.6c-1.5-2.3-2.3-3.5-3.2-4.9
			c-0.7,1.2-1.3,2.2-2.5,4.3c-0.3-2.4-0.5-3.9-0.7-5.5C90.2,187.7,90.1,187.9,90.1,187.9z"/>
		<path fill="#FFFFFF" d="M183.5,95.4c-2.9-5.5-5.8-11.1-8.7-16.6c0.7-0.3,1.3-0.6,2-0.8c2.2,5.9,4.4,11.7,6.6,17.6
			C183.4,95.5,183.5,95.4,183.5,95.4z"/>
		<path fill="#FFFFFF" d="M67.4,198.8c-1.5-1.4-2.6-2.4-3.9-3.5c0.6-1.1,1.2-2.1,1.9-3.4c1.7,1.1,3.2,2,5.2,3.3
			C69.5,196.4,68.4,197.7,67.4,198.8z"/>
		<path fill="#FFFFFF" d="M62.6,176.1c1.6-2.6,3.2-5.3,4.8-8C69.6,171.6,69.6,171.6,62.6,176.1z"/>
		<path fill="#FFFFFF" d="M79.9,85c1.3-6.3,6.7-4.8,12.4-4.9C87.5,82.1,83.5,83.6,79.9,85z"/>
		<path fill="#FFFFFF" d="M154.5,168.4c-1.8-2.5-3.6-5-5.5-7.4c0.4-0.3,0.8-0.7,1.3-1c2,2.3,4.1,4.7,6.1,7
			C155.8,167.4,155.1,167.9,154.5,168.4z"/>
		<path fill="#FFFFFF" d="M183.4,95.5c1.5,4.7,2.9,9.5,4.4,14.2c-0.7,0.2-1.4,0.3-2.1,0.5c-0.7-4.9-1.5-9.8-2.2-14.8
			C183.5,95.4,183.4,95.5,183.4,95.5z"/>
		<path d="M115.2,179.7c-0.9-3.8-1.6-7-2.4-10.2C116.2,172.2,119.5,174.8,115.2,179.7z"/>
	</g>
</g>
<g id="Layer_2">
	<ellipse fill="none" stroke="#5E0400" stroke-width="3" stroke-miterlimit="10" cx="111.4" cy="152.1" rx="109.9" ry="150.6"/>
</g>
</svg>
