<?xml version="1.0" encoding="utf-8"?>
<!-- Generator: Adobe Illustrator 18.0.0, SVG Export Plug-In . SVG Version: 6.00 Build 0)  -->
<!DOCTYPE svg PUBLIC "-//W3C//DTD SVG 1.1//EN" "http://www.w3.org/Graphics/SVG/1.1/DTD/svg11.dtd">
<svg version="1.1" xmlns="http://www.w3.org/2000/svg" xmlns:xlink="http://www.w3.org/1999/xlink" x="0px" y="0px"
	 viewBox="0 0 1298.6 1155.4" enable-background="new 0 0 1298.6 1155.4" xml:space="preserve">
<g id="Layer_3_copy_5">
</g>
<g id="Layer_3_copy_4">
	<rect x="40" y="1021.8" opacity="0.25" fill="#848484" enable-background="new    " width="1217" height="2"/>
	<rect x="40" y="1035.9" opacity="0.25" fill="#848484" enable-background="new    " width="1217" height="2"/>
	<rect x="40" y="1049.9" opacity="0.25" fill="#848484" enable-background="new    " width="1217" height="2"/>
	<rect x="40" y="1063.9" opacity="0.25" fill="#848484" enable-background="new    " width="1217" height="2"/>
	<rect x="40" y="1077.9" opacity="0.25" fill="#848484" enable-background="new    " width="1217" height="2"/>
</g>
<g id="Layer_3_copy_3">
	<rect x="40" y="808.2" opacity="0.25" fill="#848484" enable-background="new    " width="1217" height="2"/>
	<rect x="40" y="822.3" opacity="0.25" fill="#848484" enable-background="new    " width="1217" height="2"/>
	<rect x="40" y="836.3" opacity="0.25" fill="#848484" enable-background="new    " width="1217" height="2"/>
	<rect x="40" y="850.3" opacity="0.25" fill="#848484" enable-background="new    " width="1217" height="2"/>
	<rect x="40" y="864.3" opacity="0.25" fill="#848484" enable-background="new    " width="1217" height="2"/>
</g>
<g id="Layer_3_copy_2">
	<rect x="40" y="548.1" opacity="0.25" fill="#848484" enable-background="new    " width="1217" height="2"/>
	<rect x="40" y="562.2" opacity="0.25" fill="#848484" enable-background="new    " width="1217" height="2"/>
	<rect x="40" y="576.2" opacity="0.25" fill="#848484" enable-background="new    " width="1217" height="2"/>
	<rect x="40" y="590.3" opacity="0.25" fill="#848484" enable-background="new    " width="1217" height="2"/>
	<rect x="40" y="604.3" opacity="0.25" fill="#848484" enable-background="new    " width="1217" height="2"/>
</g>
<g id="Layer_3_copy">
	<rect x="40" y="335.1" opacity="0.25" fill="#848484" enable-background="new    " width="1217" height="2"/>
	<rect x="40" y="349.2" opacity="0.25" fill="#848484" enable-background="new    " width="1217" height="2"/>
	<rect x="40" y="363.2" opacity="0.25" fill="#848484" enable-background="new    " width="1217" height="2"/>
	<rect x="40" y="377.2" opacity="0.25" fill="#848484" enable-background="new    " width="1217" height="2"/>
	<rect x="40" y="391.3" opacity="0.25" fill="#848484" enable-background="new    " width="1217" height="2"/>
</g>
<g id="Layer_3">
	<rect x="40" y="175.4" opacity="0.25" fill="#848484" enable-background="new    " width="1217" height="2"/>
	<rect x="40" y="189.5" opacity="0.25" fill="#848484" enable-background="new    " width="1217" height="2"/>
	<rect x="40" y="203.5" opacity="0.25" fill="#848484" enable-background="new    " width="1217" height="2"/>
	<rect x="40" y="217.6" opacity="0.25" fill="#848484" enable-background="new    " width="1217" height="2"/>
	<rect x="40" y="231.6" opacity="0.25" fill="#848484" enable-background="new    " width="1217" height="2"/>
</g>
<g id="areas">
	<g id="e6_2_">
		<g id="g3621_2_" transform="scale(2.9811212,2.9811212)">
			<path id="path2818_2_" sodipodi:nodetypes="cccccccccccsscccsssssssssssssssssssssssssscccccc" fill="#010101" d="M269.9,68.6
				v-9.8h1.1h1.1v9.8v9.8h-1.1h-1.1V68.6L269.9,68.6z M273,58.9l0.8,0l0,4.7c0,2.9,0.1,4.7,0.2,4.7c0.3,0,1.2-1.4,1.7-2.7l0.5-1.1
				l0.4,0.9c0.5,1.1,1.2,1.6,2,1.5c1-0.1,1.4-0.8,1.5-2.9c0.1-3-0.4-4.2-2-4.4c-1.1-0.1-1.6,0.2-1.3,0.7c0.1,0.2,0.3,0.6,0.5,0.8
				c0.2,0.4,0.2,0.5-0.1,1c-0.5,0.7-1.2,0.8-1.8,0.2c-0.7-0.6-0.6-1.4,0.1-2.3c1.6-1.8,4.8-1.4,6.3,0.9c0.5,0.7,0.5,1,0.5,2.3
				c0,1.6-0.3,2.4-1.2,3.3c-0.7,0.7-2,1-3.2,0.8c-1-0.1-1-0.1-1.4,0.5c-0.4,0.6-0.4,0.7,0,1.4c0.4,0.7,0.4,0.7,1.9,0.7
				c1.4,0,1.6,0.1,2.3,0.6c2.5,1.9,2.1,6.2-0.8,7.5c-2.1,1-5.1-0.2-5.1-2c0-0.7,0.6-1.4,1.3-1.4c0.6,0,1.3,0.6,1.3,1.1
				c0,0.2-0.2,0.6-0.4,0.9c-0.5,0.7-0.2,1.2,0.7,1.2c0.9,0,1.8-0.8,2.1-1.8c0.3-0.9,0.3-3.3,0-4.3c-0.5-1.9-2.7-1.8-3.4,0.1
				c-0.2,0.7-0.6,0.9-0.6,0.4c0-0.5-1.2-2.6-1.7-3.1l-0.5-0.5l0,5.2l0,4.5H273V58.9L273,58.9z"/>
		</g>
	</g>
	<g id="e4_2_">
		<g id="g3614_2_" transform="matrix(3,0,0,3,15,-150)">
			<path id="path2820_2_" sodipodi:nodetypes="cssssssssssc" fill="#010101" d="M143,123.4c0-0.2,0.8-0.8,1.7-1.4
				c2-1.4,3.4-2.8,4.3-4.4c1.9-3.6,1.3-7.3-1.2-7.7c-1.4-0.2-3.2,0.8-3.2,1.8c0,0.4,0.1,0.4,1.1,0.4c1.3-0.1,2.1,1.2,1.4,2.1
				c-1.1,1.4-3.7,0.6-3.7-1.1c0-1.5,0.9-2.7,2.6-3.4c3.5-1.3,6.8,1.1,6.5,4.7c-0.2,3-2.8,5.8-7.9,8.4
				C143.4,123.4,143,123.6,143,123.4L143,123.4z"/>
			
				<path id="path3598_2_" sodipodi:type="arc" sodipodi:ry="6.875" sodipodi:rx="6.5625" sodipodi:cx="128.4375" sodipodi:cy="65.625" fill="#010101" d="
				M155.3,111.9c0,0.6-0.5,1.1-1,1.1c-0.6,0-1-0.5-1-1.1c0-0.6,0.5-1.1,1-1.1C154.9,110.8,155.3,111.2,155.3,111.9z"/>
			
				<path id="path3600_2_" sodipodi:type="arc" sodipodi:ry="6.875" sodipodi:rx="6.5625" sodipodi:cx="128.4375" sodipodi:cy="65.625" fill="#010101" d="
				M155.4,115.6c0,0.6-0.5,1.1-1,1.1c-0.6,0-1-0.5-1-1.1s0.5-1.1,1-1.1C154.9,114.5,155.4,115,155.4,115.6z"/>
		</g>
	</g>
	<path id="e7_2_" fill="#010101" d="M1166.4,204.5v-14.9h4.2h4.2v14.9v14.9h-4.2h-4.2V204.5L1166.4,204.5z M1183.7,204.5v-14.9h4.2
		h4.2v14.9v14.9h-4.2h-4.2V204.5L1183.7,204.5z"/>
	<path id="e1_1_" fill="#010101" d="M105.5,211.6c-1.5,0.5-2.8,1.3-3.7,2.5c-1,1.2-1.6,2.5-1.8,3.8c-0.2,1.4,0,2.8,0.5,4.1
		c0.6,1.4,1.6,2.5,3.2,3.3c0.4,0,0.6,0.2,0.7,0.5c0.1,0.3,0,0.5-0.4,0.5c-1.5-0.3-2.8-0.9-4-1.9c-2.1-1.8-3.3-4-3.5-6.8
		c-0.1-1.4,0-2.7,0.4-4c0.4-1.3,0.9-2.5,1.6-3.6c0.8-1.1,1.8-2.1,3-3c0.1-0.1,0.2-0.2,0.5-0.4c0.3-0.2,0.6-0.4,0.9-0.6
		c0.3-0.2,0.7-0.5,1.2-0.9l-1.7-8.2c-1.5,1.3-3,2.7-4.5,4.2c-1.5,1.5-2.8,3.1-4,4.8c-1.2,1.7-2.2,3.5-2.9,5.4
		c-0.7,1.9-1.1,3.9-1.1,6c0,1.9,0.4,3.8,1.2,5.5c0.8,1.7,1.9,3.2,3.3,4.5c1.4,1.3,2.9,2.3,4.7,3c1.8,0.7,3.6,1.1,5.4,1.1
		c0.1,0,0.3,0,0.9-0.1c0.5-0.1,1-0.1,1.6-0.2c0.6-0.1,1.1-0.2,1.6-0.3c0.5-0.1,0.7-0.2,0.7-0.3L109,229
		C107.8,222.9,106.6,217.1,105.5,211.6z M107.2,211.4l3.8,18.4c2.2-0.8,3.7-2.3,4.4-4.3c0.8-2,0.9-4.1,0.5-6.2
		c-0.4-2.1-1.4-3.9-2.9-5.5C111.4,212.2,109.5,211.4,107.2,211.4z M102.3,186.6c1-0.5,1.8-1.2,2.7-2.2c0.8-1,1.6-2,2.3-3.2
		c0.7-1.1,1.3-2.3,1.8-3.4c0.5-1.2,0.9-2.2,1.2-3.2c0.3-1,0.6-2.2,0.7-3.4c0.1-1.3-0.1-2.3-0.6-3.2c-0.4-0.8-0.9-1.2-1.5-1.3
		c-0.6-0.1-1.2-0.1-1.8,0.1c-0.6,0.2-1.2,0.6-1.7,1c-0.5,0.5-0.9,0.9-1.2,1.3c-0.7,1.2-1.3,2.5-1.8,4c-0.5,1.5-0.9,3-1,4.6
		c-0.2,1.6-0.2,3.1-0.1,4.6C101.4,183.8,101.8,185.2,102.3,186.6z M100.9,188c-0.5-2-1-4-1.4-6c-0.4-2-0.6-4-0.6-6
		c0-1.5,0.1-3.2,0.3-5c0.2-1.8,0.6-3.6,1.2-5.3s1.4-3.2,2.4-4.6c1-1.4,2.3-2.3,4-3c0.2-0.1,0.3-0.1,0.5-0.1c0.2,0,0.5,0.1,0.8,0.4
		c0.3,0.2,0.6,0.6,0.9,1.1c0.3,0.5,0.6,1,0.9,1.5c0.2,0.5,0.4,0.9,0.6,1c0.8,1.6,1.4,3.2,1.8,5c0.4,1.8,0.6,3.5,0.7,5.3
		c0.1,2.7,0,5.3-0.4,7.9c-0.4,2.6-1.3,5.1-2.5,7.6c-0.4,0.7-0.9,1.5-1.3,2.2c-0.4,0.8-1,1.5-1.6,2.2c-0.1,0.1-0.3,0.3-0.7,0.7
		c-0.3,0.3-0.7,0.7-1,1c-0.3,0.3-0.6,0.7-0.9,0.9c-0.3,0.3-0.4,0.5-0.4,0.5l1.9,9.3c0,0.1,0.9,0,0.9,0c1.8,0,3.7,0.3,5.4,1
		c1.6,0.7,3,1.8,4.1,3.1c1.2,1.3,2.1,2.8,2.8,4.4c0.7,1.6,1,3.3,1,4.9c0,1.7-0.2,3.4-0.7,5.1c-1.3,3.3-3.3,5.7-6.1,7.3
		c-0.3,0.2-0.7,0.4-1.3,0.6c-0.6,0.2-0.8,0.6-0.7,1.1c0.7,3.4,1.2,5.7,1.5,6.9c0.3,1.3,0.5,2.9,0.6,4.9c0.1,1.9-0.2,3.6-1,5.2
		c-0.8,1.5-1.8,2.8-3.2,3.8c-1.3,1-2.5,1.5-3.6,1.7c-1.1,0.2-1.8,0.3-2.2,0.3c-1.4,0-2.7-0.3-4.1-0.8c-1.6-0.6-3-1.6-4.1-2.8
		c-1.1-1.3-1.7-2.8-1.7-4.6c0-1.1,0.3-2.3,1-3.5c0.7-1.2,1.5-2.1,2.6-2.6c1.2-0.6,2.3-0.8,3.3-0.5c1,0.3,1.8,0.8,2.4,1.6
		c0.6,0.8,1.1,1.7,1.3,2.8c0.2,1.1,0.2,2.1,0,3.1c-0.3,1-0.8,1.8-1.7,2.4c-0.8,0.7-2,1-3.5,0.9c0.6,1.1,1.5,1.8,2.6,2.1
		c1.1,0.3,2.3,0.3,3.4,0.1c1.2-0.2,2.3-0.7,3.3-1.4c1-0.7,1.8-1.4,2.4-2.1c0.4-0.6,0.6-1.3,0.8-2.2c0.2-0.9,0.3-1.8,0.3-2.8
		c0-1,0-1.7-0.1-2.3c-0.1-0.5-0.2-1.4-0.5-2.5c-0.9-3.7-1.5-6.1-1.8-7c-0.1-0.3-0.5-0.4-1-0.3c-0.5,0.1-1,0.2-1.4,0.3
		c-2.7,0.3-4.9,0.2-6.7-0.5c-2.8-0.7-5.2-2.1-7.3-4c-2.1-1.9-3.8-4.2-5.1-6.9c-1.3-2.7-1.9-4.8-1.9-6.2c0-1.4,0-2.3,0-2.7
		c0-2.5,0.4-4.8,1.3-7c1.6-3.4,3.6-6.6,5.8-9.4C95.5,193.2,98,190.5,100.9,188z"/>
	<g id="e8_1_">
		<rect x="1008.5" y="175.5" fill="#010101" width="8" height="58.1"/>
		<rect x="1003.2" y="175.5" fill="#010101" width="1.6" height="58.1"/>
		<circle fill="#010101" cx="995.8" cy="197.6" r="3.6"/>
		<circle fill="#010101" cx="995.8" cy="211.6" r="3.6"/>
	</g>
	<rect id="e3_2_" x="485.5" y="1021.8" fill="#010101" width="1.6" height="58.1"/>
	<rect x="40" y="175.4" fill="#010101" width="1.6" height="58.1"/>
	<g id="e9">
		<g>
			<rect x="793.4" y="1021.8" fill="#010101" width="1.6" height="58.1"/>
			<rect x="797.2" y="1021.8" fill="#010101" width="1.6" height="58.1"/>
		</g>
	</g>
	<path id="e2_1_" inkscape:connector-curvature="0" sodipodi:nodetypes="ccccccccccccccc" fill="#010101" d="M294,198.6
		c0-3.3-3.1-8.7-11.6-8.7c-6.2,0-12.4,7.5-12.4,14.1c0,8.4,4.7,15.6,12.7,15.6c9,0,11.3-7.5,11.3-11.2c-0.3,0-0.7,0-1,0
		c-0.5,3.1-3.5,9.4-8.7,9.4c-5.6,0-7.1-5-7.1-13.1c0-10.2,3.3-12.9,7.4-12.9c3.2,0,4.9,1.7,5.2,2.1c0.1,0.2,0.2,0.6,0,0.8
		c-2.4,0-5.2,1.7-5.2,5.1c0,2,1.4,4.3,4.6,4.3C291.5,204,294,202.2,294,198.6L294,198.6z"/>
	<g id="e5_2_">
		<path id="path3054_1_" fill="#010101" d="M654.5,198.8c0-3.2-3.1-8.5-11.3-8.5c-6.1,0-12.1,7.3-12.1,13.7
			c0,8.2,4.6,15.2,12.4,15.2c8.8,0,11-7.3,11-11c-0.3,0-0.7,0-1,0c-0.5,3.1-3.5,9.2-8.5,9.2c-5.5,0-6.9-4.9-6.9-12.8
			c0-10,3.3-12.6,7.2-12.6c3.1,0,4.8,1.7,5.1,2.1c0.1,0.2,0.2,0.5,0,0.8c-2.4,0-5.1,1.6-5.1,5c0,2,1.4,4.2,4.4,4.2
			C652.1,204.2,654.5,202.4,654.5,198.8L654.5,198.8z"/>
		<path id="path4546_2_" fill="#010101" d="M642.4,180.5h1.2l0,48h-1.2V180.5z"/>
	</g>
	<g>
		<g id="layer2" inkscape:label="note" inkscape:groupmode="layer">
			<g id="e10_1_" transform="matrix(2.2084033,0,0,1.8468318,-422.56928,74.339659)">
				<path id="path249" inkscape:connector-curvature="0" fill="#010101" d="M307,278.2v16.2h-0.7v-6.1l-4,1v-16.4h0.7v6.3L307,278.2
					z M303,282v4.5l3.2-0.9v-4.5L303,282z"/>
			</g>
			<path id="path11058" inkscape:connector-curvature="0" sodipodi:nodetypes="ccssscccc" fill="#010101" d="M273.6,548.4v44.2
				c-2.1-1.6-5.8-1.8-9.4-0.2c-4.6,2-7.1,6.2-5.7,9.4c1.4,3.1,6.2,4.1,10.8,2c0.3-0.1,0.6-0.3,0.9-0.4c3.5-1.9,5.6-5.1,5.2-7.9
				v-47.1H273.6z"/>
		</g>
	</g>
	<g>
		<g id="layer3" inkscape:label="note" inkscape:groupmode="layer">
			<g id="g3799">
				<path id="path11058_1_" inkscape:connector-curvature="0" sodipodi:nodetypes="ccssscccc" fill="#010101" d="M439.5,336.3v43.5
					c-2.1-1.6-5.7-1.8-9.2-0.2c-4.5,2-7,6.1-5.6,9.2c1.4,3.1,6.1,4,10.6,2c0.3-0.1,0.6-0.3,0.8-0.4c3.5-1.9,5.5-5,5.1-7.7v-46.3
					H439.5z"/>
				<path id="e11_1_" inkscape:connector-curvature="0" fill="#010101" d="M414,391v-9.9l4.1-1.2v9.9L414,391L414,391z M422.1,388.6
					l-2.8,0.8v-9.9l2.8-0.8v-4.1l-2.8,0.8v-10.1h-1.2v10.4L414,377v-9.8h-1.1v10.2l-2.8,0.8v4.1l2.8-0.8v9.8l-2.8,0.8v4.1l2.8-0.8
					v10h1.1v-10.4l4.1-1.2v9.7h1.2v-10.1l2.8-0.8V388.6z"/>
			</g>
		</g>
	</g>
	<g>
		<g id="layer3_1_" inkscape:label="note" inkscape:groupmode="layer">
			<path id="path11058_2_" inkscape:connector-curvature="0" sodipodi:nodetypes="ccssscccc" fill="#010101" d="M116.2,335.6v43.8
				c-2.1-1.6-5.8-1.8-9.3-0.2c-4.5,2-7.1,6.2-5.7,9.3c1.4,3.1,6.2,4,10.7,2c0.3-0.1,0.6-0.3,0.8-0.4c3.5-1.9,5.6-5.1,5.2-7.8v-46.7
				H116.2z"/>
			<path id="e12_1_" inkscape:connector-curvature="0" sodipodi:nodetypes="cccccccccccccscsccccc" fill="#010101" d="M88.4,357.7
				v18.1c0,0,0,1.2,0,3.7c1.6-1.6,3.4-2.4,5.5-2.4c1.3,0,2.3,0.6,3.2,1.7c0.8,1,1.2,2.2,1.2,3.4c0,1-0.2,2.1-0.7,3.4
				c-0.2,0.5-0.6,1.1-1.2,1.7c-0.5,0.5-1,0.9-1.5,1.4c-2.7,2.1-5.3,4.1-8,6.2v-37.3H88.4 M92.8,380.7c-0.4-0.5-1-0.8-1.7-0.8
				c-0.9,0-1.6,0.5-2.1,1.5c-0.4,0.8-0.6,2.7-0.6,5.7v4.9c0,0.2,1-0.8,3-2.8c1.1-1.1,1.8-2.3,2.1-3.8c0.1-0.6,0.2-1.1,0.2-1.7
				C93.7,382.5,93.4,381.5,92.8,380.7"/>
		</g>
	</g>
	<g>
		<g id="e13_1_" inkscape:label="notes" inkscape:groupmode="layer">
			<path id="text1412_1_" inkscape:connector-curvature="0" sodipodi:nodetypes="cccccccccccccscsccccc" fill="#010101" d="
				M837.9,358v18.1c0,0,0,1.2,0,3.7c1.6-1.6,3.4-2.4,5.4-2.4c1.3,0,2.3,0.6,3.2,1.7c0.8,1,1.2,2.2,1.2,3.4c0,1-0.2,2.1-0.7,3.4
				c-0.2,0.5-0.6,1.1-1.2,1.7c-0.5,0.5-1,0.9-1.5,1.4c-2.7,2.1-5.3,4.1-8,6.2V358H837.9 M842.3,381c-0.4-0.5-1-0.8-1.7-0.8
				c-0.9,0-1.6,0.5-2.1,1.5c-0.4,0.8-0.6,2.7-0.6,5.7v4.9c0,0.2,1-0.8,3-2.8c1.1-1.1,1.8-2.3,2.1-3.8c0.1-0.6,0.2-1.1,0.2-1.7
				C843.3,382.8,842.9,381.7,842.3,381"/>
			<path id="text1412-1" inkscape:connector-curvature="0" sodipodi:nodetypes="cccccccccccccscsccccc" fill="#010101" d="
				M824.4,358v18.1c0,0,0,1.2,0,3.7c1.6-1.6,3.4-2.4,5.4-2.4c1.3,0,2.3,0.6,3.2,1.7c0.8,1,1.2,2.2,1.2,3.4c0,1-0.2,2.1-0.7,3.4
				c-0.2,0.5-0.6,1.1-1.2,1.7c-0.5,0.5-1,0.9-1.5,1.4c-2.7,2.1-5.3,4.1-8,6.2V358H824.4 M828.8,381c-0.4-0.5-1-0.8-1.7-0.8
				c-0.9,0-1.6,0.5-2.1,1.5c-0.4,0.8-0.6,2.7-0.6,5.7v4.9c0,0.2,1-0.8,3-2.8c1.1-1.1,1.8-2.3,2.1-3.8c0.1-0.6,0.2-1.1,0.2-1.7
				C829.8,382.8,829.4,381.7,828.8,381"/>
		</g>
		<path id="path11058_4_" inkscape:connector-curvature="0" sodipodi:nodetypes="ccssscccc" fill="#010101" d="M865.9,336.3V380
			c-2.1-1.6-5.8-1.8-9.2-0.2c-4.5,2-7,6.2-5.6,9.3c1.4,3.1,6.2,4,10.7,2c0.3-0.1,0.6-0.3,0.8-0.4c3.5-1.9,5.6-5.1,5.1-7.8v-46.6
			H865.9z"/>
	</g>
	<g>
		<g id="layer2_1_" inkscape:label="notes" inkscape:groupmode="layer">
			<path id="path11058_3_" inkscape:connector-curvature="0" sodipodi:nodetypes="ccssscccc" fill="#010101" d="M1193.4,336.8v43.3
				c-2.1-1.6-5.7-1.8-9.2-0.2c-4.5,2-7,6.1-5.6,9.2s6.1,4,10.6,2c0.3-0.1,0.6-0.3,0.8-0.4c3.5-1.9,5.5-5,5.1-7.7v-46.2H1193.4z"/>
			<path id="e14_1_" inkscape:connector-curvature="0" fill="#010101" d="M1164.5,379.8c-0.1,0-0.2,0.1-0.2,0.2
				c-0.1,0.1-0.1,0.2-0.1,0.3c0,0.2,0.1,0.8,0.2,1.8c0.1,1,0.2,1.6,0.2,1.9c0.1,0.4,0.4,0.5,0.8,0.5c0.4,0,0.7,0,1.1,0.1
				c0.4,0.1,0.7,0.2,1,0.3c0.2,0.1,0.3,0.2,0.5,0.3c0.2,0.1,0.3,0.2,0.4,0.3l0.1,0.1l-0.2,0.1c-0.3,0.3-0.7,0.5-1.2,0.7
				c-0.5,0.2-1.1,0.3-1.8,0.3c-0.5,0-0.7,0.2-0.8,0.5c-0.1,0.3-0.1,0.9-0.2,1.9c-0.1,1-0.2,1.6-0.2,1.8c0,0.1,0.1,0.2,0.2,0.3
				c0.1,0.1,0.2,0.2,0.3,0.2c0.2,0,0.8-0.1,1.9-0.2c1-0.1,1.6-0.2,1.9-0.3c0.2-0.1,0.3-0.2,0.4-0.3c0.1-0.2,0.1-0.4,0.1-0.8
				c0-0.3,0.1-0.6,0.1-0.9s0.1-0.5,0.2-0.8c0.1-0.2,0.2-0.4,0.3-0.6c0.1-0.2,0.2-0.3,0.3-0.4l0.1-0.1l0.1,0.1
				c0.1,0.1,0.2,0.2,0.3,0.4c0.1,0.2,0.2,0.4,0.3,0.6c0.1,0.2,0.2,0.5,0.2,0.8c0.1,0.3,0.1,0.6,0.1,0.9c0,0.4,0,0.6,0.1,0.8
				c0.1,0.2,0.2,0.3,0.4,0.3c0.3,0.1,0.9,0.1,1.9,0.3c1,0.1,1.6,0.2,1.9,0.2c0.1,0,0.2-0.1,0.3-0.2s0.2-0.2,0.2-0.3
				c0-0.2-0.1-0.8-0.2-1.8c-0.1-1-0.2-1.7-0.2-1.9c-0.1-0.4-0.4-0.5-0.8-0.5c-0.4,0-0.7,0-1.1-0.1c-0.4-0.1-0.7-0.2-1-0.3
				c-0.2-0.1-0.3-0.2-0.5-0.3s-0.3-0.2-0.4-0.3l-0.1-0.1l0.2-0.1c0.3-0.3,0.7-0.5,1.2-0.7c0.5-0.2,1.1-0.3,1.8-0.3
				c0.5,0,0.7-0.2,0.8-0.5c0.1-0.3,0.1-0.9,0.2-1.9c0.1-1,0.2-1.6,0.2-1.8c0-0.1-0.1-0.2-0.2-0.3c-0.1-0.1-0.2-0.2-0.3-0.2
				c-0.2,0-0.8,0.1-1.9,0.2c-1,0.1-1.6,0.2-1.9,0.3c-0.2,0.1-0.3,0.2-0.4,0.3c-0.1,0.2-0.1,0.4-0.1,0.8c0,0.3-0.1,0.6-0.1,0.9
				c-0.1,0.3-0.1,0.5-0.2,0.8c-0.1,0.2-0.2,0.4-0.3,0.6c-0.1,0.2-0.2,0.3-0.3,0.4l-0.1,0.1l-0.1-0.1c-0.1-0.1-0.2-0.2-0.3-0.4
				c-0.1-0.2-0.2-0.4-0.3-0.6c-0.1-0.2-0.2-0.5-0.2-0.8c-0.1-0.3-0.1-0.6-0.1-0.9c0-0.4,0-0.6-0.1-0.8c-0.1-0.2-0.2-0.3-0.4-0.3
				c-0.2-0.1-0.8-0.1-1.8-0.3c-1-0.1-1.6-0.2-1.8-0.2C1164.7,379.7,1164.6,379.8,1164.5,379.8L1164.5,379.8L1164.5,379.8z"/>
		</g>
	</g>
	<g id="e20_2_">
		<g id="g3862_5_" transform="translate(-0.24707682,-46.942827)">
			<g id="g3193_3_">
				<g>
					
						<path id="path3185_2_" sodipodi:type="arc" sodipodi:ry="7.0356832" sodipodi:rx="6.7109594" sodipodi:cx="93.412224" sodipodi:cy="37.343243" fill="#010101" d="
						M102.3,615.4c0,2.2-1.8,4.1-4.1,4.1s-4.1-1.8-4.1-4.1c0,0,0,0,0,0c0-2.2,1.8-4.1,4.1-4.1C100.4,611.4,102.3,613.2,102.3,615.4
						C102.3,615.4,102.3,615.4,102.3,615.4z"/>
					<path fill="#010101" d="M98.2,619.8L98.2,619.8c-2.4,0-4.4-2-4.4-4.4c0-2.4,2-4.4,4.4-4.4c2.4,0,4.4,2,4.4,4.4
						c0,1.2-0.5,2.3-1.3,3.1C100.5,619.3,99.4,619.8,98.2,619.8z M98.2,611.6c-2.1,0-3.8,1.7-3.8,3.8c0,2.1,1.7,3.8,3.8,3.8v0.3
						l0-0.3c1,0,2-0.4,2.7-1.1s1.1-1.7,1.1-2.7C102,613.3,100.3,611.6,98.2,611.6z"/>
				</g>
				<path fill="#010101" d="M102.3,636.7l-1.7-0.1c0-0.5,2.3-8.6,6.8-24.3l1.7,0.5C106.4,621.9,102.5,635.9,102.3,636.7z"/>
				<path fill="#010101" d="M98.9,619.8c-0.4,0-0.7,0-1,0L98,618c0.1,0,0.3,0,0.6,0l0.4-1.6c5.9,1.4,6.8-0.6,7.8-2.8
					c0.2-0.5,0.4-1,0.7-1.4l1.6,0.6C108,618,103.2,619.8,98.9,619.8z"/>
				<g id="g3289_2_" transform="translate(167.4375,12.875)">
					<g>
						
							<path id="path3185-0_1_" sodipodi:type="arc" sodipodi:ry="7.0356832" sodipodi:rx="6.7109594" sodipodi:cx="93.412224" sodipodi:cy="37.343243" fill="#010101" d="
							M-61.2,588.6c0,2.2-1.8,4.1-4.1,4.1c-2.2,0-4.1-1.8-4.1-4.1s1.8-4.1,4.1-4.1C-63.1,584.5-61.2,586.3-61.2,588.6z"/>
						<path fill="#010101" d="M-65.3,592.9c-2.4,0-4.4-2-4.4-4.4s2-4.4,4.4-4.4s4.4,2,4.4,4.4S-62.9,592.9-65.3,592.9z M-65.3,584.8
							c-2.1,0-3.8,1.7-3.8,3.8c0,2.1,1.7,3.8,3.8,3.8s3.8-1.7,3.8-3.8C-61.5,586.5-63.2,584.8-65.3,584.8z"/>
					</g>
					<path fill="#010101" d="M-58.4,600l-1.7-0.1c0-0.5,1.3-5.3,4-14.4l1.7,0.5C-55.9,591-58.3,599.2-58.4,600z"/>
					<path fill="#010101" d="M-64.6,593c-0.4,0-0.7,0-1.1,0l0.1-1.7c0.1,0,0.3,0,0.6,0l0.4-1.6c5.9,1.4,6.8-0.6,7.8-2.8
						c0.2-0.5,0.4-1,0.7-1.4l1.6,0.6C-55.5,591.2-60.3,593-64.6,593z"/>
				</g>
			</g>
		</g>
	</g>
	<g id="e21_2_">
		<path id="path9929-7_16_" inkscape:connector-curvature="0" sodipodi:nodetypes="ccccccccc" fill="#010101" d="M584,548.5l1.2,0
			l0,48.1c0,2.5-1.7,3.8-3.3,5.5c-2.5,2.1-5.2,2.8-8.3,2.8c-3.8,0-5.6-2-5.6-4.5c0.2-5.1,7.3-9.5,11.6-9.3c1.6,0,3.6,0.9,4.4,1.2
			L584,548.5z"/>
		<path id="path4058_2_" inkscape:connector-curvature="0" sodipodi:nodetypes="csccscc" fill="#010101" d="M557.8,538.8
			c0-6.2,5.1-19.6,18.6-19.6c12.3,0,18.7,12,18.8,19.6h-2.1c0.1-3-3.8-14.3-16.6-14.2c-9.5,0.1-16.8,7.4-16.7,14.2H557.8z"/>
		
			<path id="path4568_2_" sodipodi:type="arc" sodipodi:ry="3.5" sodipodi:rx="3.5" sodipodi:cx="99.125" sodipodi:cy="32.625" fill="#010101" d="
			M579.1,536.1c0,1.6-1.3,2.9-2.9,2.9c-1.6,0-2.9-1.3-2.9-2.9s1.3-2.9,2.9-2.9C577.8,533.2,579.1,534.5,579.1,536.1z"/>
	</g>
	<g>
		<path id="path9929-7_2_" fill="#010101" d="M1175.3,1078.8l-1.2,0l0-48c0-2.5,1.7-3.8,3.3-5.5c2.5-2.1,5.2-2.8,8.3-2.8
			c3.8,0,5.6,2,5.6,4.5c-0.2,5.1-7.3,9.5-11.6,9.3c-1.6,0-3.6-0.9-4.4-1.2L1175.3,1078.8z"/>
		<path id="e23_2_" fill="#010101" d="M1165.8,1007.7l8.3-8.7l7.4,6.4l6.2-6.4l8,6.5l3.4-3.7v2.8l-7.3,8l-7.8-6.4l-5.8,6.6l-7.9-6.6
			l-4.6,5.1V1007.7z"/>
	</g>
	<g id="e24_1_">
		<g id="g3862_1_" transform="translate(-0.24707682,-50.081608)">
			<g id="g3501_2_" transform="translate(60,2.375)">
				<path fill="#010101" d="M210.9,404.9l-9.8-13.4l-0.2,0.7l-0.1,0.1c-0.4,0.2-0.7,0.4-0.5,0.8l0.2,0.5c2,5,3.8,9.7-1.5,16
					l-0.2,0.3l9.9,14.4l0.8-0.4c-0.4-1.1-0.9-2.1-1.4-3.1c-2.1-4.1-4.1-8,2.6-15.6L210.9,404.9z"/>
				<path fill="#010101" d="M208.7,423.6l-0.4-1.2l0,0l0.2-0.2c-3.1-2.8-5.9-3.9-8-3.2c-1.3,0.4-2.1,1.5-2.4,3.1
					c-0.6,3,1,7.9,5.9,12.1l0.5-0.4c-1-1.7-2.8-7.1-1.1-9.2c0.9-1.1,2.7-1.2,5.3-0.3l0.2-0.6C208.9,423.7,208.8,423.6,208.7,423.6z"
					/>
			</g>
		</g>
	</g>
	<g id="e25_1_">
		<path id="path9929-7_1_" inkscape:connector-curvature="0" sodipodi:nodetypes="ccccccccc" fill="#010101" d="M876.7,605.3l-1.2,0
			l0-47.4c0-2.4,1.7-3.7,3.2-5.4c2.4-2,5.2-2.8,8.2-2.7c3.7,0,5.5,2,5.5,4.4c-0.2,5-7.2,9.3-11.5,9.2c-1.6,0-3.6-0.9-4.3-1.2
			L876.7,605.3z"/>
		
			<path id="path13401_2_" sodipodi:type="arc" sodipodi:ry="3.4471455" sodipodi:rx="3.4471455" sodipodi:cx="100.49755" sodipodi:cy="36.216393" fill="#010101" d="
			M886,539.2c0,1.3-1,2.3-2.3,2.3c-1.3,0-2.3-1-2.3-2.3c0-1.3,1-2.3,2.3-2.3C885,536.8,886,537.9,886,539.2z"/>
	</g>
	<path id="e22_2_" fill="#010101" d="M1007.7,359.2h16.4v6h-16.4V359.2z"/>
	<path id="e26_1_" inkscape:connector-curvature="0" fill="#010101" d="M408.5,568.6h16.3v-6h-16.3V568.6z"/>
	<path id="e27_2_" fill="#010101" d="M1025.5,570.3v-8.1h8.1h8.1v8.1v8.1h-8.1h-8.1V570.3z"/>
	<g id="e16_1_">
		<polygon fill="#010101" points="175.2,699.5 498,689.5 498,692.2 258.8,699.5 498,707 498,709.9 		"/>
	</g>
	<g id="e18_2_">
		<polygon fill="#010101" points="1101.7,699.9 649.1,709.9 649.1,707.2 984.5,699.9 649.1,692.3 649.1,689.5 		"/>
	</g>
	<g id="e15_2_">
		<g id="layer1_3_" transform="translate(-319.37731,-505.93554)">
			<path id="text2502_10_" fill="#010101" d="M422.5,1211.7c-0.5,0-0.9-0.2-1.1-0.5c-0.2-0.3-0.3-0.7-0.3-1.2c0-0.8,0.2-1.8,0.6-3.1
				c0.4-1.3,0.9-2.4,1.6-3.4s1.5-1.6,2.5-1.6c0.4,0,0.7,0.2,0.9,0.4c0.2,0.3,0.3,0.6,0.3,1.1c0,0.3-0.1,1.2-0.5,2.5
				c-0.3,1.3-0.8,2.6-1.4,3.8C424.4,1211,423.6,1211.6,422.5,1211.7L422.5,1211.7z M412.9,1206.7c0,0.3,0.1,0.5,0.3,0.6
				c0.2,0.1,0.4,0.2,0.7,0.2c0.8-0.1,1.4-0.6,1.8-1.4c0.4-0.9,0.7-1.8,1.1-2.7c0.4-0.9,0.9-1.4,1.7-1.4c0.1,0,0.2,0,0.3,0.1
				c0.1,0.1,0.1,0.2,0.1,0.3c0,0.1,0,0.3-0.1,0.5s-0.1,0.4-0.2,0.6l-4.2,12.4c-0.4,1-1,1.5-1.7,1.6c-0.8,0.1-1.5,0.2-2.2,0.2
				c-0.7,0-1,0.3-1.1,1c0,0.2,0.1,0.5,0.2,0.6c0.2,0.2,0.4,0.3,0.7,0.3c0.1,0,0.6,0,1.5-0.1c0.9-0.1,2.1-0.1,3.4-0.1
				c1.3,0,2.5,0,3.4,0.1c0.9,0.1,1.4,0.1,1.5,0.1c0.3,0,0.5-0.1,0.7-0.3c0.2-0.2,0.2-0.4,0.2-0.6c0-0.6-0.2-0.9-0.6-0.9
				c-0.4,0-0.7-0.1-1.1-0.2s-0.6-0.5-0.6-1.3c0-0.2,0-0.4,0.1-0.5c0-0.2,0.1-0.3,0.1-0.5l0.8-2.3c0.2-0.5,0.6-0.5,1.3-0.1
				c0.7,0.4,1.8,0.6,3.2,0.7c1.4,0,3-0.8,4.6-2.3c1.6-1.5,2.5-3.6,2.7-6.3c0-1.5-0.4-2.7-1.3-3.7c-0.8-1-2-1.5-3.6-1.5
				c-0.8,0-1.6,0.2-2.5,0.7c-0.8,0.4-1.6,1-2.2,1.7c-0.2-0.7-0.5-1.2-0.9-1.7c-0.5-0.4-1.1-0.7-1.8-0.7c-1.3,0.1-2.3,0.6-3.3,1.7
				c-0.9,1.1-1.7,2.1-2.2,3.2S412.9,1206.4,412.9,1206.7L412.9,1206.7z"/>
		</g>
	</g>
	<g id="e17_2_">
		<g id="layer1_2_" transform="translate(-328.00046,-476.66)">
			<path id="text2502_2_" fill="#010101" d="M905.4,1174.9h2.7c0.4,0,0.7-0.1,0.9-0.4c0.3-0.3,0.4-0.6,0.4-0.9
				c0-0.4-0.1-0.7-0.4-0.9c-0.3-0.3-0.6-0.4-0.9-0.4h-1.9c0.3-1.4,0.7-2.7,1.3-3.9c0.5-1.2,1.4-1.8,2.6-1.9h0.3c0.3,0,0.5,0,0.7,0.1
				c0.2,0.1,0.3,0.2,0.3,0.4c-0.1,0.6-0.4,1.1-0.9,1.3c-0.5,0.2-0.8,0.6-0.9,1.3c0,0.6,0.2,1,0.6,1.4c0.4,0.4,0.9,0.6,1.4,0.6
				c0.8,0,1.4-0.4,1.8-1.1c0.4-0.7,0.6-1.5,0.6-2.4c0-1.2-0.4-2.1-1.2-2.9c-0.8-0.8-1.7-1.2-2.8-1.2c-2.1,0.1-4.1,0.9-5.8,2.6
				c-1.7,1.6-3,3.6-3.9,5.8h-2.4c-0.4,0-0.7,0.1-0.9,0.4s-0.4,0.6-0.4,0.9c0,0.4,0.1,0.7,0.4,0.9s0.6,0.4,0.9,0.4h1.7l-3.1,12.2
				c-0.2,1-0.6,2-1.1,2.8c-0.5,0.8-1.3,1.3-2.2,1.3h-0.3c-0.3,0-0.5,0-0.7-0.1s-0.3-0.2-0.3-0.4c0.1-0.6,0.4-1,0.9-1.3
				c0.5-0.2,0.8-0.6,0.9-1.3c0-0.6-0.2-1-0.6-1.4s-0.9-0.6-1.5-0.6c-0.8,0-1.4,0.4-1.8,1.1s-0.6,1.5-0.6,2.5c0,1.2,0.4,2.1,1.2,2.9
				s1.7,1.2,2.8,1.2c1.5-0.1,3-0.7,4.3-2c1.4-1.3,2.5-2.9,3.5-4.7c1-1.8,1.7-3.5,2.2-5.1L905.4,1174.9z"/>
		</g>
	</g>
	<g id="e19_2_">
		<g id="layer1_1_" transform="translate(-293.28559,-504.19295)">
			<path id="text2502_1_" fill="#010101" d="M1453.1,1206.4c0,0.3,0.1,0.5,0.3,0.6c0.2,0.1,0.4,0.2,0.6,0.2c0.3,0,0.7-0.1,1-0.3
				c0.3-0.2,0.6-0.5,0.7-0.9c0.3-0.9,0.7-1.8,1.3-2.8c0.6-0.9,1.2-1.5,2-1.5c0.2,0,0.4,0.1,0.5,0.2c0.1,0.2,0.2,0.4,0.2,0.6
				c0,0.2,0,0.5-0.1,0.7l-3,8.6c0,0.1-0.1,0.3,0,0.4c0,0.3,0.1,0.5,0.2,0.6c0.2,0.2,0.4,0.3,0.7,0.3h1.1c0.4,0,0.8-0.1,1.1-0.4
				c0.3-0.3,0.6-0.6,0.7-0.9l2.9-8.6c0.2-0.4,0.4-0.8,0.8-1.1c0.4-0.3,0.8-0.5,1.2-0.5c0.2,0,0.4,0.1,0.5,0.2s0.2,0.3,0.2,0.6
				c0,0.1,0,0.3,0,0.4c0,0.1-0.1,0.3-0.1,0.4l-2.4,8.6c0,0.1,0,0.1-0.1,0.2c0,0.1,0,0.1,0,0.2c0,0.3,0.1,0.5,0.3,0.7
				c0.2,0.2,0.4,0.3,0.8,0.3h1.1c0.4,0,0.7-0.1,1.1-0.4c0.3-0.3,0.6-0.6,0.7-0.9l2.5-8.6c0.1-0.4,0.4-0.8,0.8-1.1
				c0.4-0.3,0.8-0.5,1.2-0.5c0.2,0,0.4,0.1,0.5,0.3c0.1,0.2,0.2,0.4,0.2,0.6c0,0.2,0,0.4-0.1,0.7l-1.9,8.2c-0.1,0.2-0.1,0.4-0.1,0.6
				c0,0.5,0.1,0.9,0.4,1.2c0.3,0.3,0.7,0.5,1.2,0.5c1.8-0.1,3.5-0.7,5.1-1.8c1.5-1.1,2.4-1.9,2.4-2.5c0-0.2-0.1-0.4-0.2-0.5
				c-0.1-0.1-0.3-0.2-0.6-0.2c-0.5,0.1-1,0.4-1.6,1c-0.6,0.6-1.2,0.9-1.8,1c-0.1,0-0.2,0-0.2-0.1c-0.1-0.1-0.1-0.2-0.1-0.3
				c0-0.1,0-0.1,0-0.2l1.7-7.4c0-0.1,0-0.3,0.1-0.4c0-0.1,0-0.3,0-0.4c0-0.9-0.3-1.7-0.8-2.4s-1.2-1.1-2.1-1.1
				c-0.7,0-1.4,0.2-2.2,0.5c-0.7,0.3-1.4,0.8-2,1.4c-0.2-0.6-0.4-1-0.7-1.4c-0.3-0.3-0.8-0.5-1.3-0.5c-0.7,0-1.4,0.2-2.2,0.5
				c-0.7,0.3-1.4,0.8-2,1.3c-0.1-0.5-0.4-1-0.7-1.3c-0.3-0.3-0.7-0.5-1.2-0.5c-1.7,0.1-3.2,0.7-4.4,1.9c-1.3,1.2-2.2,2.4-2.9,3.7
				C1453.5,1205.1,1453.1,1205.9,1453.1,1206.4L1453.1,1206.4z M1485.9,1211.9c-0.6,0-1-0.2-1.2-0.5s-0.3-0.8-0.3-1.4
				c0-0.9,0.2-2,0.7-3.4c0.4-1.4,1-2.6,1.8-3.7c0.8-1.1,1.7-1.7,2.7-1.8c0.4,0,0.8,0.2,1,0.5c0.2,0.3,0.3,0.7,0.3,1.2
				c0,0.4-0.2,1.3-0.5,2.7s-0.9,2.8-1.6,4.2C1487.9,1211.1,1487,1211.8,1485.9,1211.9L1485.9,1211.9z M1475.4,1206.4
				c0,0.3,0.1,0.5,0.3,0.7c0.2,0.1,0.4,0.2,0.7,0.2c0.9-0.1,1.5-0.6,2-1.6c0.4-1,0.8-2,1.2-2.9s1-1.5,1.9-1.6c0.1,0,0.3,0,0.3,0.1
				c0.1,0.1,0.1,0.2,0.1,0.3c0,0.2,0,0.3-0.1,0.6c-0.1,0.2-0.1,0.4-0.2,0.7l-4.6,13.5c-0.4,1-1.1,1.6-1.9,1.8
				c-0.8,0.1-1.6,0.2-2.4,0.2c-0.7,0-1.1,0.4-1.1,1.1c0,0.3,0.1,0.5,0.3,0.7c0.2,0.2,0.4,0.3,0.7,0.3c0.1,0,0.6-0.1,1.6-0.1
				c1-0.1,2.3-0.1,3.8-0.1c1.5,0,2.7,0.1,3.7,0.1c1,0.1,1.6,0.1,1.7,0.1c0.3,0,0.6-0.1,0.7-0.3c0.2-0.2,0.3-0.4,0.3-0.7
				c0-0.6-0.3-0.9-0.7-1c-0.4,0-0.8-0.1-1.2-0.2c-0.4-0.1-0.6-0.6-0.7-1.4c0-0.2,0-0.4,0.1-0.6s0.1-0.4,0.1-0.6l0.8-2.5
				c0.2-0.5,0.7-0.5,1.5-0.1c0.8,0.4,1.9,0.7,3.5,0.8c1.6,0,3.2-0.9,5-2.6c1.8-1.7,2.8-4,2.9-6.9c0-1.6-0.5-3-1.4-4
				c-0.9-1-2.2-1.6-3.9-1.6c-0.9,0-1.8,0.2-2.7,0.7c-0.9,0.5-1.7,1.1-2.4,1.9c-0.2-0.7-0.5-1.3-1-1.8s-1.2-0.7-2-0.8
				c-1.4,0.1-2.6,0.7-3.6,1.9c-1,1.2-1.8,2.3-2.4,3.5C1475.7,1205.3,1475.4,1206.1,1475.4,1206.4L1475.4,1206.4z"/>
		</g>
	</g>
	<g>
		<path id="path9929-7_5_" inkscape:connector-curvature="0" sodipodi:nodetypes="ccccccccc" fill="#010101" d="M411,864.3l-1.2,0
			l0-47.8c0-2.4,1.7-3.8,3.3-5.5c2.5-2.1,5.2-2.8,8.3-2.8c3.8,0,5.6,2,5.6,4.5c-0.2,5.1-7.2,9.4-11.6,9.3c-1.6,0-3.6-0.9-4.4-1.2
			L411,864.3z"/>
		
			<path id="e28_1_" inkscape:connector-curvature="0" sodipodi:nodetypes="cccccccscsssscsccccccccsccsscc" fill="#010101" fill-opacity="0.9412" d="
			M405.8,788.8l0.3-1.8h5.9c0.4-1.2,1.2-3.7,1.3-4.1c0.6-0.5,3.2-2,4.9-2.7l-2.3,6.8l6.9-0.6c0.5,0,1.3-0.1,1.6,0.2
			c0.5,0.6,0.6,1.5,0.5,2c0.7-1.1,2.3-2.2,4.2-2.2c1.8,0,2.9,0.8,2.6,2.6c-0.2,1.2-0.8,1.9-1.8,1.8c-0.8,0-1.5-0.2-1.6-1.2
			c-0.1-0.6-0.1-1.2,0.2-1.8c-2.3,0.3-3.4,2.2-3.7,2.6c-0.4,0.5-2.3,7.1-3.4,10.7l-3.6,0l0.4-1.7c-1.4,0.7-3.4,1.8-4.4,2.2l-1.1-2.1
			c3.5-0.2,4.7-1.2,6-2.1c0.7-2.2,2.2-7.2,2.8-9.3l-5.9,0.4c-1.1,3.3-2.4,7-3.3,9.9c-0.1,0.2,0,1.2,0.4,1.2l1.1,2.1
			c-0.5,0.1-1.2,0.3-1.6,0.3c-0.5,0-3.3-0.2-3.7-2.9c-0.1-0.9,2-6.9,3.1-10.4L405.8,788.8z"/>
	</g>
	<g id="e29_2_">
		<g id="g3862_2_" transform="translate(-0.24707682,-46.942827)">
			<g id="g3193_1_">
				<g>
					
						<path id="path3185_3_" sodipodi:type="arc" sodipodi:ry="7.0356832" sodipodi:rx="6.7109594" sodipodi:cx="93.412224" sodipodi:cy="37.343243" fill="#010101" d="
						M736.7,616.8c0,2.2-1.8,4.1-4.1,4.1s-4.1-1.8-4.1-4.1c0,0,0,0,0,0c0-2.2,1.8-4.1,4.1-4.1C734.9,612.7,736.7,614.5,736.7,616.8
						C736.7,616.8,736.7,616.8,736.7,616.8z"/>
					<path fill="#010101" d="M732.6,621.1L732.6,621.1c-2.4,0-4.4-2-4.4-4.4c0-1.2,0.5-2.3,1.3-3.1c0.8-0.8,1.9-1.3,3.1-1.3
						c2.4,0,4.4,2,4.4,4.4c0,1.2-0.5,2.3-1.3,3.1C734.9,620.7,733.8,621.1,732.6,621.1z M732.6,613c-1,0-2,0.4-2.7,1.1
						s-1.1,1.7-1.1,2.7c0,2.1,1.7,3.8,3.8,3.8v0.3l0-0.3c1,0,2-0.4,2.7-1.1s1.1-1.7,1.1-2.7C736.4,614.7,734.7,613,732.6,613z"/>
				</g>
				<path fill="#010101" d="M736.7,638.1L735,638c0-0.5,2.3-8.6,6.8-24.3l1.7,0.5C740.9,623.3,736.9,637.2,736.7,638.1z"/>
				<path fill="#010101" d="M733.4,621.1c-0.4,0-0.7,0-1,0l0.1-1.7c0.1,0,0.3,0,0.6,0l0.4-1.6c5.9,1.4,6.8-0.6,7.8-2.8
					c0.2-0.5,0.4-1,0.7-1.4l1.6,0.6C742.5,619.4,737.6,621.1,733.4,621.1z"/>
			</g>
		</g>
	</g>
	<g>
		<path id="path9929-7_4_" inkscape:connector-curvature="0" sodipodi:nodetypes="ccccccccc" fill="#010101" d="M816.7,865.3l-1.2,0
			l0-47.6c0-2.4,1.7-3.8,3.3-5.4c2.4-2,5.2-2.8,8.2-2.7c3.7,0,5.5,2,5.6,4.4c-0.2,5-7.2,9.4-11.5,9.2c-1.6,0-3.6-0.9-4.4-1.2
			L816.7,865.3z"/>
		<path id="e30_1_" inkscape:connector-curvature="0" sodipodi:nodetypes="cccc" fill="#010101" d="M820.5,792.8l3.3,8.9l3.2-8.9
			L820.5,792.8z"/>
	</g>
	<g id="e31_2_" enable-background="new    ">
		<path fill="#010101" d="M257.9,803.4v-1.1c2.3-0.8,3.9-1.9,4.9-3.2c1-1.3,1.5-2.6,1.5-4c0-0.3-0.1-0.5-0.2-0.6
			c-0.1-0.1-0.3-0.2-0.4-0.2c-0.1,0-0.3,0.1-0.5,0.2c-0.6,0.3-1.3,0.4-2.1,0.4c-1.1,0-2.1-0.4-3-1.1c-0.8-0.8-1.3-1.6-1.3-2.7
			c0-1.1,0.5-2,1.5-2.8c1-0.8,2.1-1.2,3.5-1.2c1.7,0,3.1,0.5,4.3,1.6s1.8,2.6,1.8,4.5c0,2.3-0.8,4.4-2.5,6.2
			C263.7,801.2,261.2,802.5,257.9,803.4z"/>
	</g>
	<g id="e32_2_">
		<path id="path4792_2_" fill="none" stroke="#010101" stroke-width="1.1711" d="M1155.7,814.2c4.2,3.5,9.8,4.4,15.9,4.3"/>
		<path id="path9929-7_3_" fill="#010101" d="M1175.1,865.6l-1.2,0l0-47.4c0-2.4,1.7-4.1,3.2-5.4c2.4-2.1,5.2-2.7,8.2-2.7
			c3.7,0,5.6,2,5.5,4.4c-0.1,5-7.2,9.3-11.5,9.2c-1.6,0-3.6-0.9-4.3-1.2L1175.1,865.6z"/>
		<path id="path9929-7-5_2_" fill="#010101" d="M1159.3,784.2l0.6,0c0.1,6.6,7,7.9,7,14.4c0,3.5-1.4,5.3-2.6,7.1
			c0.8-2.2,1.4-4.4,1.4-6.9c0-4.1-3.1-6.6-5.9-6.9l0,16.4c0,1.1-0.8,2-1.5,2.6c-1.1,1-2.4,1.3-3.9,1.3c-1.8,0-2.6-0.9-2.6-2.1
			c0-2.4,3.4-4.4,5.4-4.4c0.7,0,1.7,0.4,2,0.6L1159.3,784.2z"/>
	</g>
	<g id="e0_1_">
		
			<sodipodi:namedview  inkscape:zoom="2.8" gridtolerance="10000" inkscape:cy="94.987592" borderopacity="1.0" inkscape:cx="116.27574" bordercolor="#666666" guidetolerance="10" pagecolor="#ffffff" objecttolerance="10" id="base" inkscape:document-units="px" inkscape:pageopacity="0.0" inkscape:pageshadow="2" inkscape:window-width="1280" inkscape:window-height="977" inkscape:current-layer="layer1" inkscape:window-x="1276" inkscape:window-y="-4">
			</sodipodi:namedview>
		<g id="layer1_4_" inkscape:label="Layer 1" inkscape:groupmode="layer">
			<g id="g2321" transform="matrix(1.40956,0,0,1.40956,-11.690548,-88.419854)">
				<g id="a_quarter_note" transform="translate(-11.785714,91.971428)">
					<path id="path2233" fill="#010101" d="M123.2,49.7h0.4v19h-0.4V49.7z"/>
					<path id="path2235" fill="#010101" d="M116.6,71.6c-0.8-1.4,0.1-3.4,1.9-4.4c1.8-1.1,4-0.9,4.8,0.5c0.8,1.4-0.1,3.4-1.9,4.5
						C119.6,73.2,117.4,73,116.6,71.6z"/>
				</g>
				<path id="path2309" fill="#010101" d="M121,156.2v0.9h-6.7v-0.9H121z"/>
				<path id="path2307" fill="#010101" d="M121,158.8v0.9h-6.7v-0.9H121z"/>
				<path id="path2305" fill="#010101" d="M125.2,152.3l-2.4,1.2v0.2l0.4-0.1c0.2-0.1,0.5-0.1,0.6-0.1c0.3,0,0.4,0.2,0.4,0.6v6
					c0,0.5-0.1,0.7-0.3,0.9c-0.2,0.1-0.5,0.2-0.9,0.2v0.2h3.7v-0.2c-0.5,0-0.8,0-1-0.1c-0.2-0.1-0.3-0.3-0.3-0.7v-8L125.2,152.3z
					 M131.2,152.3c-0.8,0-1.4,0.3-1.9,0.8c-0.1,0.1-0.1,0.1-0.1,0.2c-0.3,0.4-0.5,0.9-0.7,1.7l0.3,0.1c0.2-0.5,0.4-0.8,0.5-1
					c0.3-0.5,0.8-0.7,1.4-0.7c0.4,0,0.7,0.1,1,0.3c0.6,0.3,0.8,0.9,0.8,1.6c0,1.1-0.6,2.2-1.7,3.5l-2.4,2.5v0.2h5.2l0.7-1.8
					l-0.2-0.1c-0.2,0.3-0.4,0.5-0.5,0.6c-0.2,0.2-0.4,0.3-0.8,0.3h-3.2l2.2-2.3c0,0,0.1-0.1,0.1-0.1c1.1-1.1,1.6-2.2,1.6-3.2
					c0-0.4-0.1-0.8-0.3-1.1l-0.2-0.4C132.6,152.6,132,152.3,131.2,152.3z M138,152.3c-0.7,0-1.3,0.2-1.8,0.7
					c-0.2,0.2-0.3,0.4-0.5,0.6c-0.5,0.9-0.8,2-0.8,3.2c0,0.4,0,0.7,0.1,1.1c0.2,1.2,0.5,2.1,1,2.6c0.5,0.6,1.2,0.9,1.9,0.9
					c0.7,0,1.3-0.2,1.7-0.7c0.2-0.2,0.3-0.4,0.5-0.6c0.5-0.9,0.8-2,0.8-3.3c0-1.3-0.2-2.3-0.7-3.2
					C139.7,152.8,138.9,152.3,138,152.3z M138,152.6L138,152.6l0.4,0.1c0.9,0.3,1.4,1.7,1.4,4.2c0,2.8-0.6,4.2-1.7,4.2
					c-1.2,0-1.7-1.4-1.7-4.2c0-0.2,0-0.3,0-0.5C136.3,153.9,136.9,152.6,138,152.6z"/>
			</g>
		</g>
	</g>
	<g id="e34">
		<g>
			<path fill="#010101" d="M424.3,453.4c0,0,0-0.1,0-0.2c0-0.2,0.1-0.2,0.1-0.2c2.6,0.2,4.6,0.6,6.1,1c1.5,0.4,2.7,0.9,3.5,1.4
				c0.8,0.6,1.6,1.2,2.3,2c0.7,0.8,1.2,1.7,1.6,2.7c0.4,1.1,0.6,2.2,0.5,3.2c0,1-0.2,1.8-0.5,2.6c-0.3,0.7-0.7,1.3-1.2,1.7
				c-0.5,0.4-1,0.6-1.5,0.6c-1.2,0-2.3-0.3-3.2-1s-1.6-1.4-2.1-2.3c-0.2,0.5-0.5,0.9-0.7,1.3c-0.2,0.3-0.5,0.7-0.8,1
				c-0.3,0.3-0.6,0.5-0.9,0.6c-1,0.3-1.7,0.4-2.2,0.3c-0.5-0.1-1.1-0.5-1.7-1c-0.2-0.2-0.5-0.5-0.7-0.8c-0.2-0.3-0.5-0.6-0.6-0.9
				l-2.5,2.4c-0.1,0.1-0.3,0.1-0.5,0c-0.2-0.2-0.4-0.4-0.6-0.7c-0.3-0.4-0.6-0.7-0.7-0.9c-0.2-0.2-0.4-0.5-0.9-0.9
				c-0.1-0.1-0.4-0.3-0.9-0.6c-0.5-0.2-0.9-0.5-1.3-0.8c-0.1,0.1-0.2,0.3-0.5,0.6c-0.2,0.2-0.5,0.5-0.7,0.7
				c-0.3,0.2-0.5,0.4-0.8,0.6c-0.3,0.2-0.5,0.3-0.6,0.4c-0.4,0.3-0.8,0.6-1.2,0.9s-0.8,0.5-1.2,0.7c-0.4,0.2-0.7,0.3-1,0.4
				c-0.3,0.1-0.5,0-0.5-0.2c-0.2-0.3-0.2-0.6,0-1.1c0.2-0.4,0.5-0.8,0.9-1.3s0.9-0.8,1.5-1.2c0.6-0.4,1.2-0.7,1.8-0.8
				c0.3-0.1,0.6-0.2,0.9-0.3c0.3-0.1,0.6-0.2,0.9-0.3c0.1-0.1,0.2-0.3,0.3-0.4c0.1-0.1,0.3-0.3,0.4-0.5c0.1-0.2,0.3-0.5,0.4-0.8
				c0.1-0.3,0.2-0.7,0.2-1.1c0-0.6-0.1-1.2-0.5-1.9c-0.4-0.7-0.7-1.4-1.2-2.2c-0.4-0.8-0.7-1.5-1-2.4c-0.3-0.8-0.3-1.6-0.1-2.5
				l1.2-4.8c-0.4,0-0.9,0.1-1.6,0.3c-0.7,0.2-1.3,0.4-2,0.8c-0.7,0.4-1.3,0.8-1.9,1.4c-0.6,0.6-1,1.3-1.2,2.1
				c-0.1,0.2-0.1,0.5-0.1,0.7c0,0.3,0.1,0.5,0.2,0.7c0.1,0.2,0.3,0.4,0.5,0.6c0.2,0.1,0.6,0.2,1,0.2c0.6,0,1.1-0.2,1.5-0.5
				c0.4-0.3,0.7-0.6,0.9-0.9c0.1-0.2,0.2-0.4,0.3-0.7l0.2-0.4h0.2c0,0,0,0.1,0,0.2c-0.1,0.2-0.1,0.5-0.1,0.8
				c-0.1,0.6-0.2,1.1-0.5,1.6c-0.3,0.5-0.7,0.9-1.1,1.3s-0.8,0.6-1.3,0.8c-0.4,0.2-0.8,0.2-1.2,0.1c-0.3-0.1-0.5-0.2-0.8-0.5
				c-0.2-0.2-0.5-0.5-0.6-0.9c-0.2-0.4-0.2-0.8-0.3-1.4c0-0.6,0.1-1.2,0.3-1.9c0.2-0.7,0.6-1.4,1.1-2c0.5-0.6,1.2-1.2,2-1.6
				c0.8-0.5,1.7-0.8,2.6-1c1-0.2,2-0.4,3.1-0.4c1.4,0,2.7,0.3,4,0.9c1.2,0.6,2.2,1.4,2.9,2.5c0.3,0.4,0.5,0.9,0.6,1.4
				c0.1,0.5,0.1,1,0,1.4c-0.1,0.4-0.3,0.8-0.5,1.2s-0.6,0.6-1,0.8c-0.8,0.3-1.6,0.3-2.4,0.1c-0.8-0.2-1.5-0.5-2-1
				c-0.1-0.1-0.2-0.3-0.4-0.5c-0.1-0.2-0.3-0.4-0.4-0.6c-0.1-0.2-0.3-0.4-0.4-0.6c-0.1-0.2-0.2-0.3-0.2-0.4c0-0.1,0-0.1,0.1-0.2
				c0.1,0,0.1-0.1,0.1-0.1c0,0.1,0.2,0.2,0.4,0.5c0.2,0.3,0.5,0.5,0.7,0.6c0.3,0.2,0.7,0.4,1.1,0.5c0.4,0.1,0.8,0.1,1.2,0.1
				c0.4,0,0.7-0.1,1.1-0.2c0.3-0.1,0.6-0.3,0.7-0.4c0.5-0.5,0.7-1.1,0.5-1.9c-0.1-0.8-0.7-1.5-1.7-2.2c-0.5-0.3-1-0.6-1.4-0.7
				c-0.5-0.1-0.9-0.2-1.3-0.3c-0.2,0-0.4-0.1-0.6-0.1c-0.2,0-0.4,0-0.7,0h-0.7l-0.7,2.6c-0.2,0.7-0.1,1.4,0.2,2.1
				c0.3,0.7,0.6,1.4,1.1,2.1s0.9,1.4,1.3,2.1c0.4,0.7,0.6,1.3,0.7,1.9c0,0.4,0,0.9-0.1,1.4c-0.1,0.5-0.2,1-0.4,1.5
				c-0.2,0.5-0.3,0.9-0.5,1.3c-0.2,0.4-0.3,0.7-0.4,0.9c0.5,0.1,0.9,0.2,1.2,0.3c0.3,0.1,0.7,0.3,1.1,0.6c0.6,0.4,1.1,0.8,1.5,1.2
				c0.5,0.4,0.8,0.8,0.9,1.2l1.3-1.1c-0.2-0.4-0.3-0.8-0.4-1.3c-0.1-0.5-0.1-1-0.2-1.5c0-0.5,0-1,0-1.4c0-0.4,0.1-0.8,0.2-1
				c0.1-0.5,0.4-1,0.7-1.3c0.3-0.4,0.7-0.7,1.1-0.9c0.4-0.2,0.8-0.4,1.3-0.4c0.5-0.1,0.9,0,1.2,0.1c0.5,0.2,1,0.5,1.4,0.8
				c0.4,0.3,0.7,0.8,0.9,1.2c0.1,0.1-0.1,0.5-0.5,1c-0.4,0.5-0.8,1.1-1.3,1.7c-0.5,0.6-1,1.1-1.4,1.6s-0.8,0.8-0.9,0.9
				c0.1,0.2,0.2,0.5,0.4,0.8c0.2,0.3,0.4,0.6,0.6,0.9c0.2,0.3,0.5,0.5,0.8,0.7c0.3,0.2,0.6,0.3,1,0.3c0.5,0,1-0.3,1.4-0.9
				c0.4-0.6,0.9-1.2,1.4-1.8c-0.1-0.4-0.1-0.8-0.2-1.1c0-0.3-0.1-0.6-0.1-0.8c0-0.2,0-0.5,0-0.7c0-0.2,0.1-0.5,0.1-0.8
				c0.1-0.3,0.2-0.7,0.3-1.1c0.1-0.4,0.3-0.8,0.5-1.2c0.2-0.4,0.5-0.7,0.9-1c0.4-0.3,0.8-0.5,1.4-0.7l0.1,0.2
				c0.1,0.1,0.1,0.2,0.1,0.2c-0.8,0.5-1.4,1.2-1.6,2.2c-0.2,1-0.2,2.2,0.2,3.6c0.1,0.5,0.3,1,0.6,1.6c0.3,0.6,0.6,1,1,1.5
				s0.7,0.8,1.2,1c0.4,0.2,0.8,0.3,1.2,0.3c0.7-0.1,1.1-0.7,1.4-1.8c0.3-1.1,0-2.6-0.7-4.5c-0.1-0.4-0.4-1-0.7-1.8
				c-0.3-0.8-0.7-1.4-1.1-2c-0.1-0.2-0.3-0.4-0.4-0.5c-0.1-0.2-0.3-0.3-0.4-0.5c-0.2-0.1-0.3-0.3-0.6-0.5c-0.2-0.2-0.5-0.3-0.8-0.5
				c-0.7-0.4-1.8-0.8-3.1-1.1C427.7,453.9,426.1,453.7,424.3,453.4z M424.5,458.2c-0.4-0.1-0.6-0.1-0.7,0c-0.1,0-0.2,0.2-0.4,0.5
				c-0.2,0.3-0.4,0.7-0.4,1.2c0,0.5,0,1,0,1.5c0.1,0.5,0.2,1,0.3,1.4c0.1,0.5,0.3,0.8,0.4,1c0.1,0,0.2-0.2,0.5-0.5
				c0.3-0.3,0.6-0.7,1-1.1c0.3-0.4,0.6-0.8,0.9-1.2c0.2-0.4,0.3-0.7,0.2-0.8c-0.3-0.6-0.5-1-0.8-1.3
				C425.3,458.4,425,458.2,424.5,458.2z M440.2,468c-0.3,0-0.6-0.1-0.8-0.3c-0.2-0.2-0.3-0.5-0.3-0.8c0-0.3,0.1-0.6,0.3-0.8
				c0.2-0.2,0.5-0.3,0.8-0.3c0.3,0,0.6,0.1,0.8,0.3c0.2,0.2,0.3,0.5,0.3,0.8c0,0.3-0.1,0.6-0.3,0.8C440.8,467.9,440.5,468,440.2,468
				z"/>
		</g>
	</g>
	<g id="e35">
		<g id="layer1" transform="translate(-298.7121,-479.79363)">
			<path id="path2830" fill="#121212" d="M1099.1,947.3c-0.7-0.3-1.2-1-1.2-1.7c0-0.5,0.2-0.8,0.9-1.7c1-1.3,1.2-1.8,1-2.5
				c-0.2-0.7-0.8-1-1.6-0.8c-0.8,0.2-1.1,0.8-1.2,2.2c-0.1,1.4-0.4,1.9-1.3,2.3c-0.8,0.3-1.2,0.3-1.9,0c-1.1-0.5-1.7-2-1.1-3
				c0.4-0.7,1-1,2.4-1.2c1.1-0.2,1.3-0.2,1.7-0.6c0.5-0.5,0.5-0.9,0.1-1.3c-0.6-0.8-1.3-0.6-3.1,0.6c-1.2,0.8-1.8,0.9-2.6,0.3
				c-0.7-0.5-1-1.2-0.9-2.1c0.1-0.9,0.5-1.5,1.3-1.8c0.8-0.3,1.4-0.2,2.5,0.6c1.6,1.1,2.2,1.3,2.8,0.7c0.3-0.2,0.3-1.1,0.1-1.5
				c-0.2-0.4-1.2-0.7-2-0.7c-1.8,0-3-1.2-2.6-2.5c0.3-1.1,1.3-1.9,2.4-1.9c1.2,0,1.6,0.6,2,2.5c0.3,1.4,0.5,1.9,1,2.1
				c0.5,0.2,1.4-0.1,1.7-0.5c0.3-0.4,0.2-1.3-0.2-1.8c-0.9-1.1-1.4-2.1-1.4-2.5c0-0.9,0.9-1.9,2-2.1c0.7-0.1,1.5,0.2,2.1,0.8
				c0.5,0.5,0.5,0.7,0.5,1.4c0,0.7-0.1,0.8-0.8,1.8c-1.2,1.6-1.3,2.1-0.5,2.8c0.5,0.4,1,0.5,1.4,0.2c0.4-0.2,0.8-1.2,0.8-2.1
				c0-1.6,0.9-2.5,2.2-2.5c1.7,0,2.8,1.7,2,3.2c-0.3,0.7-1.3,1.2-2.3,1.2c-1.6,0-2.5,0.9-2.1,1.9c0.1,0.3,0.4,0.5,0.7,0.6
				c0.5,0.2,1.1-0.1,2.5-1.2c0.8-0.6,1-0.7,1.6-0.7c0.9,0,1.5,0.4,1.9,1.2c0.3,0.5,0.3,0.8,0.2,1.3c-0.2,1.2-1.1,2.1-2.1,2.2
				c-0.4,0-0.8-0.2-2.5-1.4c-0.3-0.2-0.7-0.4-1-0.4c-0.4-0.1-0.6,0-1,0.4c-0.9,0.9-0.4,1.8,1.1,2c1.9,0.4,2.3,0.5,2.7,0.9
				c0.4,0.4,0.4,0.5,0.4,1.3c0,1.1-0.3,1.6-1.2,2.1c-0.8,0.4-1.5,0.4-2.1-0.1c-0.6-0.4-0.9-1.2-1-2.3c-0.1-1.2-0.4-1.8-1.1-2
				c-0.6-0.2-1.1,0-1.5,0.5c-0.5,0.6-0.4,1.2,0.5,2.4c0.8,1.2,1.1,1.9,1,2.6C1102.2,947.1,1100.3,947.8,1099.1,947.3z M1101.2,939
				c0.6-0.6,0.8-1.2,0.4-1.9c-0.7-1.5-3.1-1-3.1,0.6c0,0.7,0.2,1.1,0.8,1.5C1100,939.5,1100.6,939.5,1101.2,939L1101.2,939z"/>
		</g>
	</g>
	<g id="e33_2_">
		<g id="g3830_2_">
			<g id="g3826_2_" transform="matrix(0.56098952,0,0,0.48829189,414.03108,-33.725772)">
				<path id="path3794_2_" inkscape:connector-curvature="0" sodipodi:nodetypes="cccc" fill="#010101" d="M1002.8,1750.5
					c38.6-52.8,2.1-2.7,39.5-53.6l-11-0.1c-36.9,51.3-36.3,49.8-39.5,53.9"/>
				<path id="path3818_2_" inkscape:connector-curvature="0" sodipodi:nodetypes="cccc" fill="#010101" d="M1029.2,1750.7
					c38.6-52.8,2.6-2.7,40-53.6l-11-0.1c-36.9,51.3-36.3,49.8-39.5,53.9"/>
			</g>
		</g>
	</g>
	<g>
		<g>
			<path id="path9929-7_22_" inkscape:connector-curvature="0" sodipodi:nodetypes="ccccccccc" fill="#010101" d="M102.2,865.2
				l-1.2,0l0-47.8c0-2.4,1.7-3.8,3.3-5.5c2.5-2.1,5.2-2.8,8.3-2.8c3.8,0,5.6,2,5.6,4.5c-0.2,5.1-7.2,9.4-11.6,9.3
				c-1.6,0-3.6-0.9-4.4-1.2L102.2,865.2z"/>
			<polygon id="e36_1_" fill="#010101" points="118.8,799.2 100.1,805 100.1,803.5 114,799.2 100.1,794.7 100.1,793.1 			"/>
		</g>
	</g>
	<g>
		<path id="path9929-7_8_" inkscape:connector-curvature="0" sodipodi:nodetypes="ccccccccc" fill="#010101" d="M102.2,1077.6
			l-1.2,0l0-47.1c0-2.4,1.7-3.7,3.2-5.4c2.4-2,5.1-2.7,8.1-2.7c3.7,0,5.5,2,5.5,4.4c-0.2,5-7.1,9.3-11.4,9.1c-1.6,0-3.5-0.9-4.3-1.2
			L102.2,1077.6z"/>
		<rect id="e38" x="101.1" y="1011.3" fill="#010101" width="16.3" height="1.7"/>
	</g>
	<g>
		<g>
			<path fill="#010101" d="M1189.6,593.1c-1-0.9-2.5-1.1-4.4-1.1c-2.2,0-4.7,1.1-6.8,2.7c-2,1.6-3.6,3.8-3.6,6
				c0,1.4,0.6,2.6,1.6,3.4c1,0.8,2.4,1.3,3.9,1.3c2.4,0,5.1-1,7.1-2.6c2.1-1.6,3.5-3.8,3.5-6.3v-47.2h-1.3V593.1z"/>
		</g>
		<g id="e40_1_">
			<polygon fill="#010101" points="1198.7,561.9 1182.5,570.1 1182.5,566.2 1198.7,557.9 			"/>
			<polygon fill="#010101" points="1198.7,569 1182.5,577.3 1182.5,573.3 1198.7,565.1 			"/>
			<polygon fill="#010101" points="1198.7,576.1 1182.5,584.4 1182.5,580.5 1198.7,572.2 			"/>
		</g>
	</g>
	<g>
		<path id="path9929-7_10_" fill="#010101" d="M633,1077.2l-1.2,0l0-47.3c0-2.4,1.7-3.7,3.2-5.4c2.4-2,5.1-2.7,8.2-2.7
			c3.7,0,5.5,2,5.5,4.4c-0.2,5-7.2,9.3-11.4,9.2c-1.6,0-3.6-0.9-4.3-1.2L633,1077.2z"/>
		<path id="e42_1_" fill="#010101" d="M634.1,1009.9c0,1.7-2.2,2.6-4.3,2.6c-5.2,0-7.4-2.8-7.4-6.1c0-3.6,3.5-7.9,8.5-7.9
			c5,0,8.1,2.6,10.7,4.8c3,2.6,7.8,6,9.6,6c3.8,0,4.3-2.4,4.3-4.4c0-1.5-0.5-3.4-2.6-3.4c-1,0-3.4,1.4-4.4,1.3c-2.4,0-2.5-1.3-2.5-2
			c0-1.9,2.7-2.4,4.6-2.4c3.5,0,7.3,2.4,7.3,7c0,5.2-4.4,7-8.1,7c-5.1,0-10-4.1-11.7-5.3c-2.4-1.9-5.6-5.2-9.4-5.3
			c-2.2,0-4.1,2.9-4.1,4.6c0,2.3,1.2,3,2.9,2.9c1.3-0.7,2.7-1.4,4.1-1.4C633.1,1008.1,634.1,1008.7,634.1,1009.9z"/>
	</g>
	<g>
		<path id="path9929_4_" inkscape:connector-curvature="0" sodipodi:nodetypes="ccccccccc" fill="#010101" d="M1029.2,1022.8l1.2,0
			l0,47.5c0,2.4-1.4,4.2-2.9,5.9c-2.4,2-5.2,2.8-8.2,2.7c-3.7,0-5.9-2.4-5.9-4.9c0.2-5,7.2-9.4,11.5-9.2c1.6,0,3.6,0.9,4.4,1.2
			L1029.2,1022.8z"/>
		<path id="e41_1_" inkscape:connector-curvature="0" sodipodi:nodetypes="ccccccc" fill="#010101" d="M1013.9,1075.8l0.7,0.8
			c-8.9,7-23.8,8.8-34.9,8.8c-18.3,0-27.1-4.2-32.8-8.6l0.8-1.1c3.9,4.3,19.6,6.9,32.5,6.8
			C995.1,1082.5,1004.9,1080.8,1013.9,1075.8L1013.9,1075.8z"/>
		<path id="path9929-7_9_" inkscape:connector-curvature="0" sodipodi:nodetypes="ccccccccc" fill="#010101" d="M950,1022.8l1.2,0
			l0,47.5c0,2.4-1.4,4.2-2.9,5.9c-2.4,2-5.2,2.8-8.2,2.7c-3.7,0-5.9-2.4-5.9-4.9c0.2-5,7.2-9.4,11.5-9.2c1.6,0,3.6,0.9,4.4,1.2
			L950,1022.8z"/>
	</g>
	<g>
		<path id="path9929_1_" inkscape:connector-curvature="0" sodipodi:nodetypes="ccccccccc" fill="#010101" d="M348.9,994.4l1.2,0
			l0,47.8c0,2.4-1.4,4.2-3,5.9c-2.5,2.1-5.2,2.8-8.3,2.8c-3.8,0-5.9-2.4-5.9-4.9c0.2-5.1,7.2-9.4,11.6-9.3c1.6,0,3.6,0.9,4.4,1.2
			L348.9,994.4z"/>
		<path id="e43_1_" inkscape:connector-curvature="0" sodipodi:nodetypes="ccccccccc" fill="#010101" d="M340.7,1055.1l1.4,1.1
			c-8.5,12.9-18.8,18.9-24.3,21.7c-14,7.5-30.3,9-39.6,9.1c-8.7,0-15.5-1.4-18.6-3.4l1-1.4c5,2.1,10.3,2.8,17.7,2.9
			c23.5-0.2,38.2-8.6,40-9.7C323.3,1072.3,329.5,1069.9,340.7,1055.1L340.7,1055.1z"/>
		<path id="path9929-7_7_" inkscape:connector-curvature="0" sodipodi:nodetypes="ccccccccc" fill="#010101" d="M269.2,1022.7l1.2,0
			l0,47.8c0,2.4-1.4,4.2-3,5.9c-2.5,2.1-5.2,2.8-8.3,2.8c-3.8,0-5.9-2.4-5.9-4.9c0.2-5.1,7.2-9.4,11.6-9.3c1.6,0,3.6,0.9,4.4,1.2
			L269.2,1022.7z"/>
		<path id="path9929-7-3_3_" inkscape:connector-curvature="0" sodipodi:nodetypes="ccccccccc" fill="#010101" d="M308.8,1015l1.2,0
			l0,47.8c0,2.4-1.4,4.2-3,5.9c-2.5,2.1-5.2,2.8-8.3,2.8c-3.8,0-5.9-2.4-5.9-4.9c0.2-5.1,7.2-9.4,11.6-9.3c1.6,0,3.6,0.9,4.4,1.2
			L308.8,1015z"/>
	</g>
	<g>
		<path id="path9929-7_11_" inkscape:connector-curvature="0" fill="#010101" d="M675.4,809l1.2,0l0,47.2c0,2.4-1.4,4.1-2.9,5.8
			c-2.4,2-5.1,2.7-8.2,2.7c-3.7,0-5.8-2.4-5.8-4.8c0.2-5,7.2-9.3,11.4-9.2c1.6,0,3.5,0.9,4.3,1.2L675.4,809z"/>
		<path id="path9929-7-0" inkscape:connector-curvature="0" fill="#010101" d="M630.6,809l1.2,0l0,47.2c0,2.4-1.4,4.1-2.9,5.8
			c-2.4,2-5.1,2.7-8.2,2.7c-3.7,0-5.8-2.4-5.8-4.8c0.2-5,7.2-9.3,11.4-9.2c1.6,0,3.5,0.9,4.3,1.2L630.6,809z"/>
		<path id="path9929-7-03" inkscape:connector-curvature="0" fill="#010101" d="M585.7,809.1l1.2,0l0,47.2c0,2.4-1.4,4.1-2.9,5.8
			c-2.4,2-5.1,2.7-8.2,2.7c-3.7,0-5.8-2.4-5.8-4.8c0.2-5,7.2-9.3,11.4-9.2c1.6,0,3.5,0.9,4.3,1.2L585.7,809.1z"/>
		<g id="e37_1_">
			<polygon fill="#010101" points="569.1,803.5 569.1,793 610.4,793 610.4,794.2 570.2,794.2 570.3,803.5 			"/>
			<polygon fill="#010101" points="678.1,803.4 676.9,803.4 676.9,794.1 636.7,794.1 636.7,792.9 678.1,793 			"/>
			<path id="path13258" inkscape:connector-curvature="0" sodipodi:nodetypes="cccccccccccccccccccc" fill="#010101" d="
				M618.5,797.1c-1.3,0-2,0.9-2,2.3c0,1.6,2.6,2.9,4.9,2.9c4,0,6.2-3.5,6.2-5.3c0-1.5-1.1-2.8-1.5-3.1c0.2-0.5,3.9-1.8,3.9-5.2
				c-0.3-3.2-2.2-4.2-4.4-4.2c-2.5,0-4.6,2.4-4.6,3.9c0,1.1,0.9,1.8,1.8,1.8c0.7,0,1.4-0.5,1.4-1.3c0-0.6-0.1-1.3-0.6-1.5
				c-0.3-0.9,0.1-1.7,1.4-1.7c1.3,0,1.9,1.3,1.9,2.8c0,2.6-1.4,4.2-5.2,4.2c-0.1,0.4-0.1,0.7-0.2,1.1c1.6,0.1,3.3,0.6,3.3,2.3
				c0,2.3-1.7,5.2-3.8,5.2c-0.7,0-1.4-0.4-1.7-0.9c0.5-0.6,1.2-1.3,1.2-2C620.4,797.8,619.5,797.1,618.5,797.1z"/>
		</g>
	</g>
	<g>
		<path id="path9929-7_12_" inkscape:connector-curvature="0" fill="#010101" d="M597.1,335.4l1.2,0l0,47.3c0,2.4-1.4,4.1-2.9,5.8
			c-2.4,2-5.2,2.8-8.2,2.7c-3.7,0-5.8-2.4-5.8-4.8c0.2-5,7.2-9.3,11.4-9.2c1.6,0,3.6,0.9,4.3,1.2L597.1,335.4z"/>
		<path id="path9929-7-3_1_" inkscape:connector-curvature="0" fill="#010101" d="M667.2,391l-1.2,0l0-47.3c0-2.4,1.4-4.1,2.9-5.8
			c2.4-2,5.2-2.8,8.2-2.7c3.7,0,5.8,2.4,5.8,4.8c-0.2,5-7.2,9.3-11.4,9.2c-1.6,0-3.6-0.9-4.3-1.2L667.2,391z"/>
		<path id="e39_1_" inkscape:connector-curvature="0" sodipodi:nodetypes="cssssssscssssssscc" fill="#010101" d="M606.6,380.7
			c-0.5-0.1-0.8-0.4-0.8-1.2c0-1.2,2.7-8.8,5.9-9.8c2.5-0.8,6.1,1.4,9.3,0c2.7-1.1,4-8.2,7.1-10.2c1.6-1,7.5,1.6,9.5,0.5
			c4-2.2,2.9-7.9,6.8-9.8c2.4-1.2,7.4,1.5,9.6,0.4c2.2-1.1,2.6-3.2,2.9-4.8c0.5,0.7,1.1,1,0.9,1.9c-0.5,3.1-2.9,7.8-5,9.2
			c-1.8,1.2-8.2-0.6-9.9-0.1c-2.2,0.7-3.8,8.1-6.3,9.5c-1.8,1-8.2-0.9-10-0.1c-2.6,1.3-4.3,8.6-7.5,9.8c-2.6,0.9-7.1-0.8-9.2-0.1
			C608.9,376.2,607.5,377.5,606.6,380.7L606.6,380.7z"/>
	</g>
	<g id="e44">
		<g id="layer1_5_" transform="translate(-297.02949,-476.66)">
			<path id="text2502_3_" fill="#010101" d="M379.4,933.8c0,0.2,0.1,0.4,0.2,0.5s0.3,0.2,0.6,0.2c0.3,0,0.6-0.1,0.9-0.3
				s0.5-0.5,0.6-0.9c0.3-0.8,0.7-1.7,1.2-2.5c0.5-0.9,1.1-1.3,1.8-1.4c0.2,0,0.4,0.1,0.4,0.2c0.1,0.1,0.1,0.3,0.1,0.6
				c0,0.2,0,0.5-0.1,0.7l-2.7,7.8c0,0.1-0.1,0.3,0,0.4c0,0.2,0.1,0.4,0.2,0.6c0.1,0.2,0.4,0.2,0.6,0.2h1c0.4,0,0.7-0.1,1-0.4
				c0.3-0.2,0.5-0.5,0.7-0.9l2.7-7.8c0.2-0.4,0.4-0.7,0.8-1c0.4-0.3,0.7-0.4,1.1-0.5c0.2,0,0.4,0.1,0.4,0.2c0.1,0.1,0.1,0.3,0.1,0.5
				c0,0.1,0,0.2,0,0.4c0,0.1-0.1,0.2-0.1,0.4l-2.2,7.8c0,0.1,0,0.1-0.1,0.2c0,0.1,0,0.1,0,0.2c0,0.3,0.1,0.5,0.3,0.6
				c0.2,0.2,0.4,0.2,0.7,0.2h1c0.4,0,0.7-0.1,1-0.4c0.3-0.2,0.5-0.5,0.6-0.9l2.3-7.8c0.1-0.4,0.4-0.7,0.7-1c0.3-0.3,0.7-0.4,1-0.5
				c0.2,0,0.4,0.1,0.5,0.2c0.1,0.2,0.1,0.3,0.1,0.6c0,0.2,0,0.4-0.1,0.6l-1.8,7.4c-0.1,0.2-0.1,0.4-0.1,0.6c0,0.4,0.1,0.8,0.4,1.1
				c0.2,0.3,0.6,0.4,1.1,0.4c1.7-0.1,3.2-0.7,4.6-1.7c1.4-1,2.1-1.8,2.2-2.3c0-0.2-0.1-0.4-0.2-0.5c-0.1-0.1-0.3-0.2-0.5-0.2
				c-0.4,0.1-0.9,0.4-1.5,0.9c-0.5,0.5-1.1,0.8-1.6,0.9c-0.1,0-0.2,0-0.2-0.1c-0.1-0.1-0.1-0.2-0.1-0.3c0-0.1,0-0.1,0-0.2l1.6-6.7
				c0-0.1,0-0.2,0.1-0.4c0-0.1,0-0.2,0-0.4c0-0.8-0.3-1.6-0.7-2.2c-0.5-0.6-1.1-1-1.9-1c-0.7,0-1.3,0.2-2,0.5
				c-0.6,0.3-1.2,0.7-1.8,1.2c-0.1-0.5-0.4-0.9-0.7-1.2c-0.3-0.3-0.7-0.5-1.2-0.5c-0.7,0-1.3,0.2-2,0.4c-0.6,0.3-1.2,0.7-1.8,1.2
				c-0.1-0.5-0.3-0.9-0.6-1.2c-0.3-0.3-0.7-0.4-1.1-0.5c-1.5,0.1-2.9,0.6-4,1.7s-2,2.2-2.7,3.3C379.8,932.6,379.4,933.4,379.4,933.8
				L379.4,933.8z M413.2,930.1h2.7c0.4,0,0.7-0.1,0.9-0.4c0.2-0.2,0.4-0.6,0.4-0.9c0-0.4-0.1-0.7-0.4-0.9c-0.2-0.2-0.6-0.4-0.9-0.4
				H414c0.3-1.4,0.7-2.6,1.2-3.8c0.5-1.1,1.4-1.8,2.5-1.8h0.3c0.3,0,0.5,0,0.7,0.1c0.2,0.1,0.3,0.2,0.3,0.4c-0.1,0.6-0.4,1-0.9,1.3
				c-0.5,0.2-0.8,0.6-0.9,1.2c0,0.6,0.2,1,0.6,1.4c0.4,0.4,0.8,0.6,1.4,0.6c0.8,0,1.4-0.4,1.8-1.1c0.4-0.7,0.6-1.5,0.6-2.4
				c0-1.1-0.4-2.1-1.1-2.8c-0.7-0.8-1.7-1.1-2.8-1.2c-2.1,0.1-4,0.9-5.7,2.5c-1.7,1.6-3,3.5-3.8,5.6h-2.4c-0.4,0-0.7,0.1-0.9,0.4
				c-0.2,0.2-0.4,0.6-0.4,0.9c0,0.4,0.1,0.7,0.4,0.9c0.2,0.2,0.6,0.4,0.9,0.4h1.7l-3,11.8c-0.2,1-0.6,1.9-1.1,2.7
				c-0.5,0.8-1.2,1.2-2.2,1.3H401c-0.3,0-0.5,0-0.7-0.1c-0.2-0.1-0.3-0.2-0.3-0.4c0.1-0.6,0.4-1,0.9-1.2c0.5-0.2,0.8-0.6,0.9-1.3
				c0-0.6-0.2-1-0.6-1.4c-0.4-0.4-0.8-0.6-1.4-0.6c-0.8,0-1.3,0.4-1.7,1.1c-0.4,0.7-0.6,1.5-0.6,2.4c0,1.1,0.4,2.1,1.1,2.8
				s1.7,1.1,2.8,1.2c1.5-0.1,2.9-0.7,4.2-2c1.3-1.3,2.5-2.8,3.4-4.5s1.7-3.4,2.2-5L413.2,930.1z"/>
		</g>
	</g>
	<g id="e45">
		<g id="layer1_6_" transform="translate(-287.55418,-505.93554)">
			<path id="text2502_4_" fill="#010101" d="M1462.4,966c-0.5,0-0.9-0.2-1.1-0.5c-0.2-0.3-0.3-0.7-0.3-1.3c0-0.8,0.2-1.8,0.6-3.1
				c0.4-1.3,1-2.4,1.7-3.5s1.6-1.6,2.5-1.6c0.4,0,0.7,0.2,0.9,0.5c0.2,0.3,0.3,0.6,0.3,1.1c0,0.3-0.2,1.2-0.5,2.5
				c-0.3,1.3-0.8,2.6-1.5,3.9C1464.3,965.2,1463.4,965.9,1462.4,966L1462.4,966z M1452.6,960.9c0,0.3,0.1,0.5,0.3,0.6
				s0.4,0.2,0.7,0.2c0.8-0.1,1.4-0.6,1.8-1.5s0.8-1.8,1.1-2.7c0.4-0.9,0.9-1.4,1.7-1.5c0.1,0,0.2,0,0.3,0.1c0.1,0.1,0.1,0.2,0.1,0.3
				c0,0.1,0,0.3-0.1,0.5c-0.1,0.2-0.1,0.4-0.2,0.6l-4.2,12.6c-0.4,1-1,1.5-1.8,1.7s-1.5,0.2-2.2,0.2c-0.7,0-1,0.3-1.1,1
				c0,0.2,0.1,0.5,0.2,0.7c0.2,0.2,0.4,0.3,0.7,0.3c0.1,0,0.6,0,1.5-0.1c0.9-0.1,2.1-0.1,3.5-0.1c1.4,0,2.5,0,3.4,0.1
				c0.9,0.1,1.5,0.1,1.6,0.1c0.3,0,0.5-0.1,0.7-0.3s0.2-0.4,0.2-0.7c0-0.6-0.2-0.9-0.6-0.9s-0.8-0.1-1.1-0.2
				c-0.4-0.1-0.6-0.5-0.6-1.3c0-0.2,0-0.4,0.1-0.5c0-0.2,0.1-0.3,0.1-0.5l0.8-2.4c0.2-0.5,0.6-0.5,1.4-0.1c0.7,0.4,1.8,0.6,3.3,0.7
				c1.5,0,3-0.8,4.7-2.4c1.7-1.6,2.6-3.7,2.7-6.4c0-1.5-0.4-2.8-1.3-3.8s-2.1-1.5-3.7-1.5c-0.8,0-1.7,0.2-2.5,0.7
				c-0.8,0.4-1.6,1-2.3,1.7c-0.2-0.7-0.5-1.3-0.9-1.7c-0.5-0.4-1.1-0.7-1.8-0.7c-1.3,0.1-2.4,0.7-3.3,1.7s-1.7,2.2-2.2,3.3
				C1452.9,959.9,1452.6,960.6,1452.6,960.9L1452.6,960.9z M1479.2,966c-0.5,0-0.9-0.2-1.1-0.5c-0.2-0.3-0.3-0.7-0.3-1.3
				c0-0.8,0.2-1.8,0.6-3.1c0.4-1.3,1-2.4,1.7-3.5s1.6-1.6,2.5-1.6c0.4,0,0.7,0.2,0.9,0.5c0.2,0.3,0.3,0.6,0.3,1.1
				c0,0.3-0.2,1.2-0.5,2.5c-0.3,1.3-0.8,2.6-1.5,3.9C1481.2,965.2,1480.3,965.9,1479.2,966L1479.2,966z M1469.5,960.9
				c0,0.3,0.1,0.5,0.3,0.6s0.4,0.2,0.7,0.2c0.8-0.1,1.4-0.6,1.8-1.5c0.4-0.9,0.8-1.8,1.1-2.7s0.9-1.4,1.7-1.5c0.1,0,0.2,0,0.3,0.1
				s0.1,0.2,0.1,0.3c0,0.1,0,0.3-0.1,0.5c-0.1,0.2-0.1,0.4-0.2,0.6l-4.2,12.6c-0.4,1-1,1.5-1.8,1.7c-0.8,0.1-1.5,0.2-2.2,0.2
				c-0.7,0-1,0.3-1.1,1c0,0.2,0.1,0.5,0.2,0.7c0.2,0.2,0.4,0.3,0.7,0.3c0.1,0,0.6,0,1.5-0.1c0.9-0.1,2.1-0.1,3.5-0.1
				c1.4,0,2.5,0,3.4,0.1c0.9,0.1,1.5,0.1,1.6,0.1c0.3,0,0.5-0.1,0.7-0.3s0.2-0.4,0.2-0.7c0-0.6-0.2-0.9-0.6-0.9
				c-0.4,0-0.8-0.1-1.1-0.2s-0.6-0.5-0.6-1.3c0-0.2,0-0.4,0.1-0.5c0-0.2,0.1-0.3,0.1-0.5l0.8-2.4c0.2-0.5,0.6-0.5,1.4-0.1
				c0.7,0.4,1.8,0.6,3.3,0.7c1.5,0,3-0.8,4.7-2.4c1.7-1.6,2.6-3.7,2.7-6.4c0-1.5-0.4-2.8-1.3-3.8s-2.1-1.5-3.7-1.5
				c-0.8,0-1.7,0.2-2.5,0.7c-0.8,0.4-1.6,1-2.3,1.7c-0.2-0.7-0.5-1.3-0.9-1.7c-0.5-0.4-1.1-0.7-1.8-0.7c-1.3,0.1-2.4,0.7-3.3,1.7
				s-1.7,2.2-2.2,3.3C1469.7,959.9,1469.5,960.6,1469.5,960.9L1469.5,960.9z"/>
		</g>
	</g>
	<g id="e46_2_">
		<g id="layer1_8_" transform="translate(-307.42099,-476.66)">
			<path id="text2502_6_" fill="#010101" d="M396.9,1396.7c0-0.5,0.2-0.8,0.6-1c0.4-0.2,0.8-0.3,1.4-0.3c0.3,0,0.5,0.1,0.6,0.3
				c0.2,0.2,0.2,0.4,0.2,0.6c0,0.2-0.1,0.3-0.1,0.5c-0.1,0.1-0.1,0.2-0.1,0.4c0,0.3,0.2,0.5,0.4,0.7c0.3,0.2,0.6,0.3,1.1,0.3
				c0.4,0,0.7-0.2,0.9-0.4c0.2-0.3,0.3-0.6,0.3-1c0-0.7-0.3-1.3-0.9-2c-0.6-0.6-1.6-1-3-1c-1.2,0-2.2,0.5-3,1.3
				c-0.8,0.8-1.2,1.8-1.2,3.1c0.1,0.8,0.5,1.4,1.2,1.8c0.8,0.4,1.5,0.9,2.3,1.3c0.8,0.4,1.2,1.1,1.2,1.9c0,0.7-0.4,1.3-1,1.6
				c-0.6,0.4-1.4,0.6-2.2,0.6c-0.3,0-0.6-0.1-0.9-0.2s-0.4-0.4-0.4-0.6c0-0.3,0.2-0.5,0.5-0.7c0.3-0.2,0.5-0.4,0.5-0.7
				c0-0.4-0.2-0.8-0.4-1.1c-0.3-0.3-0.6-0.4-1.1-0.5c-0.5,0-0.8,0.2-1.1,0.6c-0.2,0.4-0.4,0.8-0.4,1.3c0,1,0.4,1.9,1,2.6
				s1.5,1.1,2.5,1.1c1.6,0,2.9-0.6,4-1.6c1.1-1,1.6-2.3,1.7-3.8c-0.1-1-0.5-1.8-1.2-2.3c-0.7-0.5-1.5-1-2.2-1.3
				C397.4,1397.8,397,1397.3,396.9,1396.7L396.9,1396.7z M412.3,1397h2.7c0.4,0,0.7-0.1,0.9-0.4c0.3-0.3,0.4-0.6,0.4-0.9
				c0-0.4-0.1-0.7-0.4-0.9c-0.3-0.3-0.6-0.4-0.9-0.4h-1.9c0.3-1.4,0.7-2.7,1.3-3.9c0.5-1.2,1.4-1.8,2.6-1.9h0.3c0.3,0,0.5,0,0.7,0.1
				s0.3,0.2,0.3,0.4c-0.1,0.6-0.4,1.1-0.9,1.3c-0.5,0.2-0.8,0.6-0.9,1.3c0,0.6,0.2,1,0.6,1.4c0.4,0.4,0.9,0.6,1.4,0.6
				c0.8,0,1.4-0.4,1.8-1.1c0.4-0.7,0.6-1.5,0.6-2.4c0-1.2-0.4-2.1-1.2-2.9c-0.8-0.8-1.7-1.2-2.8-1.2c-2.1,0.1-4.1,0.9-5.8,2.6
				s-3,3.6-3.9,5.8h-2.5c-0.4,0-0.7,0.1-0.9,0.4c-0.3,0.3-0.4,0.6-0.4,0.9c0,0.4,0.1,0.7,0.4,0.9c0.3,0.3,0.6,0.4,0.9,0.4h1.7
				l-3.1,12.2c-0.2,1-0.6,2-1.2,2.8c-0.5,0.8-1.3,1.3-2.2,1.3h-0.3c-0.3,0-0.5,0-0.7-0.1c-0.2-0.1-0.3-0.2-0.3-0.4
				c0.1-0.6,0.4-1,0.9-1.3c0.5-0.2,0.8-0.6,0.9-1.3c0-0.6-0.2-1-0.6-1.4c-0.4-0.4-0.9-0.6-1.5-0.6c-0.8,0-1.4,0.4-1.8,1.1
				c-0.4,0.7-0.6,1.5-0.6,2.5c0,1.2,0.4,2.1,1.2,2.9c0.8,0.8,1.7,1.2,2.8,1.2c1.5-0.1,3-0.7,4.3-2c1.4-1.3,2.5-2.9,3.5-4.7
				c1-1.8,1.7-3.5,2.2-5.1L412.3,1397z M421.6,1398.3h1.7h0.1l-7.5,7.2c-0.2,0.2-0.3,0.5-0.3,0.7c0,0.3,0.1,0.5,0.3,0.7
				c0.2,0.2,0.4,0.3,0.7,0.3c0.3,0,0.6-0.2,0.8-0.4s0.7-0.4,1.6-0.4c0.7,0.1,1.3,0.6,1.7,1.4s0.9,1.3,1.7,1.4c1.7,0,3.2-0.4,4.5-1.2
				c1.3-0.8,2-1.9,2-3.3c0-0.3-0.1-0.9-0.3-1.9c-0.2-1-0.6-1.5-1.3-1.7c-0.2,0-0.5,0.1-0.7,0.3c-0.2,0.2-0.3,0.4-0.3,0.7
				c0,0.2,0,0.3,0.1,0.4c0.1,0.1,0.1,0.3,0.1,0.6c0,0.6-0.3,1.1-0.8,1.6c-0.5,0.4-1.2,0.7-1.9,0.7c-0.6,0-1.2-0.2-1.7-0.6
				c-0.5-0.4-1.1-0.6-1.7-0.8l7.1-6.8c0.2-0.2,0.3-0.5,0.3-0.7c0-0.3-0.1-0.5-0.3-0.7c-0.2-0.2-0.4-0.3-0.7-0.3
				c-0.3,0-0.6,0.2-0.9,0.5c-0.3,0.3-0.7,0.5-1.3,0.5c-0.8-0.1-1.5-0.3-2.2-0.8c-0.7-0.5-1.4-0.7-2.2-0.8c-0.7,0-1.3,0.4-1.8,1.1
				c-0.5,0.7-0.8,1.4-0.8,2.1c0,0.2,0.1,0.3,0.2,0.4c0.1,0.1,0.3,0.1,0.5,0.1c0.3,0,0.7-0.1,1.1-0.2
				C419.9,1398.4,420.6,1398.3,421.6,1398.3L421.6,1398.3z"/>
		</g>
	</g>
	<g id="e47_2_">
		<g id="layer1_7_" transform="translate(-299.92123,-476.66)">
			<path id="text2502_5_" fill="#010101" d="M1478,1397h2.7c0.4,0,0.7-0.1,1-0.4s0.4-0.6,0.4-1c0-0.4-0.1-0.7-0.4-1s-0.6-0.4-1-0.4
				h-2c0.3-1.4,0.7-2.7,1.3-3.9s1.4-1.8,2.6-1.9h0.3c0.3,0,0.5,0,0.7,0.1c0.2,0.1,0.3,0.2,0.3,0.4c-0.1,0.7-0.4,1.1-0.9,1.3
				c-0.5,0.2-0.8,0.6-0.9,1.3c0,0.6,0.2,1.1,0.6,1.4c0.4,0.4,0.9,0.6,1.4,0.6c0.8,0,1.4-0.4,1.8-1.1s0.6-1.5,0.6-2.5
				c0-1.2-0.4-2.1-1.2-2.9s-1.7-1.2-2.9-1.2c-2.2,0.1-4.1,0.9-5.9,2.6s-3.1,3.6-3.9,5.8h-2.5c-0.4,0-0.7,0.1-1,0.4s-0.4,0.6-0.4,1
				c0,0.4,0.1,0.7,0.4,1s0.6,0.4,1,0.4h1.7l-3.1,12.2c-0.2,1-0.6,2-1.2,2.8c-0.5,0.8-1.3,1.3-2.2,1.3h-0.3c-0.3,0-0.5,0-0.7-0.1
				c-0.2-0.1-0.3-0.2-0.3-0.4c0.1-0.6,0.4-1,0.9-1.3c0.5-0.2,0.8-0.6,0.9-1.3c0-0.6-0.2-1-0.6-1.4c-0.4-0.4-0.9-0.6-1.5-0.6
				c-0.8,0-1.4,0.4-1.8,1.1c-0.4,0.7-0.6,1.5-0.6,2.5c0,1.2,0.4,2.1,1.2,2.9c0.8,0.8,1.7,1.2,2.9,1.2c1.5-0.1,3-0.7,4.3-2.1
				c1.4-1.3,2.5-2.9,3.6-4.7c1-1.8,1.8-3.5,2.2-5.1L1478,1397z M1493,1397h2.7c0.4,0,0.7-0.1,1-0.4c0.3-0.3,0.4-0.6,0.4-1
				c0-0.4-0.1-0.7-0.4-1c-0.3-0.3-0.6-0.4-1-0.4h-2c0.3-1.4,0.7-2.7,1.3-3.9s1.4-1.8,2.6-1.9h0.3c0.3,0,0.5,0,0.7,0.1
				c0.2,0.1,0.3,0.2,0.3,0.4c-0.1,0.7-0.4,1.1-0.9,1.3c-0.5,0.2-0.8,0.6-0.9,1.3c0,0.6,0.2,1.1,0.6,1.4s0.9,0.6,1.4,0.6
				c0.8,0,1.4-0.4,1.8-1.1c0.4-0.7,0.6-1.5,0.6-2.5c0-1.2-0.4-2.1-1.2-2.9c-0.8-0.8-1.7-1.2-2.9-1.2c-2.2,0.1-4.1,0.9-5.9,2.6
				c-1.8,1.6-3.1,3.6-3.9,5.8h-2.5c-0.4,0-0.7,0.1-1,0.4s-0.4,0.6-0.4,1c0,0.4,0.1,0.7,0.4,1s0.6,0.4,1,0.4h1.7l-3.1,12.2
				c-0.2,1-0.6,2-1.2,2.8s-1.3,1.3-2.2,1.3h-0.3c-0.3,0-0.5,0-0.7-0.1c-0.2-0.1-0.3-0.2-0.3-0.4c0.1-0.6,0.4-1,0.9-1.3
				c0.5-0.2,0.8-0.6,0.9-1.3c0-0.6-0.2-1-0.6-1.4c-0.4-0.4-0.9-0.6-1.5-0.6c-0.8,0-1.4,0.4-1.8,1.1c-0.4,0.7-0.6,1.5-0.6,2.5
				c0,1.2,0.4,2.1,1.2,2.9c0.8,0.8,1.7,1.2,2.9,1.2c1.5-0.1,3-0.7,4.3-2.1c1.4-1.3,2.5-2.9,3.6-4.7c1-1.8,1.8-3.5,2.2-5.1L1493,1397
				z"/>
		</g>
	</g>
</g>
<g id="Layer_8">
	<rect x="1249" y="1021.6" fill="#010101" width="8" height="58.1"/>
	<rect x="1243.7" y="1021.6" fill="#010101" width="1.6" height="58.1"/>
	<rect x="40" y="175.4" fill="#010101" width="1.6" height="58.1"/>
	<rect x="40" y="335.2" fill="#010101" width="1.6" height="58.1"/>
	<rect x="1255.5" y="335.2" fill="#010101" width="1.6" height="58.1"/>
	<rect x="1255.5" y="175.5" fill="#010101" width="1.6" height="58.1"/>
	<rect x="1255.5" y="808.2" fill="#010101" width="1.6" height="58.1"/>
	<rect x="1255.5" y="548.2" fill="#010101" width="1.6" height="58.1"/>
	<rect x="40" y="548.2" fill="#010101" width="1.6" height="58.1"/>
	<rect x="40" y="808.2" fill="#010101" width="1.6" height="58.1"/>
	<rect x="40" y="1021.8" fill="#010101" width="1.6" height="58.1"/>
</g>
<g id="title">
	<g>
		<g>
			<path d="M550,66.3h-4.4c14.7-18.5,22-28.7,22-30.4c0-0.7-0.3-1.1-1-1.1c-3,0-13.4,10.5-31.2,31.5h-4.4c14.7-18.5,22-28.7,22-30.4
				c0-0.7-0.3-1.1-0.9-1.1c-1.1,0-3.9,2.1-8.4,6.3c-4.2,3.9-8,7.9-11.6,12.1l-0.7-0.7c11-12.4,18.1-18.6,21.5-18.6
				c1.2,0,1.9,0.7,1.9,2c0,1.4-0.8,3.3-2.3,6c-0.7,1.2-3.4,5.4-8.3,12.7l0.2,0.2c12-13.9,19.7-20.9,23.1-20.9c1.2,0,1.9,0.7,1.9,2
				c0,1.4-0.8,3.3-2.3,6c-0.6,1.1-3.4,5.5-8.4,13l0.2,0.2c12.5-14.1,20.2-21.2,23.1-21.2c1.2,0,1.8,1,1.8,2.9c0,2.7-1.7,6.3-5,10.6
				c-1.1,1.4-4.2,4.9-9.3,10.5c-3.3,3.7-5,6.1-5,7.3c0,0.8,0.4,1.2,1.2,1.2c1.4,0,4.1-1.7,7.9-5.2c3.1-2.9,6-5.8,8.6-8.7L583,53
				c-8.3,9.5-14.1,14.2-17.3,14.2c-1.7,0-2.6-1-2.6-3.1c0-2.5,1.7-5.9,5-10.1c0.9-1.2,3.9-4.7,9.2-10.7c3.3-3.8,5-6.2,5-7.3
				c0-0.8-0.4-1.2-1.1-1.2c-1.5,0-6.3,4.3-14.3,12.8C560.7,54.1,555.1,60.4,550,66.3z"/>
			<path d="M563.1,110.8c1.2,0,3.4-2.3,6.6-6.9c3.5-5.2,7-10.4,10.5-15.6c7.7-11.3,13.3-18.8,17-22.2c2-2,5-4.4,8.9-7.4
				c3.9-2.9,6.5-5,7.8-6.3l0.6,0.7c-1.7,1.6-4.4,3.7-8,6.4c-3.6,2.7-6.1,4.7-7.5,6c-4.6,4.2-10.5,11.9-17.7,23
				c-10,15.6-16.1,23.3-18.3,23.3c-0.9,0-1.4-0.5-1.4-1.4c0-3.2,5.3-11.8,15.8-25.9c3.1-4.2,12.6-16.3,28.5-36.5l-0.2-0.2
				c-4,4.8-8,9.1-12,12.9c-4.8,4.6-8.1,6.9-9.8,6.9c-1.4,0-2.1-1-2.1-3c0-2.7,0.7-5.6,2.2-8.7c1.6-3.5,3.9-6.8,7-9.7
				c0.1-0.1,0-0.2-0.2-0.2c-2.5,1.5-5.1,3.9-7.8,7.2l-0.7-0.7c1.8-2.4,4.6-4.9,8.4-7.7c4.3-3.1,8.6-5.5,12.9-7.3
				c4.2-1.7,8.2-2.5,12.3-2.5c0.8,0,2,0.1,3.6,0.2c-21.1,26.2-35.6,44.4-43.5,54.7c-9,11.8-13.5,18.6-13.5,20.4
				C562.6,110.6,562.7,110.8,563.1,110.8z M615,35.9c-7.8,0-15.3,4.5-22.8,13.6c-6,7.2-8.9,12.4-8.9,15.7c0,0.7,0.3,1.1,0.9,1.1
				c2.1,0,7.3-4.4,15.7-13.2C605.6,47,610.6,41.3,615,35.9z"/>
			<path d="M626.9,40.6c-2.3,2.2-6.5,6.4-12.6,12.5l-0.7-0.7c9.6-9.4,15.4-15.1,17.4-17.3h4.8c-7.7,9.1-12.4,14.8-14,17
				c-5.8,7.3-8.7,11.8-8.7,13.4c0,0.6,0.2,0.8,0.7,0.8c3.2,0,13.5-10.4,31-31.2h4.7c-14.8,18.2-22.1,28.3-22.1,30.4
				c0,0.6,0.2,0.8,0.7,0.8c1.1,0,3.2-1.3,6.2-4c3-2.7,6.3-6,9.7-10l0.7,0.7c-8.1,9.7-13.8,14.5-17.1,14.5c-1.2,0-1.9-0.7-1.9-2
				c0-1.4,0.7-3.3,2.2-5.9c0.6-1.1,3.1-5.1,7.5-12l-0.2-0.2c-6.3,6.9-10.8,11.8-13.6,14.5c-3.9,3.7-6.6,5.6-8.2,5.6
				c-1.3,0-2-0.9-2-2.6c0-2.4,1.9-6.3,5.7-11.5c1.2-1.6,4.5-5.8,10-12.5c0.2-0.2,0.2-0.3,0.1-0.5C627.2,40.3,627,40.4,626.9,40.6z"
				/>
			<path d="M657.5,40.9c0.2-0.2,0.2-0.3,0.1-0.5c-0.2-0.1-0.3-0.1-0.5,0.2c-2.4,2.3-6.6,6.4-12.5,12.5l-0.7-0.7
				c4.8-4.6,10.6-10.4,17.4-17.3h4.8c-4.6,5.9-9.3,11.7-14,17.6c-5.5,7.1-8.2,11.4-8.2,12.8c0,0.6,0.2,0.8,0.7,0.8
				c1.1,0,3.2-1.3,6.2-4c3-2.7,6.3-6,9.7-10l0.7,0.7c-8.1,9.7-13.8,14.5-17.1,14.5c-1.2,0-1.9-0.7-1.9-2c0-2.5,1.6-6.1,4.8-10.9
				C648,53.4,651.5,48.8,657.5,40.9z M680.3,9.7c0.9,0,1.4,0.6,1.4,1.9c0,0.9-0.4,1.8-1.1,2.7c-0.7,0.9-1.5,1.3-2.3,1.3
				c-1,0-1.5-0.6-1.5-1.7c0-1.1,0.4-2,1.2-2.9C678.7,10.1,679.5,9.7,680.3,9.7z"/>
			<path d="M676.7,52.3c0.4-0.4,0.8-0.6,1.4-0.6c1.8,0,2.7,0.9,2.7,2.6c0,1.4-1.4,3.5-4.1,6.3c-2.7,2.8-4.1,4.5-4.1,5.1
				c0,0.4,0.2,0.6,0.6,0.6c1.6,0,4.3-1.7,8.2-5.1c3.1-2.7,6-5.7,8.7-8.9l0.7,0.7c-2.8,3.2-5.8,6.2-9,8.9c-4.1,3.5-7,5.3-8.8,5.3
				c-1.4,0-2.1-0.8-2.1-2.4c0-1.6,1.3-3.8,4-6.5c2.7-2.7,4-4.4,4-5.1c0-0.6-0.3-0.9-0.9-0.9c-0.6,0-1.4,0.2-2.2,0.7
				c-3.5,3.2-7.8,7.1-12.9,11.9c-1.7,1.5-2.8,2.3-3.4,2.3c-0.2,0-0.3-0.1-0.3-0.4c0-0.7,0.8-1.8,2.4-3.5c1.9-1.9,4.2-3.8,7.1-5.5
				c1.7-1.1,5.2-4.1,10.3-9c-0.4,0.4-0.8,0.6-1.4,0.6c-1.8,0-2.7-0.9-2.7-2.6c0-1.4,1.3-3.5,4-6.2c2.7-2.7,4-4.4,4-5
				c0-0.5-0.2-0.7-0.6-0.7c-1.2,0-4.5,2.5-9.9,7.4c-4.8,4.4-8.4,8-10.9,10.9l-0.7-0.7c3.1-3.5,6.9-7.3,11.3-11.3
				c5.4-4.9,8.9-7.3,10.4-7.3c1.4,0,2.1,0.8,2.1,2.4c0,1.6-1.3,3.8-3.9,6.5c-2.6,2.7-3.9,4.4-3.9,5.1c0,0.6,0.3,0.9,0.9,0.9
				c0.6,0,1.3-0.2,2-0.7l13.2-12c1.6-1.5,2.7-2.3,3.3-2.3c0.2,0,0.4,0.1,0.4,0.4c0,0.7-0.8,1.8-2.4,3.5c-1.9,1.9-4.3,3.7-7.2,5.5
				C684.3,44.9,680.9,47.9,676.7,52.3z"/>
			<path d="M695.4,61.8c1.8,0,2.7,0.9,2.7,2.7s-0.9,2.7-2.7,2.7c-1.8,0-2.7-0.9-2.7-2.7S693.6,61.8,695.4,61.8z"/>
			<path d="M708,52.5c1.8-1.8,5.4-5.5,10.8-11.1c2.8-2.9,5.5-5.8,8.1-8.6c0-0.3,0-0.8,0-1.4c0-1.4,0.3-2.5,1-3.4
				c0.7-0.9,1.5-1.3,2.4-1.3c0.7,0,1.1,0.4,1.1,1.2c0,0.9-1.2,2.5-3.5,5c0.3,2.2,1.8,4.3,4.4,6.1c-2.2,2.2-5.8,6.6-11,13.4
				c-5.5,7.3-8.3,11.6-8.3,12.8c0,0.7,0.3,1,1,1c1.5,0,4-1.4,7.4-4.1c3.1-2.4,5.9-5,8.4-7.6c0.4-0.4,1.1-1.2,2-2.2l0.7,0.7
				c-2.4,2.8-5.4,5.6-8.8,8.6c-4.4,3.8-7.6,5.7-9.6,5.7c-1.8,0-2.7-1-2.7-3.1c0-4.8,6.1-13.4,18.4-25.9c-1.4-1.5-2.2-2.9-2.5-4.4
				c-4.7,4.8-10.8,11.3-18.5,19.3L708,52.5z M727.8,31.9c1.7-1.8,2.6-3.1,2.6-3.9c0-0.2-0.1-0.4-0.4-0.4c-0.6,0-1.1,0.4-1.5,1.3
				C728,29.8,727.8,30.8,727.8,31.9z"/>
			<path d="M744.9,40.6c-2.3,2.2-6.5,6.4-12.6,12.5l-0.7-0.7c9.6-9.4,15.4-15.1,17.4-17.3h4.8c-7.7,9.1-12.4,14.8-14,17
				c-5.8,7.3-8.7,11.8-8.7,13.4c0,0.6,0.2,0.8,0.7,0.8c3.2,0,13.5-10.4,31-31.2h4.7c-14.8,18.2-22.1,28.3-22.1,30.4
				c0,0.6,0.2,0.8,0.7,0.8c1.1,0,3.2-1.3,6.2-4c3-2.7,6.3-6,9.7-10l0.7,0.7c-8.1,9.7-13.8,14.5-17.1,14.5c-1.2,0-1.9-0.7-1.9-2
				c0-1.4,0.7-3.3,2.2-5.9c0.6-1.1,3.1-5.1,7.5-12l-0.2-0.2c-6.3,6.9-10.8,11.8-13.6,14.5c-3.9,3.7-6.6,5.6-8.2,5.6
				c-1.3,0-2-0.9-2-2.6c0-2.4,1.9-6.3,5.7-11.5c1.2-1.6,4.5-5.8,10-12.5c0.2-0.2,0.2-0.3,0.1-0.5C745.2,40.3,745,40.4,744.9,40.6z"
				/>
		</g>
		<g>
			<path d="M638.6,96.2c2,1.7,3.8,2.9,5.3,3.8c2,1.1,3.8,1.6,5.5,1.6c1.8,0,3.4-0.4,4.8-1.1c0.1,0,0.2,0,0.2,0.1c0,0,0,0.1-0.1,0.1
				c-0.5,0.4-1.2,0.8-2,1.1c-1,0.4-2,0.5-3.1,0.5c-1.9,0-3.9-0.6-6-1.8c-1.4-0.9-3.2-2.2-5.3-4.1c-1.2,0.4-2.4,0.6-3.4,0.6
				c-2.6,0-3.9-1.3-4-3.9c-1.4,0-2.5-0.2-3.2-0.6c-0.7-0.3-1-0.8-1-1.3c0-0.3,0.2-0.6,0.5-0.9c0.3-0.2,0.8-0.3,1.4-0.3
				c0.9,0,1.8,0.2,2.7,0.6c0.5-1.9,1.7-4,3.6-6.1c1.8-2.1,4-3.8,6.3-5.1c2.5-1.4,4.6-2.2,6.5-2.2c1.4,0,2.1,0.6,2.1,1.7
				c0,0.4-0.1,0.8-0.3,1.2c0.7,0.6,1,1.6,1,3c0,2.6-1.2,5.1-3.6,7.7C644.2,93.3,641.6,95.1,638.6,96.2z M630.7,91
				c-0.9-0.5-1.8-0.7-2.7-0.7c-0.5,0-0.9,0.1-1.2,0.3c-0.3,0.2-0.4,0.4-0.4,0.7c0,0.4,0.3,0.8,0.9,1.1c0.7,0.4,1.8,0.6,3.1,0.6
				C630.4,92.4,630.5,91.7,630.7,91z M637.6,96.3c-0.9-0.9-2.3-2.1-4.2-3.6c-0.7,0.2-1.4,0.4-2.1,0.5c0,0.3,0,0.5,0,0.6
				c0,0.8,0.2,1.5,0.7,2c0.6,0.7,1.5,1,2.7,1C635.5,96.8,636.5,96.6,637.6,96.3z M631.7,91.5c-0.2,0.6-0.3,1-0.4,1.5
				c0.6-0.1,1.2-0.2,1.9-0.4C632.7,92.1,632.1,91.7,631.7,91.5z M637.4,90.7c-0.4-0.4-0.6-1-0.6-1.7c0-1.6,0.5-3.1,1.7-4.7
				c1-1.4,2.3-2.6,3.8-3.6c1.5-0.9,3-1.4,4.3-1.4c1,0,1.8,0.2,2.4,0.7c0.1-0.3,0.2-0.7,0.2-1c0-1-0.6-1.6-1.9-1.6
				c-1.5,0-3.4,0.8-5.6,2.3c-2.1,1.4-4,3.2-5.9,5.3c-1.9,2.2-3.2,4.2-3.9,6.1c0.6,0.3,1.2,0.7,1.9,1.2
				C634.8,92.1,636,91.5,637.4,90.7z M638.4,96c2.9-1,5.6-2.7,7.9-5.2c2.4-2.6,3.6-5.1,3.6-7.6c0-1.3-0.3-2.2-0.9-2.8
				c-0.6,1.5-2,3.3-4.2,5.2c-2.1,2-4.5,3.7-7,5.1c0.3,0.2,0.7,0.3,1.2,0.3c0.8,0,1.7-0.2,2.7-0.7c1-0.5,2-1.1,2.9-1.9
				c0.1-0.1,0.1-0.1,0.2-0.1c0.1,0,0.1,0,0.1,0.1c0,0.1,0,0.1-0.1,0.1c-0.9,0.8-1.9,1.5-3,2c-1.1,0.5-2.1,0.8-2.9,0.8
				c-0.5,0-1-0.1-1.4-0.4c-1.1,0.6-2.4,1.2-3.6,1.6C634.4,92.9,635.9,94,638.4,96z M637.7,90.6c2.3-1.2,4.5-2.8,6.8-4.8
				c2.3-2.1,3.8-3.9,4.4-5.5c-0.5-0.5-1.3-0.7-2.3-0.7c-1.2,0-2.5,0.5-4.1,1.6c-1.5,1-2.7,2.3-3.7,3.8c-1.1,1.5-1.6,2.9-1.6,4.1
				C637.2,89.7,637.3,90.2,637.7,90.6z"/>
			<path d="M650.7,90.3c-0.5,0.5-1.5,1.5-3,2.9l-0.2-0.2c2.3-2.2,3.6-3.6,4.1-4.1h1.1c-1.8,2.2-2.9,3.5-3.3,4
				c-1.4,1.7-2.1,2.8-2.1,3.2c0,0.1,0.1,0.2,0.2,0.2c0.7,0,3.2-2.5,7.3-7.4h1.1c-3.5,4.3-5.2,6.7-5.2,7.2c0,0.1,0.1,0.2,0.2,0.2
				c0.3,0,0.8-0.3,1.5-0.9s1.5-1.4,2.3-2.4l0.2,0.2c-1.9,2.3-3.3,3.4-4,3.4c-0.3,0-0.4-0.2-0.4-0.5c0-0.3,0.2-0.8,0.5-1.4
				c0.1-0.3,0.7-1.2,1.8-2.8l0,0c-1.5,1.6-2.6,2.8-3.2,3.4c-0.9,0.9-1.6,1.3-1.9,1.3c-0.3,0-0.5-0.2-0.5-0.6c0-0.6,0.4-1.5,1.3-2.7
				C648.7,92.9,649.5,91.9,650.7,90.3c0.1,0,0.1,0,0.1,0C650.8,90.2,650.7,90.2,650.7,90.3z"/>
			<path d="M660.3,92c-2.7,3.1-4.5,4.6-5.2,4.6c-0.3,0-0.5-0.2-0.5-0.7c0-1.5,0.7-3,2.2-4.5c0,0,0,0,0,0c-0.6,0.5-1.3,1.1-1.9,1.8
				l-0.2-0.2c1.3-1.6,3-2.7,5-3.5c1-0.4,2-0.6,2.9-0.6c0.2,0,0.5,0,0.9,0c-1.1,1.4-2.2,2.8-3.4,4.2c-1.3,1.7-1.9,2.6-1.9,2.9
				c0,0.2,0.1,0.3,0.2,0.3c0.3,0,1-0.4,2-1.3c0.8-0.7,1.5-1.4,1.9-2l0.2,0.2c-0.5,0.6-1.2,1.2-1.9,1.9c-1.1,1-1.9,1.5-2.3,1.5
				c-0.3,0-0.4-0.2-0.4-0.5C657.9,95.5,658.7,94.1,660.3,92L660.3,92z M662.5,89.2c-1.8,0-3.6,1.1-5.4,3.2c-1.4,1.7-2.1,2.9-2.1,3.7
				c0,0.2,0.1,0.3,0.2,0.3c0.5,0,1.7-1,3.7-3.1C660.2,91.8,661.4,90.5,662.5,89.2z"/>
			<path d="M666.5,89.2c-1,1-2.3,2.4-3.9,4.1l-0.2-0.2c0.4-0.4,1.3-1.3,2.6-2.6c0.6-0.6,1.2-1.2,1.9-2c0.7-0.8,1.1-1.2,1.2-1.2
				c0.1,0,0.2,0.1,0.2,0.2c0,0.1,0,0.1-0.1,0.2c-0.7,0.5-1.2,1.2-1.5,1.9c-0.1,0.2-0.2,0.7-0.2,1.4c0,0.7-0.2,1.3-0.3,1.8
				c-0.4,1.1-1,2-1.9,2.8c-0.8,0.7-1.5,1-2,1c-0.5,0-0.8-0.3-0.8-0.9c0-0.4,0.1-0.7,0.3-1c0.2-0.3,0.5-0.5,0.8-0.5
				c0.3,0,0.5,0.1,0.5,0.4c0,0.4-0.2,0.6-0.6,0.6c-0.2,0-0.4,0.1-0.5,0.2c-0.1,0.1-0.2,0.3-0.2,0.5c0,0.3,0.2,0.5,0.5,0.5
				c0.5,0,1.1-0.4,1.8-1.2c0.7-0.8,1.2-1.9,1.6-3.1C665.9,90.6,666.3,89.7,666.5,89.2C666.6,89.1,666.5,89.1,666.5,89.2z"/>
			<path d="M670,90.4c0,0,0.1-0.1,0-0.1C670,90.2,669.9,90.2,670,90.4c-0.7,0.5-1.6,1.5-3,2.9l-0.2-0.2c1.1-1.1,2.5-2.5,4.1-4.1h1.1
				c-1.1,1.4-2.2,2.8-3.3,4.2c-1.3,1.7-1.9,2.7-1.9,3c0,0.1,0.1,0.2,0.2,0.2c0.3,0,0.8-0.3,1.5-0.9s1.5-1.4,2.3-2.4l0.2,0.2
				c-1.9,2.3-3.3,3.4-4,3.4c-0.3,0-0.4-0.2-0.4-0.5c0-0.6,0.4-1.4,1.1-2.6C667.8,93.3,668.6,92.2,670,90.4z M675.4,83
				c0.2,0,0.3,0.1,0.3,0.4c0,0.2-0.1,0.4-0.3,0.6c-0.2,0.2-0.4,0.3-0.5,0.3c-0.2,0-0.4-0.1-0.4-0.4c0-0.2,0.1-0.5,0.3-0.7
				C675,83.1,675.2,83,675.4,83z"/>
			<path d="M678.5,90.3c-0.5,0.5-1.5,1.5-3,2.9l-0.2-0.2c2.3-2.2,3.6-3.6,4.1-4.1h1.1c-1.8,2.2-2.9,3.5-3.3,4
				c-1.4,1.7-2.1,2.8-2.1,3.2c0,0.1,0.1,0.2,0.2,0.2c0.7,0,3.2-2.5,7.3-7.4h1.1c-3.5,4.3-5.2,6.7-5.2,7.2c0,0.1,0.1,0.2,0.2,0.2
				c0.3,0,0.8-0.3,1.5-0.9s1.5-1.4,2.3-2.4l0.2,0.2c-1.9,2.3-3.3,3.4-4,3.4c-0.3,0-0.4-0.2-0.4-0.5c0-0.3,0.2-0.8,0.5-1.4
				c0.1-0.3,0.7-1.2,1.8-2.8l0,0c-1.5,1.6-2.6,2.8-3.2,3.4c-0.9,0.9-1.6,1.3-1.9,1.3c-0.3,0-0.5-0.2-0.5-0.6c0-0.6,0.5-1.5,1.3-2.7
				C676.5,92.9,677.3,91.9,678.5,90.3c0.1,0,0.1,0,0.1,0C678.5,90.2,678.5,90.2,678.5,90.3z"/>
			<path d="M683.5,96.4h-1.1c2-2.6,3.1-4,3.3-4.2c1.3-1.7,1.9-2.7,1.9-3c0-0.1-0.1-0.2-0.2-0.2c-0.3,0-0.9,0.4-1.9,1.3
				c-1,0.9-1.9,1.9-2.9,3l-0.2-0.2c2.6-2.9,4.3-4.4,5.1-4.4c0.3,0,0.4,0.2,0.4,0.5s-0.2,0.8-0.5,1.4c-0.1,0.2-0.7,1.1-1.8,2.8l0,0
				c2.8-3.2,4.6-4.7,5.2-4.7c0.3,0,0.5,0.2,0.5,0.7c0,0.6-0.4,1.5-1.2,2.5c-0.3,0.3-1,1.2-2.2,2.5c-0.8,0.9-1.2,1.5-1.2,1.7
				c0,0.2,0.1,0.3,0.3,0.3c0.7,0,2-1.1,3.9-3.3l0.2,0.2c-2,2.2-3.3,3.4-4.1,3.4c-0.4,0-0.6-0.2-0.6-0.7c0-0.6,0.4-1.4,1.2-2.3
				c0-0.1,0.8-0.9,2.2-2.5c0.8-0.9,1.2-1.5,1.2-1.8c0-0.2-0.1-0.2-0.2-0.2c-0.4,0-1.4,0.9-3.1,2.6C686.4,93,685,94.6,683.5,96.4z"/>
			<path d="M696.6,92c-2.7,3.1-4.5,4.6-5.2,4.6c-0.3,0-0.5-0.2-0.5-0.7c0-1.5,0.7-3,2.2-4.5c0,0,0,0,0,0c-0.6,0.5-1.3,1.1-1.9,1.8
				l-0.2-0.2c1.3-1.6,3-2.7,5-3.5c1-0.4,2-0.6,2.9-0.6c0.2,0,0.5,0,0.9,0c-1.1,1.4-2.2,2.8-3.4,4.2c-1.3,1.7-1.9,2.6-1.9,2.9
				c0,0.2,0.1,0.3,0.2,0.3c0.3,0,1-0.4,2-1.3c0.8-0.7,1.5-1.4,1.9-2l0.2,0.2c-0.5,0.6-1.2,1.2-1.9,1.9c-1.1,1-1.9,1.5-2.3,1.5
				c-0.3,0-0.4-0.2-0.4-0.5C694.2,95.5,695.1,94.1,696.6,92L696.6,92z M698.8,89.2c-1.8,0-3.6,1.1-5.4,3.2c-1.4,1.7-2.1,2.9-2.1,3.7
				c0,0.2,0.1,0.3,0.2,0.3c0.5,0,1.7-1,3.7-3.1C696.6,91.8,697.8,90.5,698.8,89.2z"/>
			<path d="M705.4,93.7c0.2,0.3,0.5,0.4,0.8,0.4c0.5,0,1.2-0.4,1.9-1.1l0.2,0.2c-0.7,0.8-1.4,1.2-2,1.2c-0.4,0-0.7-0.1-0.9-0.4
				l-8.1,10.4H696c1.5-1.9,4.4-5.6,8.8-11c-0.1-0.3-0.1-0.6-0.1-1c0-0.2,0-0.4,0-0.5c-0.6,0.6-1,1-1.3,1.4l-0.2-0.2
				c0.3-0.4,0.8-0.9,1.6-1.6c0.1-0.6,0.4-1.1,0.7-1.6c0.3-0.4,0.7-0.7,1.1-0.7c0.2,0,0.4,0.1,0.5,0.3l1.9-1.4
				c1.4-1.9,2.8-3.7,4.3-5.6c2.4-3.1,4-4.6,4.6-4.6c0.3,0,0.4,0.1,0.4,0.4c0,0.8-0.7,2-2.2,3.8c-1.7,2-3.7,3.8-5.9,5.3
				C709.6,88.2,708,90.3,705.4,93.7z M705.1,93.1l3.5-4.3c0,0,0,0,0,0c-1.1,0.8-2.3,1.8-3.5,2.9c0,0.2-0.1,0.4-0.1,0.7
				C705,92.6,705,92.9,705.1,93.1z M705.1,91.3c0.2-0.2,0.6-0.5,1.1-1c-0.2,0-0.4-0.1-0.6-0.2C705.5,90.4,705.3,90.8,705.1,91.3z
				 M710.5,87.1c2.3-1.7,4.2-3.5,5.7-5.3c1.2-1.5,1.9-2.6,1.9-3.3c0-0.2-0.1-0.3-0.2-0.3C717.2,78.3,714.7,81.2,710.5,87.1
				C710.4,87.1,710.4,87.1,710.5,87.1C710.4,87.2,710.5,87.2,710.5,87.1z"/>
			<path d="M713.6,92c-2.7,3.1-4.5,4.6-5.2,4.6c-0.3,0-0.5-0.2-0.5-0.7c0-1.5,0.7-3,2.2-4.5c0,0,0,0,0,0c-0.6,0.5-1.3,1.1-1.9,1.8
				l-0.2-0.2c1.3-1.6,3-2.7,5-3.5c1-0.4,2-0.6,2.9-0.6c0.2,0,0.5,0,0.9,0c-1.1,1.4-2.2,2.8-3.4,4.2c-1.3,1.7-1.9,2.6-1.9,2.9
				c0,0.2,0.1,0.3,0.2,0.3c0.3,0,1-0.4,2-1.3c0.8-0.7,1.5-1.4,1.9-2l0.2,0.2c-0.5,0.6-1.2,1.2-1.9,1.9c-1.1,1-1.9,1.5-2.3,1.5
				c-0.3,0-0.4-0.2-0.4-0.5C711.2,95.5,712,94.1,713.6,92L713.6,92z M715.8,89.2c-1.8,0-3.6,1.1-5.4,3.2c-1.4,1.7-2.1,2.9-2.1,3.7
				c0,0.2,0.1,0.3,0.2,0.3c0.5,0,1.7-1,3.7-3.1C713.5,91.8,714.7,90.5,715.8,89.2z"/>
			<path d="M716.7,96.4h-1.1c2-2.6,3.1-4,3.3-4.2c1.3-1.7,1.9-2.7,1.9-3c0-0.1-0.1-0.2-0.2-0.2c-0.3,0-0.9,0.4-1.9,1.3
				c-1,0.9-1.9,1.9-2.9,3l-0.2-0.2c2.6-2.9,4.3-4.4,5.1-4.4c0.3,0,0.4,0.2,0.4,0.5s-0.2,0.8-0.5,1.4c-0.1,0.2-0.7,1.1-1.8,2.8l0,0
				c2.8-3.2,4.6-4.7,5.2-4.7c0.3,0,0.5,0.2,0.5,0.7c0,0.6-0.4,1.5-1.2,2.5c-0.3,0.3-1,1.2-2.2,2.5c-0.8,0.9-1.2,1.5-1.2,1.7
				c0,0.2,0.1,0.3,0.3,0.3c0.7,0,2-1.1,3.9-3.3l0.2,0.2c-2,2.2-3.3,3.4-4.1,3.4c-0.4,0-0.6-0.2-0.6-0.7c0-0.6,0.4-1.4,1.2-2.3
				c0-0.1,0.8-0.9,2.2-2.5c0.8-0.9,1.2-1.5,1.2-1.8c0-0.2-0.1-0.2-0.2-0.2c-0.4,0-1.4,0.9-3.1,2.6C719.6,93,718.2,94.6,716.7,96.4z"
				/>
			<path d="M731,87.2l-1.4,1.8c-1.1,1.4-2.2,2.8-3.3,4.2c-1.3,1.7-1.9,2.7-1.9,2.9c0,0.2,0.1,0.3,0.2,0.3c0.3,0,1-0.5,2-1.4
				c0.8-0.7,1.4-1.4,1.9-2l0.2,0.2c-0.6,0.6-1.2,1.3-1.9,2c-1.1,1-1.9,1.5-2.3,1.5c-0.3,0-0.4-0.2-0.4-0.5c0-0.5,0.4-1.4,1.1-2.5
				c0.5-0.8,1.7-2.3,3.4-4.5l0,0c-1.1,1.1-2.5,2.4-4.1,4l-0.2-0.2c0.1-0.1,1.1-1.1,2.9-2.8c1.6-1.6,2.7-2.7,3.1-3.3
				c-0.2,0-0.5-0.1-0.7-0.1c-0.7,0-1.3,0.3-1.8,1c0,0-0.1,0-0.1,0c-0.1,0-0.2,0-0.2-0.1c0,0,0,0,0-0.1c0.8-0.9,1.6-1.4,2.4-1.4
				c0.2,0,0.4,0,0.8,0.1l2.8-3.5h0.9l-2.9,3.7c0.2,0,0.4,0.1,0.6,0.1c0.5,0,0.8-0.2,1.2-0.6c0,0,0.1-0.1,0.1-0.1
				c0.1,0,0.1,0.1,0.1,0.2c-0.5,0.6-1.1,0.9-1.7,0.9C731.4,87.3,731.2,87.3,731,87.2z"/>
			<path d="M734,92c-2.7,3.1-4.5,4.6-5.2,4.6c-0.3,0-0.5-0.2-0.5-0.7c0-1.5,0.7-3,2.2-4.5c0,0,0,0,0,0c-0.6,0.5-1.3,1.1-1.9,1.8
				l-0.2-0.2c1.3-1.6,3-2.7,5-3.5c1-0.4,2-0.6,2.9-0.6c0.2,0,0.5,0,0.9,0c-1.1,1.4-2.2,2.8-3.4,4.2c-1.3,1.7-1.9,2.6-1.9,2.9
				c0,0.2,0.1,0.3,0.2,0.3c0.3,0,1-0.4,2-1.3c0.8-0.7,1.5-1.4,1.9-2l0.2,0.2c-0.5,0.6-1.2,1.2-1.9,1.9c-1.1,1-1.9,1.5-2.3,1.5
				c-0.3,0-0.4-0.2-0.4-0.5C731.6,95.5,732.4,94.1,734,92L734,92z M736.2,89.2c-1.8,0-3.6,1.1-5.4,3.2c-1.4,1.7-2.1,2.9-2.1,3.7
				c0,0.2,0.1,0.3,0.2,0.3c0.5,0,1.7-1,3.7-3.1C733.9,91.8,735.1,90.5,736.2,89.2z"/>
			<path d="M740.2,89.2c-1,1-2.3,2.4-3.9,4.1l-0.2-0.2c0.4-0.4,1.3-1.3,2.6-2.6c0.6-0.6,1.2-1.2,1.9-2c0.7-0.8,1.1-1.2,1.2-1.2
				c0.1,0,0.2,0.1,0.2,0.2c0,0.1,0,0.1-0.1,0.2c-0.7,0.5-1.2,1.2-1.5,1.9c-0.1,0.2-0.2,0.7-0.2,1.4c0,0.7-0.2,1.3-0.3,1.8
				c-0.4,1.1-1,2-1.9,2.8c-0.8,0.7-1.5,1-2,1c-0.5,0-0.8-0.3-0.8-0.9c0-0.4,0.1-0.7,0.3-1c0.2-0.3,0.5-0.5,0.8-0.5
				c0.3,0,0.5,0.1,0.5,0.4c0,0.4-0.2,0.6-0.6,0.6c-0.2,0-0.4,0.1-0.5,0.2c-0.1,0.1-0.2,0.3-0.2,0.5c0,0.3,0.2,0.5,0.5,0.5
				c0.5,0,1.1-0.4,1.8-1.2c0.7-0.8,1.2-1.9,1.6-3.1C739.6,90.6,740,89.7,740.2,89.2C740.3,89.1,740.2,89.1,740.2,89.2z"/>
			<path d="M743.7,90.4c0,0,0.1-0.1,0-0.1C743.7,90.2,743.6,90.2,743.7,90.4c-0.7,0.5-1.6,1.5-3,2.9l-0.2-0.2
				c1.1-1.1,2.5-2.5,4.1-4.1h1.1c-1.1,1.4-2.2,2.8-3.3,4.2c-1.3,1.7-1.9,2.7-1.9,3c0,0.1,0.1,0.2,0.2,0.2c0.3,0,0.8-0.3,1.5-0.9
				s1.5-1.4,2.3-2.4l0.2,0.2c-1.9,2.3-3.3,3.4-4,3.4c-0.3,0-0.4-0.2-0.4-0.5c0-0.6,0.4-1.4,1.1-2.6
				C741.5,93.3,742.3,92.2,743.7,90.4z M749.1,83c0.2,0,0.3,0.1,0.3,0.4c0,0.2-0.1,0.4-0.3,0.6c-0.2,0.2-0.4,0.3-0.5,0.3
				c-0.2,0-0.4-0.1-0.4-0.4c0-0.2,0.1-0.5,0.3-0.7C748.7,83.1,748.9,83,749.1,83z"/>
			<path d="M750,92c-2.7,3.1-4.5,4.6-5.2,4.6c-0.3,0-0.5-0.2-0.5-0.7c0-1.5,0.7-3,2.2-4.5c0,0,0,0,0,0c-0.6,0.5-1.3,1.1-1.9,1.8
				l-0.2-0.2c1.3-1.6,3-2.7,5-3.5c1-0.4,2-0.6,2.9-0.6c0.2,0,0.5,0,0.9,0c-1.1,1.4-2.2,2.8-3.4,4.2c-1.3,1.7-1.9,2.6-1.9,2.9
				c0,0.2,0.1,0.3,0.2,0.3c0.3,0,1-0.4,2-1.3c0.8-0.7,1.5-1.4,1.9-2l0.2,0.2c-0.5,0.6-1.2,1.2-1.9,1.9c-1.1,1-1.9,1.5-2.3,1.5
				c-0.3,0-0.4-0.2-0.4-0.5C747.6,95.5,748.4,94.1,750,92L750,92z M752.2,89.2c-1.8,0-3.6,1.1-5.4,3.2c-1.4,1.7-2.1,2.9-2.1,3.7
				c0,0.2,0.1,0.3,0.2,0.3c0.5,0,1.7-1,3.7-3.1C749.9,91.8,751.1,90.5,752.2,89.2z"/>
		</g>
	</g>
	<g>
	</g>
	<g>
	</g>
	<g>
	</g>
	<g>
	</g>
	<g>
	</g>
	<g>
	</g>
</g>
</svg>
