<?xml version="1.0" encoding="utf-8"?>
<!-- Generator: Adobe Illustrator 18.0.0, SVG Export Plug-In . SVG Version: 6.00 Build 0)  -->
<!DOCTYPE svg PUBLIC "-//W3C//DTD SVG 1.1//EN" "http://www.w3.org/Graphics/SVG/1.1/DTD/svg11.dtd">
<svg version="1.1" id="Layer_1" xmlns="http://www.w3.org/2000/svg" xmlns:xlink="http://www.w3.org/1999/xlink" x="0px" y="0px"
	 viewBox="0 815 344.9 345.3" enable-background="new 0 815 344.9 345.3" xml:space="preserve">
<path fill="#00B0EA" d="M183.4,837.2c-22.8,0-44.5,4.8-64.1,13.2L83.8,815h-0.1C46.2,831.4,16.2,861.6,0,899.2l35.5,35.5l0,0
	c-8.6,19.7-13.7,41.2-13.7,64c0,89.2,72.3,161.5,161.5,161.5c89.2,0,161.5-72.3,161.5-161.5C344.9,909.5,272.6,837.2,183.4,837.2"/>
<path fill="#15374C" d="M166.9,1065.8c16.2-37.6,46.2-67.8,83.7-84.2h0L119.3,850.5l-0.1,0c-37.5,16.4-67.5,46.6-83.7,84.2
	L166.9,1065.8z"/>
<path fill="#15374C" d="M260,1026.5c-21.8,9.5-39.2,27.1-48.6,48.9l61.3,12.7L260,1026.5z"/>
<g>
	<path fill="#FFFFFF" d="M260,1026.5c-4.9-23.5-9.4-44.8-9.4-44.8l0,0c-37.4,16.4-67.5,46.6-83.7,84.2l44.5,9.5
		C220.8,1053.6,238.3,1036,260,1026.5"/>
	<rect x="575.6" y="897.4" fill="#FFFFFF" width="27.8" height="185.9"/>
	<path fill="#FFFFFF" d="M951.6,1080.3c0,25.2-9.8,35.8-25.2,35.8v22.2c44,0,53.1-25.3,53.1-65.5V897.4h-27.9L951.6,1080.3
		L951.6,1080.3z"/>
	<path fill="#FFFFFF" d="M725,986.2c-6.2,20.6-12,41.9-14.3,55.1c-2-13.5-11.5-39.6-16.2-55.1l-28.2-88.8h-26.7l59.5,185.9h20.3
		l57.6-185.9h-24.4L725,986.2z"/>
	<polygon fill="#FFFFFF" points="902.8,1060.7 902.8,1060.7 902.8,1060.4 836.6,1060.4 836.6,999.4 888.6,999.4 888.6,976.4 
		836.6,976.4 836.6,920.3 898.1,920.3 898.1,897.3 808.8,897.4 808.8,1083.3 902.8,1083.3 902.8,1083.3 902.9,1083.3 	"/>
	<path fill="#FFFFFF" d="M1321.7,1015.9c0,33.5-10.5,48.9-34.3,48.9c-23.7,0-34.2-15.5-34.2-48.9V897.4h-27.8v107.9
		c0,55.7,14.2,82.9,61.9,82.9c50.4,0,61.9-31.6,61.9-82.4V897.4h-27.4L1321.7,1015.9L1321.7,1015.9z"/>
	<path fill="#FFFFFF" d="M1787.8,897.4l-61.4,185.9h24.4l12.8-38.8h68.6l13.1,38.8h26.7l-63.2-185.9
		C1808.8,897.4,1787.8,897.4,1787.8,897.4z M1824.5,1022.3h-53.6l9.2-27.8c7-21.4,14.7-50.2,17.3-63.3c2.3,12.8,12,46.5,17.7,63.3
		L1824.5,1022.3z"/>
	<path fill="#FFFFFF" d="M1104.3,897.4c-51.2,0-78.3,37.3-78.3,95.2c0,58,27.1,95.6,78.3,95.6c51.1,0,78.3-37.6,78.3-95.6
		C1182.6,934.6,1155.5,897.4,1104.3,897.4 M1104.3,1063.7c-31.2,0-48.6-25.2-48.6-71.1c0-45.9,17.3-71.1,48.6-71.1
		c31.2,0,48.5,25.1,48.5,71.1C1152.9,1038.5,1135.5,1063.7,1104.3,1063.7"/>
	<path fill="#FFFFFF" d="M1518,954.2c0-43.3-34.3-56.8-80.2-56.8h-32.6v185.9h27.9v-70h16.9c7.4,0,13.9-0.6,13.9-0.6l33.4,70.6h29.7
		l-37.3-79.2C1508.3,994.3,1518,976.9,1518,954.2 M1450.6,990.3h-17.5v-69.5h17.5c26,0,39.5,14.2,39.5,36
		C1490.1,978.6,1475.8,990.3,1450.6,990.3"/>
	<path fill="#FFFFFF" d="M1666.8,952.5c0,24.1,0.5,68.2,1.7,79.5c-5-10.8-9.9-20.7-16.6-31.2l-67.1-103.5h-16.2v185.9h24.1v-67.1
		c0-38.2-1.3-59.9-2.4-68.4c3,7.2,13,24.3,17.9,31.9l66.9,103.6h15.8V897.4h-24.1L1666.8,952.5L1666.8,952.5z"/>
	<polygon fill="#FFFFFF" points="534.9,1060.4 476.6,1060.4 476.6,897.4 448.7,897.4 448.7,1083.3 534.9,1083.3 	"/>
	<polygon fill="#FFFFFF" points="1935.2,1060.4 1935.2,897.4 1907.3,897.4 1907.3,1083.3 1988.8,1083.3 1988.8,1060.3 	"/>
</g>
</svg>
