<?xml version="1.0" encoding="utf-8"?>
<!-- Generator: Adobe Illustrator 17.1.0, SVG Export Plug-In . SVG Version: 6.00 Build 0)  -->
<!DOCTYPE svg PUBLIC "-//W3C//DTD SVG 1.1//EN" "http://www.w3.org/Graphics/SVG/1.1/DTD/svg11.dtd" [
	<!ENTITY ns_flows "http://ns.adobe.com/Flows/1.0/">
	<!ENTITY ns_extend "http://ns.adobe.com/Extensibility/1.0/">
	<!ENTITY ns_ai "http://ns.adobe.com/AdobeIllustrator/10.0/">
	<!ENTITY ns_graphs "http://ns.adobe.com/Graphs/1.0/">
	<!ENTITY ns_vars "http://ns.adobe.com/Variables/1.0/">
	<!ENTITY ns_imrep "http://ns.adobe.com/ImageReplacement/1.0/">
	<!ENTITY ns_sfw "http://ns.adobe.com/SaveForWeb/1.0/">
	<!ENTITY ns_custom "http://ns.adobe.com/GenericCustomNamespace/1.0/">
	<!ENTITY ns_adobe_xpath "http://ns.adobe.com/XPath/1.0/">
]>
<svg version="1.1" id="Слой_1" xmlns:x="&ns_extend;" xmlns:i="&ns_ai;" xmlns:graph="&ns_graphs;"
	 xmlns="http://www.w3.org/2000/svg" xmlns:xlink="http://www.w3.org/1999/xlink" xmlns:a="http://ns.adobe.com/AdobeSVGViewerExtensions/3.0/"
	 x="0px" y="0px" viewBox="0 0 595.3 358.3" enable-background="new 0 0 595.3 358.3" xml:space="preserve">
<metadata>
	<sfw  xmlns="&ns_sfw;">
		<slices></slices>
		<sliceSourceBounds  width="575.4" height="339.2" bottomLeftOrigin="true" x="9.9" y="339.3"></sliceSourceBounds>
	</sfw>
</metadata>
<polygon fill="#DB2C2D" points="297.6,352.2 358.1,224.4 388.4,342.9 445.5,342.6 373.4,69 297.6,219.4 221.9,69 149.8,342.6 
	206.9,342.9 237.2,224.4 "/>
<path fill="#0097F1" d="M297.6,33.4c78.9,0,147.8,39,147.8,39c169,116.2,6.1,270.7,6.1,270.7s292.1-157.9,13.1-291
	c0,0-70.4-39-167-39s-167,39-167,39c-279,133.1,13.1,291,13.1,291s-162.9-154.5,6.1-270.7C149.8,72.4,218.8,33.4,297.6,33.4z"/>
</svg>
