<?xml version="1.0" encoding="utf-8"?>
<!-- Generator: Adobe Illustrator 18.0.0, SVG Export Plug-In . SVG Version: 6.00 Build 0)  -->
<!DOCTYPE svg PUBLIC "-//W3C//DTD SVG 1.1//EN" "http://www.w3.org/Graphics/SVG/1.1/DTD/svg11.dtd">
<svg version="1.1" xmlns="http://www.w3.org/2000/svg" xmlns:xlink="http://www.w3.org/1999/xlink" x="0px" y="0px"
	 viewBox="43.4 0 956.6 1000" enable-background="new 43.4 0 956.6 1000" xml:space="preserve">
<g id="Layer_1">
	<line fill="none" stroke="#EAF7FB" stroke-width="78" stroke-miterlimit="10" x1="695.9" y1="1119.3" x2="-16.7" y2="406.9"/>
	<path fill="none" stroke="#EE3126" stroke-width="12" stroke-miterlimit="10" d="M185.7,930.4l209.2-209.2
		c8.5-8.5,13.3-19.8,13.3-31.7V38"/>
	<path fill="none" stroke="#47B75E" stroke-width="12" stroke-miterlimit="10" d="M209.7,371.6l65.4-65.4
		c8.5-8.5,19.8-13.3,31.7-13.3h501.7"/>
</g>
<g id="Layer_2">
	<circle id="e0" fill="#FFFFFF" stroke="#EE3126" stroke-width="6.7057" stroke-miterlimit="10" cx="408.1" cy="38" r="9.7"/>
	<circle id="e1" fill="#FFFFFF" stroke="#EE3126" stroke-width="6.7057" stroke-miterlimit="10" cx="408" cy="165.7" r="9.7"/>
	<circle id="e2" fill="#FFFFFF" stroke="#EE3126" stroke-width="6.7057" stroke-miterlimit="10" cx="408" cy="293.3" r="9.7"/>
	<circle id="e3" fill="#FFFFFF" stroke="#EE3126" stroke-width="6.7057" stroke-miterlimit="10" cx="408.1" cy="421.1" r="9.7"/>
	<circle id="e4" fill="#FFFFFF" stroke="#EE3126" stroke-width="6.7057" stroke-miterlimit="10" cx="408.1" cy="548.8" r="9.7"/>
	<circle id="e5" fill="#FFFFFF" stroke="#EE3126" stroke-width="6.7057" stroke-miterlimit="10" cx="408.1" cy="676.6" r="9.7"/>
	<circle id="e6" fill="#FFFFFF" stroke="#EE3126" stroke-width="6.7057" stroke-miterlimit="10" cx="278.8" cy="837" r="9.7"/>
	<circle id="e7" fill="#FFFFFF" stroke="#EE3126" stroke-width="6.7057" stroke-miterlimit="10" cx="185.7" cy="930.4" r="9.7"/>
	<circle id="e8" fill="#FFFFFF" stroke="#4CB662" stroke-width="6.7057" stroke-miterlimit="10" cx="209.6" cy="371.7" r="9.7"/>
	<circle id="e9" fill="#FFFFFF" stroke="#4CB662" stroke-width="6.7057" stroke-miterlimit="10" cx="379.1" cy="293.3" r="9.7"/>
	<circle id="e10" fill="#FFFFFF" stroke="#4CB662" stroke-width="6.7057" stroke-miterlimit="10" cx="545" cy="293" r="9.7"/>
	<circle id="e11" fill="#FFFFFF" stroke="#4CB662" stroke-width="6.7057" stroke-miterlimit="10" cx="677.4" cy="293.3" r="9.7"/>
	<circle id="e12" fill="#FFFFFF" stroke="#4CB662" stroke-width="6.7057" stroke-miterlimit="10" cx="809.7" cy="293.3" r="9.7"/>
</g>
</svg>
